<svg width="372" height="97" viewBox="0 0 372 97" fill="none" xmlns="http://www.w3.org/2000/svg">
<path d="M12.12 14C11.8666 13.32 11.6266 12.6667 11.4 12.04C11.1733 11.4133 10.9533 10.8 10.74 10.2H3.99995C3.77328 10.8 3.54662 11.4133 3.31995 12.04C3.09328 12.6667 2.85995 13.32 2.61995 14H1.19995C1.73328 12.56 2.23328 11.22 2.69995 9.98001C3.16662 8.72668 3.61995 7.54668 4.05995 6.44001C4.51328 5.32001 4.95995 4.24668 5.39995 3.22001C5.83995 2.19335 6.30662 1.16668 6.79995 0.140015H7.99995C8.49329 1.16668 8.95995 2.19335 9.39995 3.22001C9.83995 4.24668 10.28 5.32001 10.72 6.44001C11.1733 7.54668 11.6333 8.72668 12.1 9.98001C12.5666 11.22 13.0733 12.56 13.62 14H12.12ZM7.35995 1.70001C6.85328 2.84668 6.35995 4.01335 5.87995 5.20001C5.41328 6.38668 4.92662 7.66668 4.41995 9.04002H10.32C9.81329 7.66668 9.31995 6.38668 8.83995 5.20001C8.35995 4.01335 7.86662 2.84668 7.35995 1.70001Z" fill="black"/>
<path d="M16.8325 12.14C16.9525 12.2333 17.0991 12.3333 17.2725 12.44C17.4591 12.5467 17.6725 12.6467 17.9125 12.74C18.1525 12.8333 18.4125 12.9133 18.6925 12.98C18.9725 13.0333 19.2658 13.06 19.5725 13.06C20.2125 13.06 20.7458 12.9533 21.1725 12.74C21.6125 12.5133 21.9658 12.2133 22.2325 11.84C22.4991 11.4533 22.6925 11.0067 22.8125 10.5C22.9325 9.98001 22.9925 9.43335 22.9925 8.86001C22.9925 7.50001 22.6525 6.46001 21.9725 5.74001C21.2925 5.00668 20.3925 4.64001 19.2725 4.64001C18.6325 4.64001 18.1125 4.67335 17.7125 4.74001C17.3258 4.79335 17.0325 4.85335 16.8325 4.92001V12.14ZM16.8325 17.7H15.5325V4.02001C15.9191 3.88668 16.4125 3.76002 17.0125 3.64001C17.6125 3.52001 18.3725 3.46001 19.2925 3.46001C20.0525 3.46001 20.7391 3.58668 21.3525 3.84001C21.9791 4.08001 22.5125 4.43335 22.9525 4.90001C23.4058 5.36668 23.7525 5.93335 23.9925 6.60001C24.2458 7.26668 24.3725 8.02001 24.3725 8.86001C24.3725 9.64668 24.2658 10.3733 24.0525 11.04C23.8525 11.6933 23.5525 12.26 23.1525 12.74C22.7525 13.2067 22.2591 13.5733 21.6725 13.84C21.0991 14.1067 20.4391 14.24 19.6925 14.24C19.0125 14.24 18.4191 14.1467 17.9125 13.96C17.4191 13.76 17.0591 13.5733 16.8325 13.4V17.7Z" fill="black"/>
<path d="M30.4526 13.06C30.9593 13.06 31.3993 13.0467 31.7726 13.02C32.1593 12.98 32.4859 12.9333 32.7526 12.88V9.24002C32.6059 9.17335 32.3726 9.10668 32.0526 9.04002C31.7326 8.96002 31.2926 8.92002 30.7326 8.92002C30.4126 8.92002 30.0793 8.94668 29.7326 9.00002C29.3859 9.04002 29.0659 9.14001 28.7726 9.30001C28.4793 9.44668 28.2393 9.65335 28.0526 9.92001C27.8659 10.1867 27.7726 10.54 27.7726 10.98C27.7726 11.3667 27.8326 11.6933 27.9526 11.96C28.0859 12.2267 28.2659 12.44 28.4926 12.6C28.7326 12.76 29.0126 12.88 29.3326 12.96C29.6659 13.0267 30.0393 13.06 30.4526 13.06ZM30.3326 3.42001C31.0126 3.42001 31.5859 3.52001 32.0526 3.72002C32.5326 3.90668 32.9193 4.17335 33.2126 4.52001C33.5059 4.85335 33.7193 5.25335 33.8526 5.72001C33.9859 6.18668 34.0526 6.69335 34.0526 7.24001V13.76C33.9193 13.8 33.7259 13.8467 33.4726 13.9C33.2193 13.94 32.9259 13.9867 32.5926 14.04C32.2593 14.0933 31.8859 14.1333 31.4726 14.16C31.0726 14.2 30.6593 14.22 30.2326 14.22C29.6859 14.22 29.1793 14.16 28.7126 14.04C28.2593 13.92 27.8593 13.7333 27.5126 13.48C27.1793 13.2133 26.9126 12.88 26.7126 12.48C26.5259 12.0667 26.4326 11.5667 26.4326 10.98C26.4326 10.42 26.5393 9.94001 26.7526 9.54002C26.9659 9.14001 27.2659 8.81335 27.6526 8.56001C28.0393 8.29335 28.4993 8.10001 29.0326 7.98001C29.5659 7.86001 30.1459 7.80001 30.7726 7.80001C30.9593 7.80001 31.1526 7.81335 31.3526 7.84001C31.5659 7.85335 31.7659 7.88001 31.9526 7.92001C32.1526 7.94668 32.3193 7.98001 32.4526 8.02001C32.5993 8.04668 32.6993 8.07335 32.7526 8.10001V7.46001C32.7526 7.10001 32.7259 6.75335 32.6726 6.42001C32.6193 6.07335 32.4993 5.76668 32.3126 5.50001C32.1393 5.22001 31.8859 5.00001 31.5526 4.84001C31.2326 4.66668 30.8059 4.58001 30.2726 4.58001C29.5126 4.58001 28.9459 4.63335 28.5726 4.74001C28.1993 4.84668 27.9259 4.93335 27.7526 5.00001L27.5726 3.86001C27.7993 3.75335 28.1459 3.65335 28.6126 3.56001C29.0926 3.46668 29.6659 3.42001 30.3326 3.42001Z" fill="black"/>
<path d="M40.8884 3.46001C41.3151 3.46001 41.7151 3.49335 42.0884 3.56001C42.4751 3.62668 42.7417 3.69335 42.8884 3.76001L42.6284 4.88001C42.5217 4.82668 42.3017 4.77335 41.9684 4.72001C41.6484 4.65335 41.2217 4.62001 40.6884 4.62001C40.1284 4.62001 39.6751 4.66001 39.3284 4.74001C38.9951 4.82001 38.7751 4.88668 38.6684 4.94001V14H37.3684V4.14001C37.7017 3.99335 38.1617 3.84668 38.7484 3.70001C39.3351 3.54001 40.0484 3.46001 40.8884 3.46001Z" fill="black"/>
<path d="M46.0689 3.66001H50.1889V4.76001H46.0689V10.26C46.0689 10.8467 46.1155 11.3267 46.2089 11.7C46.3155 12.06 46.4622 12.34 46.6489 12.54C46.8355 12.74 47.0622 12.8733 47.3289 12.94C47.5955 13.0067 47.8889 13.04 48.2089 13.04C48.7555 13.04 49.1955 12.98 49.5289 12.86C49.8622 12.7267 50.1222 12.6067 50.3089 12.5L50.6289 13.58C50.4422 13.7 50.1155 13.84 49.6489 14C49.1822 14.1467 48.6755 14.22 48.1289 14.22C47.4889 14.22 46.9489 14.14 46.5089 13.98C46.0822 13.8067 45.7355 13.5533 45.4689 13.22C45.2155 12.8733 45.0355 12.4467 44.9289 11.94C44.8222 11.4333 44.7689 10.8333 44.7689 10.14V0.620014L46.0689 0.380014V3.66001Z" fill="black"/>
<path d="M52.5832 4.02001C52.9699 3.91335 53.4699 3.79335 54.0832 3.66001C54.7099 3.52668 55.5166 3.46001 56.5032 3.46001C57.8099 3.46001 58.7566 3.84001 59.3432 4.60001C59.4099 4.54668 59.5366 4.46001 59.7232 4.34001C59.9232 4.20668 60.1699 4.07335 60.4632 3.94001C60.7566 3.80668 61.0966 3.69335 61.4832 3.60001C61.8832 3.50668 62.3232 3.46001 62.8032 3.46001C63.5899 3.46001 64.2232 3.58001 64.7032 3.82001C65.1966 4.04668 65.5766 4.37335 65.8432 4.80001C66.1099 5.21335 66.2899 5.71335 66.3832 6.30001C66.4766 6.88668 66.5232 7.52668 66.5232 8.22001V14H65.2232V8.64001C65.2232 7.96001 65.1899 7.37335 65.1232 6.88001C65.0699 6.37335 64.9499 5.96001 64.7632 5.64001C64.5899 5.30668 64.3366 5.06001 64.0032 4.90001C63.6699 4.72668 63.2366 4.64001 62.7032 4.64001C62.3032 4.64001 61.9366 4.68001 61.6032 4.76001C61.2832 4.82668 61.0032 4.91335 60.7632 5.02001C60.5232 5.12668 60.3232 5.23335 60.1632 5.34001C60.0166 5.44668 59.9099 5.52668 59.8432 5.58001C59.9632 5.92668 60.0499 6.32001 60.1032 6.76001C60.1699 7.18668 60.2032 7.64002 60.2032 8.12002V14H58.9032V8.64001C58.9032 7.96001 58.8699 7.37335 58.8032 6.88001C58.7499 6.37335 58.6299 5.96001 58.4432 5.64001C58.2566 5.30668 57.9899 5.06001 57.6432 4.90001C57.3099 4.72668 56.8632 4.64001 56.3032 4.64001C55.6766 4.64001 55.1432 4.67335 54.7032 4.74001C54.2766 4.80668 54.0032 4.86668 53.8832 4.92001V14H52.5832V4.02001Z" fill="black"/>
<path d="M69.2289 8.82001C69.2289 7.91335 69.3555 7.12668 69.6089 6.46001C69.8755 5.78001 70.2155 5.21335 70.6289 4.76001C71.0555 4.30668 71.5355 3.97335 72.0689 3.76001C72.6155 3.53335 73.1755 3.42001 73.7489 3.42001C75.0155 3.42001 76.0222 3.83335 76.7689 4.66002C77.5289 5.48668 77.9089 6.76001 77.9089 8.48001C77.9089 8.58668 77.9022 8.69335 77.8889 8.80001C77.8889 8.90668 77.8822 9.00668 77.8689 9.10001H70.6089C70.6489 10.3667 70.9622 11.34 71.5489 12.02C72.1355 12.7 73.0689 13.04 74.3489 13.04C75.0555 13.04 75.6155 12.9733 76.0289 12.84C76.4422 12.7067 76.7422 12.5933 76.9289 12.5L77.1689 13.62C76.9822 13.7267 76.6289 13.8533 76.1089 14C75.6022 14.1467 75.0022 14.22 74.3089 14.22C73.4022 14.22 72.6289 14.0867 71.9889 13.82C71.3489 13.5533 70.8222 13.18 70.4089 12.7C69.9955 12.22 69.6955 11.6533 69.5089 11C69.3222 10.3333 69.2289 9.60668 69.2289 8.82001ZM76.5689 8.00001C76.5422 6.92001 76.2889 6.08001 75.8089 5.48001C75.3289 4.88001 74.6489 4.58001 73.7689 4.58001C73.3022 4.58001 72.8822 4.67335 72.5089 4.86001C72.1489 5.04668 71.8289 5.30001 71.5489 5.62001C71.2822 5.92668 71.0689 6.28668 70.9089 6.70002C70.7622 7.11335 70.6755 7.54668 70.6489 8.00001H76.5689Z" fill="black"/>
<path d="M80.8059 4.02001C81.1926 3.91335 81.7126 3.79335 82.3659 3.66001C83.0192 3.52668 83.8192 3.46001 84.7659 3.46001C85.5526 3.46001 86.2059 3.57335 86.7259 3.80001C87.2592 4.02668 87.6792 4.35335 87.9859 4.78001C88.3059 5.19335 88.5326 5.69335 88.6659 6.28001C88.7992 6.86668 88.8659 7.51335 88.8659 8.22001V14H87.5659V8.64001C87.5659 7.90668 87.5126 7.28668 87.4059 6.78001C87.3126 6.27335 87.1459 5.86001 86.9059 5.54001C86.6792 5.22001 86.3726 4.99335 85.9859 4.86001C85.6125 4.71335 85.1392 4.64001 84.5659 4.64001C83.9526 4.64001 83.4192 4.67335 82.9659 4.74001C82.5259 4.80668 82.2392 4.86668 82.1059 4.92001V14H80.8059V4.02001Z" fill="black"/>
<path d="M93.4126 3.66001H97.5326V4.76001H93.4126V10.26C93.4126 10.8467 93.4593 11.3267 93.5526 11.7C93.6593 12.06 93.8059 12.34 93.9926 12.54C94.1793 12.74 94.4059 12.8733 94.6726 12.94C94.9393 13.0067 95.2326 13.04 95.5526 13.04C96.0993 13.04 96.5393 12.98 96.8726 12.86C97.2059 12.7267 97.4659 12.6067 97.6526 12.5L97.9726 13.58C97.7859 13.7 97.4593 13.84 96.9926 14C96.5259 14.1467 96.0193 14.22 95.4726 14.22C94.8326 14.22 94.2926 14.14 93.8526 13.98C93.4259 13.8067 93.0793 13.5533 92.8126 13.22C92.5593 12.8733 92.3793 12.4467 92.2726 11.94C92.1659 11.4333 92.1126 10.8333 92.1126 10.14V0.620014L93.4126 0.380014V3.66001Z" fill="black"/>
<path d="M10.68 48.82V50H2.80005V36.14H4.16005V48.82H10.68Z" fill="#D76147"/>
<path d="M21.5791 44.84C21.5791 45.6533 21.4591 46.3933 21.2191 47.06C20.9924 47.7266 20.6658 48.2933 20.2391 48.76C19.8258 49.2266 19.3324 49.5933 18.7591 49.86C18.1858 50.1133 17.5524 50.24 16.8591 50.24C16.1658 50.24 15.5324 50.1133 14.9591 49.86C14.3858 49.5933 13.8858 49.2266 13.4591 48.76C13.0458 48.2933 12.7191 47.7266 12.4791 47.06C12.2524 46.3933 12.1391 45.6533 12.1391 44.84C12.1391 44.0266 12.2524 43.2866 12.4791 42.62C12.7191 41.9533 13.0458 41.3866 13.4591 40.92C13.8858 40.44 14.3858 40.0733 14.9591 39.82C15.5324 39.5533 16.1658 39.42 16.8591 39.42C17.5524 39.42 18.1858 39.5533 18.7591 39.82C19.3324 40.0733 19.8258 40.44 20.2391 40.92C20.6658 41.3866 20.9924 41.9533 21.2191 42.62C21.4591 43.2866 21.5791 44.0266 21.5791 44.84ZM20.1991 44.84C20.1991 43.5466 19.8991 42.52 19.2991 41.76C18.6991 40.9866 17.8858 40.6 16.8591 40.6C15.8324 40.6 15.0191 40.9866 14.4191 41.76C13.8191 42.52 13.5191 43.5466 13.5191 44.84C13.5191 46.1333 13.8191 47.16 14.4191 47.92C15.0191 48.68 15.8324 49.06 16.8591 49.06C17.8858 49.06 18.6991 48.68 19.2991 47.92C19.8991 47.16 20.1991 46.1333 20.1991 44.84Z" fill="#D76147"/>
<path d="M27.5197 48.6C27.7997 48.0266 28.0864 47.3733 28.3797 46.64C28.6731 45.8933 28.9531 45.1266 29.2197 44.34C29.4997 43.54 29.7531 42.74 29.9797 41.94C30.2197 41.1266 30.4197 40.3666 30.5797 39.66H31.8797C31.6397 40.6066 31.3731 41.54 31.0797 42.46C30.7864 43.38 30.4731 44.28 30.1397 45.16C29.8197 46.04 29.4797 46.8866 29.1197 47.7C28.7731 48.5133 28.4331 49.28 28.0997 50H26.8597C26.5131 49.28 26.1664 48.5133 25.8197 47.7C25.4731 46.8866 25.1331 46.04 24.7997 45.16C24.4797 44.28 24.1731 43.38 23.8797 42.46C23.5864 41.54 23.3197 40.6066 23.0797 39.66H24.4597C24.6197 40.3666 24.8131 41.1266 25.0397 41.94C25.2797 42.74 25.5331 43.54 25.7997 44.34C26.0797 45.1266 26.3664 45.8933 26.6597 46.64C26.9531 47.3733 27.2397 48.0266 27.5197 48.6Z" fill="#D76147"/>
<path d="M33.3891 44.82C33.3891 43.9133 33.5158 43.1266 33.7691 42.46C34.0358 41.78 34.3758 41.2133 34.7891 40.76C35.2158 40.3066 35.6958 39.9733 36.2291 39.76C36.7758 39.5333 37.3358 39.42 37.9091 39.42C39.1758 39.42 40.1824 39.8333 40.9291 40.66C41.6891 41.4866 42.0691 42.76 42.0691 44.48C42.0691 44.5866 42.0624 44.6933 42.0491 44.8C42.0491 44.9066 42.0424 45.0066 42.0291 45.1H34.7691C34.8091 46.3666 35.1224 47.34 35.7091 48.02C36.2958 48.7 37.2291 49.04 38.5091 49.04C39.2158 49.04 39.7758 48.9733 40.1891 48.84C40.6024 48.7066 40.9024 48.5933 41.0891 48.5L41.3291 49.62C41.1424 49.7266 40.7891 49.8533 40.2691 50C39.7624 50.1466 39.1624 50.22 38.4691 50.22C37.5624 50.22 36.7891 50.0866 36.1491 49.82C35.5091 49.5533 34.9824 49.18 34.5691 48.7C34.1558 48.22 33.8558 47.6533 33.6691 47C33.4824 46.3333 33.3891 45.6066 33.3891 44.82ZM40.7291 44C40.7024 42.92 40.4491 42.08 39.9691 41.48C39.4891 40.88 38.8091 40.58 37.9291 40.58C37.4624 40.58 37.0424 40.6733 36.6691 40.86C36.3091 41.0466 35.9891 41.3 35.7091 41.62C35.4424 41.9266 35.2291 42.2866 35.0691 42.7C34.9224 43.1133 34.8358 43.5466 34.8091 44H40.7291Z" fill="#D76147"/>
<path d="M47.5861 50.18C47.1461 50.1666 46.7595 50.1066 46.4261 50C46.1061 49.9066 45.8328 49.76 45.6061 49.56C45.3928 49.3466 45.2261 49.08 45.1061 48.76C44.9995 48.4266 44.9461 48.0133 44.9461 47.52V34.72L46.2461 34.48V47.48C46.2461 47.8 46.2728 48.06 46.3261 48.26C46.3928 48.4466 46.4861 48.6 46.6061 48.72C46.7261 48.8266 46.8795 48.9066 47.0661 48.96C47.2661 49.0133 47.4995 49.06 47.7661 49.1L47.5861 50.18Z" fill="#D76147"/>
<path d="M52.8838 50.22C52.4438 49.4066 52.0171 48.56 51.6038 47.68C51.2038 46.8 50.8238 45.9133 50.4638 45.02C50.1171 44.1133 49.7971 43.2133 49.5038 42.32C49.2105 41.4133 48.9571 40.5266 48.7438 39.66H50.1238C50.2705 40.3 50.4571 40.9933 50.6838 41.74C50.9105 42.4733 51.1638 43.2333 51.4438 44.02C51.7371 44.8066 52.0571 45.6133 52.4038 46.44C52.7505 47.2666 53.1238 48.08 53.5238 48.88C53.8171 48.0533 54.0771 47.2733 54.3038 46.54C54.5305 45.8066 54.7371 45.08 54.9238 44.36C55.1238 43.6266 55.3105 42.88 55.4838 42.12C55.6705 41.36 55.8638 40.54 56.0638 39.66H57.3638C56.9371 41.5933 56.4505 43.4733 55.9038 45.3C55.3571 47.1266 54.7638 48.8 54.1238 50.32C53.8705 50.92 53.6105 51.4333 53.3438 51.86C53.0771 52.3 52.7771 52.66 52.4438 52.94C52.1238 53.22 51.7438 53.4266 51.3038 53.56C50.8771 53.6933 50.3705 53.76 49.7838 53.76C49.4505 53.76 49.1438 53.72 48.8638 53.64C48.5971 53.56 48.4305 53.5 48.3638 53.46L48.6238 52.38C48.6771 52.42 48.8238 52.4733 49.0638 52.54C49.3171 52.62 49.5771 52.66 49.8438 52.66C50.2171 52.66 50.5505 52.62 50.8438 52.54C51.1505 52.46 51.4238 52.32 51.6638 52.12C51.9038 51.9333 52.1171 51.6866 52.3038 51.38C52.5038 51.0733 52.6971 50.6866 52.8838 50.22Z" fill="#D76147"/>
<path d="M73.4872 50C73.2339 49.32 72.9939 48.6666 72.7672 48.04C72.5406 47.4133 72.3206 46.8 72.1072 46.2H65.3672C65.1406 46.8 64.9139 47.4133 64.6872 48.04C64.4606 48.6666 64.2272 49.32 63.9872 50H62.5672C63.1006 48.56 63.6006 47.22 64.0672 45.98C64.5339 44.7266 64.9872 43.5466 65.4272 42.44C65.8806 41.32 66.3272 40.2466 66.7672 39.22C67.2072 38.1933 67.6739 37.1666 68.1672 36.14H69.3672C69.8606 37.1666 70.3272 38.1933 70.7672 39.22C71.2072 40.2466 71.6472 41.32 72.0872 42.44C72.5406 43.5466 73.0006 44.7266 73.4672 45.98C73.9339 47.22 74.4406 48.56 74.9872 50H73.4872ZM68.7272 37.7C68.2206 38.8466 67.7272 40.0133 67.2472 41.2C66.7806 42.3866 66.2939 43.6666 65.7872 45.04H71.6872C71.1806 43.6666 70.6872 42.3866 70.2072 41.2C69.7272 40.0133 69.2339 38.8466 68.7272 37.7Z" fill="#D76147"/>
<path d="M78.1997 48.14C78.3197 48.2333 78.4664 48.3333 78.6397 48.44C78.8264 48.5466 79.0397 48.6466 79.2797 48.74C79.5197 48.8333 79.7797 48.9133 80.0597 48.98C80.3397 49.0333 80.6331 49.06 80.9397 49.06C81.5797 49.06 82.1131 48.9533 82.5397 48.74C82.9797 48.5133 83.3331 48.2133 83.5997 47.84C83.8664 47.4533 84.0597 47.0066 84.1797 46.5C84.2997 45.98 84.3597 45.4333 84.3597 44.86C84.3597 43.5 84.0197 42.46 83.3397 41.74C82.6597 41.0066 81.7597 40.64 80.6397 40.64C79.9997 40.64 79.4797 40.6733 79.0797 40.74C78.6931 40.7933 78.3997 40.8533 78.1997 40.92V48.14ZM78.1997 53.7H76.8997V40.02C77.2864 39.8866 77.7797 39.76 78.3797 39.64C78.9797 39.52 79.7397 39.46 80.6597 39.46C81.4197 39.46 82.1064 39.5866 82.7197 39.84C83.3464 40.08 83.8797 40.4333 84.3197 40.9C84.7731 41.3666 85.1197 41.9333 85.3597 42.6C85.6131 43.2666 85.7397 44.02 85.7397 44.86C85.7397 45.6466 85.6331 46.3733 85.4197 47.04C85.2197 47.6933 84.9197 48.26 84.5197 48.74C84.1197 49.2066 83.6264 49.5733 83.0397 49.84C82.4664 50.1066 81.8064 50.24 81.0597 50.24C80.3797 50.24 79.7864 50.1466 79.2797 49.96C78.7864 49.76 78.4264 49.5733 78.1997 49.4V53.7Z" fill="#D76147"/>
<path d="M91.8199 49.06C92.3266 49.06 92.7666 49.0466 93.1399 49.02C93.5266 48.98 93.8532 48.9333 94.1199 48.88V45.24C93.9732 45.1733 93.7399 45.1066 93.4199 45.04C93.0999 44.96 92.6599 44.92 92.0999 44.92C91.7799 44.92 91.4466 44.9466 91.0999 45C90.7532 45.04 90.4332 45.14 90.1399 45.3C89.8466 45.4466 89.6066 45.6533 89.4199 45.92C89.2332 46.1866 89.1399 46.54 89.1399 46.98C89.1399 47.3666 89.1999 47.6933 89.3199 47.96C89.4532 48.2266 89.6332 48.44 89.8599 48.6C90.0999 48.76 90.3799 48.88 90.6999 48.96C91.0332 49.0266 91.4066 49.06 91.8199 49.06ZM91.6999 39.42C92.3799 39.42 92.9532 39.52 93.4199 39.72C93.8999 39.9066 94.2866 40.1733 94.5799 40.52C94.8732 40.8533 95.0866 41.2533 95.2199 41.72C95.3532 42.1866 95.4199 42.6933 95.4199 43.24V49.76C95.2866 49.8 95.0932 49.8466 94.8399 49.9C94.5866 49.94 94.2932 49.9866 93.9599 50.04C93.6266 50.0933 93.2532 50.1333 92.8399 50.16C92.4399 50.2 92.0266 50.22 91.5999 50.22C91.0532 50.22 90.5466 50.16 90.0799 50.04C89.6266 49.92 89.2266 49.7333 88.8799 49.48C88.5466 49.2133 88.2799 48.88 88.0799 48.48C87.8932 48.0666 87.7999 47.5666 87.7999 46.98C87.7999 46.42 87.9066 45.94 88.1199 45.54C88.3332 45.14 88.6332 44.8133 89.0199 44.56C89.4066 44.2933 89.8666 44.1 90.3999 43.98C90.9332 43.86 91.5132 43.8 92.1399 43.8C92.3266 43.8 92.5199 43.8133 92.7199 43.84C92.9332 43.8533 93.1332 43.88 93.3199 43.92C93.5199 43.9466 93.6866 43.98 93.8199 44.02C93.9666 44.0466 94.0666 44.0733 94.1199 44.1V43.46C94.1199 43.1 94.0932 42.7533 94.0399 42.42C93.9866 42.0733 93.8666 41.7666 93.6799 41.5C93.5066 41.22 93.2532 41 92.9199 40.84C92.5999 40.6666 92.1732 40.58 91.6399 40.58C90.8799 40.58 90.3132 40.6333 89.9399 40.74C89.5666 40.8466 89.2932 40.9333 89.1199 41L88.9399 39.86C89.1666 39.7533 89.5132 39.6533 89.9799 39.56C90.4599 39.4666 91.0332 39.42 91.6999 39.42Z" fill="#D76147"/>
<path d="M102.256 39.46C102.682 39.46 103.082 39.4933 103.456 39.56C103.842 39.6266 104.109 39.6933 104.256 39.76L103.996 40.88C103.889 40.8266 103.669 40.7733 103.336 40.72C103.016 40.6533 102.589 40.62 102.056 40.62C101.496 40.62 101.042 40.66 100.696 40.74C100.362 40.82 100.142 40.8866 100.036 40.94V50H98.7357V40.14C99.069 39.9933 99.529 39.8466 100.116 39.7C100.702 39.54 101.416 39.46 102.256 39.46Z" fill="#D76147"/>
<path d="M107.436 39.66H111.556V40.76H107.436V46.26C107.436 46.8466 107.483 47.3266 107.576 47.7C107.683 48.06 107.829 48.34 108.016 48.54C108.203 48.74 108.429 48.8733 108.696 48.94C108.963 49.0066 109.256 49.04 109.576 49.04C110.123 49.04 110.563 48.98 110.896 48.86C111.229 48.7266 111.489 48.6066 111.676 48.5L111.996 49.58C111.809 49.7 111.483 49.84 111.016 50C110.549 50.1466 110.043 50.22 109.496 50.22C108.856 50.22 108.316 50.14 107.876 49.98C107.449 49.8066 107.103 49.5533 106.836 49.22C106.583 48.8733 106.403 48.4466 106.296 47.94C106.189 47.4333 106.136 46.8333 106.136 46.14V36.62L107.436 36.38V39.66Z" fill="#D76147"/>
<path d="M113.951 40.02C114.337 39.9133 114.837 39.7933 115.451 39.66C116.077 39.5266 116.884 39.46 117.871 39.46C119.177 39.46 120.124 39.84 120.711 40.6C120.777 40.5466 120.904 40.46 121.091 40.34C121.291 40.2066 121.537 40.0733 121.831 39.94C122.124 39.8066 122.464 39.6933 122.851 39.6C123.251 39.5066 123.691 39.46 124.171 39.46C124.957 39.46 125.591 39.58 126.071 39.82C126.564 40.0466 126.944 40.3733 127.211 40.8C127.477 41.2133 127.657 41.7133 127.751 42.3C127.844 42.8866 127.891 43.5266 127.891 44.22V50H126.591V44.64C126.591 43.96 126.557 43.3733 126.491 42.88C126.437 42.3733 126.317 41.96 126.131 41.64C125.957 41.3066 125.704 41.06 125.371 40.9C125.037 40.7266 124.604 40.64 124.071 40.64C123.671 40.64 123.304 40.68 122.971 40.76C122.651 40.8266 122.371 40.9133 122.131 41.02C121.891 41.1266 121.691 41.2333 121.531 41.34C121.384 41.4466 121.277 41.5266 121.211 41.58C121.331 41.9266 121.417 42.32 121.471 42.76C121.537 43.1866 121.571 43.64 121.571 44.12V50H120.271V44.64C120.271 43.96 120.237 43.3733 120.171 42.88C120.117 42.3733 119.997 41.96 119.811 41.64C119.624 41.3066 119.357 41.06 119.011 40.9C118.677 40.7266 118.231 40.64 117.671 40.64C117.044 40.64 116.511 40.6733 116.071 40.74C115.644 40.8066 115.371 40.8666 115.251 40.92V50H113.951V40.02Z" fill="#D76147"/>
<path d="M130.596 44.82C130.596 43.9133 130.723 43.1266 130.976 42.46C131.243 41.78 131.583 41.2133 131.996 40.76C132.423 40.3066 132.903 39.9733 133.436 39.76C133.983 39.5333 134.543 39.42 135.116 39.42C136.383 39.42 137.389 39.8333 138.136 40.66C138.896 41.4866 139.276 42.76 139.276 44.48C139.276 44.5866 139.269 44.6933 139.256 44.8C139.256 44.9066 139.249 45.0066 139.236 45.1H131.976C132.016 46.3666 132.329 47.34 132.916 48.02C133.503 48.7 134.436 49.04 135.716 49.04C136.423 49.04 136.983 48.9733 137.396 48.84C137.809 48.7066 138.109 48.5933 138.296 48.5L138.536 49.62C138.349 49.7266 137.996 49.8533 137.476 50C136.969 50.1466 136.369 50.22 135.676 50.22C134.769 50.22 133.996 50.0866 133.356 49.82C132.716 49.5533 132.189 49.18 131.776 48.7C131.363 48.22 131.063 47.6533 130.876 47C130.689 46.3333 130.596 45.6066 130.596 44.82ZM137.936 44C137.909 42.92 137.656 42.08 137.176 41.48C136.696 40.88 136.016 40.58 135.136 40.58C134.669 40.58 134.249 40.6733 133.876 40.86C133.516 41.0466 133.196 41.3 132.916 41.62C132.649 41.9266 132.436 42.2866 132.276 42.7C132.129 43.1133 132.043 43.5466 132.016 44H137.936Z" fill="#D76147"/>
<path d="M142.173 40.02C142.56 39.9133 143.08 39.7933 143.733 39.66C144.387 39.5266 145.187 39.46 146.133 39.46C146.92 39.46 147.573 39.5733 148.093 39.8C148.627 40.0266 149.047 40.3533 149.353 40.78C149.673 41.1933 149.9 41.6933 150.033 42.28C150.167 42.8666 150.233 43.5133 150.233 44.22V50H148.933V44.64C148.933 43.9066 148.88 43.2866 148.773 42.78C148.68 42.2733 148.513 41.86 148.273 41.54C148.047 41.22 147.74 40.9933 147.353 40.86C146.98 40.7133 146.507 40.64 145.933 40.64C145.32 40.64 144.787 40.6733 144.333 40.74C143.893 40.8066 143.607 40.8666 143.473 40.92V50H142.173V40.02Z" fill="#D76147"/>
<path d="M154.78 39.66H158.9V40.76H154.78V46.26C154.78 46.8466 154.827 47.3266 154.92 47.7C155.027 48.06 155.173 48.34 155.36 48.54C155.547 48.74 155.773 48.8733 156.04 48.94C156.307 49.0066 156.6 49.04 156.92 49.04C157.467 49.04 157.907 48.98 158.24 48.86C158.573 48.7266 158.833 48.6066 159.02 48.5L159.34 49.58C159.153 49.7 158.827 49.84 158.36 50C157.893 50.1466 157.387 50.22 156.84 50.22C156.2 50.22 155.66 50.14 155.22 49.98C154.793 49.8066 154.447 49.5533 154.18 49.22C153.927 48.8733 153.747 48.4466 153.64 47.94C153.533 47.4333 153.48 46.8333 153.48 46.14V36.62L154.78 36.38V39.66Z" fill="#D76147"/>
<path d="M174.665 44.84C174.665 45.6533 174.545 46.3933 174.305 47.06C174.078 47.7266 173.752 48.2933 173.325 48.76C172.912 49.2266 172.418 49.5933 171.845 49.86C171.272 50.1133 170.638 50.24 169.945 50.24C169.252 50.24 168.618 50.1133 168.045 49.86C167.472 49.5933 166.972 49.2266 166.545 48.76C166.132 48.2933 165.805 47.7266 165.565 47.06C165.338 46.3933 165.225 45.6533 165.225 44.84C165.225 44.0266 165.338 43.2866 165.565 42.62C165.805 41.9533 166.132 41.3866 166.545 40.92C166.972 40.44 167.472 40.0733 168.045 39.82C168.618 39.5533 169.252 39.42 169.945 39.42C170.638 39.42 171.272 39.5533 171.845 39.82C172.418 40.0733 172.912 40.44 173.325 40.92C173.752 41.3866 174.078 41.9533 174.305 42.62C174.545 43.2866 174.665 44.0266 174.665 44.84ZM173.285 44.84C173.285 43.5466 172.985 42.52 172.385 41.76C171.785 40.9866 170.972 40.6 169.945 40.6C168.918 40.6 168.105 40.9866 167.505 41.76C166.905 42.52 166.605 43.5466 166.605 44.84C166.605 46.1333 166.905 47.16 167.505 47.92C168.105 48.68 168.918 49.06 169.945 49.06C170.972 49.06 171.785 48.68 172.385 47.92C172.985 47.16 173.285 46.1333 173.285 44.84Z" fill="#D76147"/>
<path d="M181.286 34.48C181.846 34.48 182.299 34.5266 182.646 34.62C183.006 34.7 183.239 34.7733 183.346 34.84L183.086 35.96C182.939 35.8933 182.719 35.8266 182.426 35.76C182.146 35.68 181.786 35.64 181.346 35.64C180.426 35.64 179.766 35.8733 179.366 36.34C178.979 36.8066 178.786 37.5533 178.786 38.58V39.66H182.946V40.76H178.786V50H177.486V38.54C177.486 37.1933 177.792 36.18 178.406 35.5C179.032 34.82 179.992 34.48 181.286 34.48Z" fill="#D76147"/>
<path d="M189.976 38.98C190.776 38.7 191.489 38.3466 192.116 37.92C192.743 37.48 193.363 36.8866 193.976 36.14H194.896V50H193.596V38.12C193.449 38.28 193.256 38.4466 193.016 38.62C192.789 38.7933 192.529 38.9666 192.236 39.14C191.943 39.3 191.636 39.46 191.316 39.62C190.996 39.7666 190.676 39.8866 190.356 39.98L189.976 38.98Z" fill="#D76147"/>
<path d="M203.905 49.1C204.572 49.1 205.125 49.0266 205.565 48.88C206.018 48.72 206.378 48.5066 206.645 48.24C206.912 47.9733 207.098 47.6666 207.205 47.32C207.325 46.96 207.385 46.5733 207.385 46.16C207.385 45.6266 207.298 45.1466 207.125 44.72C206.952 44.2933 206.645 43.9333 206.205 43.64C205.765 43.3466 205.172 43.1266 204.425 42.98C203.678 42.82 202.732 42.74 201.585 42.74C201.665 42.06 201.732 41.44 201.785 40.88C201.838 40.3066 201.885 39.76 201.925 39.24C201.965 38.7066 201.992 38.1933 202.005 37.7C202.032 37.1933 202.052 36.6733 202.065 36.14H208.305V37.28H203.205C203.192 37.5333 203.172 37.86 203.145 38.26C203.118 38.66 203.092 39.0733 203.065 39.5C203.038 39.9133 203.005 40.3133 202.965 40.7C202.925 41.0866 202.892 41.3933 202.865 41.62C203.892 41.6466 204.778 41.7733 205.525 42C206.272 42.2266 206.885 42.5333 207.365 42.92C207.845 43.3066 208.198 43.7733 208.425 44.32C208.665 44.8666 208.785 45.4733 208.785 46.14C208.785 46.7266 208.685 47.2733 208.485 47.78C208.298 48.2866 208.005 48.7266 207.605 49.1C207.205 49.4733 206.698 49.7666 206.085 49.98C205.472 50.1933 204.745 50.3 203.905 50.3C203.478 50.3 203.078 50.2666 202.705 50.2C202.345 50.1466 202.018 50.08 201.725 50C201.445 49.92 201.205 49.84 201.005 49.76C200.805 49.68 200.658 49.6133 200.565 49.56L200.905 48.4C200.985 48.4533 201.118 48.52 201.305 48.6C201.505 48.68 201.732 48.76 201.985 48.84C202.252 48.9066 202.545 48.9666 202.865 49.02C203.198 49.0733 203.545 49.1 203.905 49.1Z" fill="#D76147"/>
<path d="M219.534 39.58C219.534 40.1 219.441 40.5933 219.254 41.06C219.067 41.5133 218.814 41.9533 218.494 42.38C218.187 42.8066 217.834 43.22 217.434 43.62C217.034 44.02 216.627 44.42 216.214 44.82C215.867 45.1533 215.527 45.4933 215.194 45.84C214.874 46.1733 214.581 46.5133 214.314 46.86C214.061 47.1933 213.854 47.5266 213.694 47.86C213.547 48.18 213.474 48.5 213.474 48.82V48.86H220.014V50H212.034C212.034 49.9733 212.027 49.9266 212.014 49.86C212.014 49.78 212.014 49.6666 212.014 49.52C212.014 48.8933 212.127 48.3133 212.354 47.78C212.581 47.2333 212.867 46.72 213.214 46.24C213.574 45.76 213.967 45.3133 214.394 44.9C214.834 44.4866 215.254 44.0866 215.654 43.7C215.987 43.38 216.301 43.0733 216.594 42.78C216.901 42.4733 217.167 42.16 217.394 41.84C217.621 41.52 217.801 41.18 217.934 40.82C218.067 40.46 218.134 40.0666 218.134 39.64C218.134 38.7066 217.881 38.04 217.374 37.64C216.881 37.2266 216.254 37.02 215.494 37.02C215.067 37.02 214.687 37.0733 214.354 37.18C214.021 37.2866 213.727 37.4133 213.474 37.56C213.234 37.6933 213.027 37.8333 212.854 37.98C212.681 38.1266 212.554 38.24 212.474 38.32L211.794 37.42C211.874 37.3266 212.014 37.1933 212.214 37.02C212.427 36.8333 212.687 36.6533 212.994 36.48C213.314 36.3066 213.681 36.16 214.094 36.04C214.507 35.9066 214.967 35.84 215.474 35.84C216.821 35.84 217.834 36.1733 218.514 36.84C219.194 37.4933 219.534 38.4066 219.534 39.58Z" fill="#D76147"/>
<path d="M226.483 49.1C227.15 49.1 227.703 49.0266 228.143 48.88C228.597 48.72 228.957 48.5066 229.223 48.24C229.49 47.9733 229.677 47.6666 229.783 47.32C229.903 46.96 229.963 46.5733 229.963 46.16C229.963 45.6266 229.877 45.1466 229.703 44.72C229.53 44.2933 229.223 43.9333 228.783 43.64C228.343 43.3466 227.75 43.1266 227.003 42.98C226.257 42.82 225.31 42.74 224.163 42.74C224.243 42.06 224.31 41.44 224.363 40.88C224.417 40.3066 224.463 39.76 224.503 39.24C224.543 38.7066 224.57 38.1933 224.583 37.7C224.61 37.1933 224.63 36.6733 224.643 36.14H230.883V37.28H225.783C225.77 37.5333 225.75 37.86 225.723 38.26C225.697 38.66 225.67 39.0733 225.643 39.5C225.617 39.9133 225.583 40.3133 225.543 40.7C225.503 41.0866 225.47 41.3933 225.443 41.62C226.47 41.6466 227.357 41.7733 228.103 42C228.85 42.2266 229.463 42.5333 229.943 42.92C230.423 43.3066 230.777 43.7733 231.003 44.32C231.243 44.8666 231.363 45.4733 231.363 46.14C231.363 46.7266 231.263 47.2733 231.063 47.78C230.877 48.2866 230.583 48.7266 230.183 49.1C229.783 49.4733 229.277 49.7666 228.663 49.98C228.05 50.1933 227.323 50.3 226.483 50.3C226.057 50.3 225.657 50.2666 225.283 50.2C224.923 50.1466 224.597 50.08 224.303 50C224.023 49.92 223.783 49.84 223.583 49.76C223.383 49.68 223.237 49.6133 223.143 49.56L223.483 48.4C223.563 48.4533 223.697 48.52 223.883 48.6C224.083 48.68 224.31 48.76 224.563 48.84C224.83 48.9066 225.123 48.9666 225.443 49.02C225.777 49.0733 226.123 49.1 226.483 49.1Z" fill="#D76147"/>
<path d="M242.323 49.12C243.403 49.12 244.243 48.9266 244.843 48.54C245.443 48.14 245.743 47.5 245.743 46.62C245.743 46.1133 245.643 45.6933 245.443 45.36C245.256 45.0133 245.003 44.7266 244.683 44.5C244.363 44.26 243.996 44.06 243.583 43.9C243.17 43.7266 242.736 43.5466 242.283 43.36C241.71 43.1333 241.196 42.9 240.743 42.66C240.29 42.42 239.903 42.1533 239.583 41.86C239.263 41.5533 239.016 41.2066 238.843 40.82C238.683 40.4333 238.603 39.98 238.603 39.46C238.603 38.2733 238.996 37.3733 239.783 36.76C240.57 36.1466 241.663 35.84 243.063 35.84C243.436 35.84 243.803 35.8666 244.163 35.92C244.523 35.9733 244.856 36.0466 245.163 36.14C245.483 36.22 245.77 36.3133 246.023 36.42C246.29 36.5266 246.51 36.64 246.683 36.76L246.203 37.9C245.816 37.6333 245.343 37.42 244.783 37.26C244.236 37.1 243.643 37.02 243.003 37.02C242.563 37.02 242.156 37.0666 241.783 37.16C241.423 37.24 241.11 37.38 240.843 37.58C240.576 37.7666 240.363 38.0066 240.203 38.3C240.056 38.5933 239.983 38.9466 239.983 39.36C239.983 39.7866 240.063 40.1466 240.223 40.44C240.383 40.7333 240.603 40.9866 240.883 41.2C241.176 41.4133 241.516 41.6066 241.903 41.78C242.29 41.9533 242.71 42.1333 243.163 42.32C243.71 42.5466 244.223 42.7733 244.703 43C245.196 43.2266 245.623 43.4933 245.983 43.8C246.343 44.1066 246.63 44.48 246.843 44.92C247.056 45.36 247.163 45.9 247.163 46.54C247.163 47.7933 246.723 48.7333 245.843 49.36C244.976 49.9866 243.796 50.3 242.303 50.3C241.77 50.3 241.283 50.2666 240.843 50.2C240.403 50.1333 240.01 50.0533 239.663 49.96C239.316 49.8533 239.023 49.7466 238.783 49.64C238.543 49.5333 238.356 49.44 238.223 49.36L238.663 48.18C238.796 48.26 238.976 48.3533 239.203 48.46C239.43 48.5666 239.696 48.6733 240.003 48.78C240.31 48.8733 240.656 48.9533 241.043 49.02C241.43 49.0866 241.856 49.12 242.323 49.12Z" fill="#D76147"/>
<path d="M256.515 40.92C256.315 40.8533 256.015 40.7933 255.615 40.74C255.228 40.6733 254.715 40.64 254.075 40.64C252.955 40.64 252.055 41.0066 251.375 41.74C250.695 42.46 250.355 43.5 250.355 44.86C250.355 45.4333 250.415 45.98 250.535 46.5C250.655 47.0066 250.848 47.4533 251.115 47.84C251.382 48.2133 251.728 48.5133 252.155 48.74C252.595 48.9533 253.135 49.06 253.775 49.06C254.082 49.06 254.375 49.0333 254.655 48.98C254.935 48.9133 255.195 48.8333 255.435 48.74C255.675 48.6466 255.882 48.5466 256.055 48.44C256.242 48.3333 256.395 48.2333 256.515 48.14V40.92ZM256.515 49.4C256.288 49.5733 255.922 49.76 255.415 49.96C254.922 50.1466 254.335 50.24 253.655 50.24C252.908 50.24 252.242 50.1066 251.655 49.84C251.082 49.5733 250.595 49.2066 250.195 48.74C249.795 48.26 249.488 47.6933 249.275 47.04C249.075 46.3733 248.975 45.6466 248.975 44.86C248.975 44.02 249.095 43.2666 249.335 42.6C249.588 41.9333 249.935 41.3666 250.375 40.9C250.828 40.4333 251.362 40.08 251.975 39.84C252.602 39.5866 253.295 39.46 254.055 39.46C254.975 39.46 255.735 39.52 256.335 39.64C256.935 39.76 257.428 39.8866 257.815 40.02V53.7H256.515V49.4Z" fill="#D76147"/>
<path d="M265.886 50V36.14H273.786V37.32H267.246V42.2H273.046V43.38H267.246V50H265.886Z" fill="#D76147"/>
<path d="M277.417 39.66H281.537V40.76H277.417V46.26C277.417 46.8466 277.463 47.3266 277.557 47.7C277.663 48.06 277.81 48.34 277.997 48.54C278.183 48.74 278.41 48.8733 278.677 48.94C278.943 49.0066 279.237 49.04 279.557 49.04C280.103 49.04 280.543 48.98 280.877 48.86C281.21 48.7266 281.47 48.6066 281.657 48.5L281.977 49.58C281.79 49.7 281.463 49.84 280.997 50C280.53 50.1466 280.023 50.22 279.477 50.22C278.837 50.22 278.297 50.14 277.857 49.98C277.43 49.8066 277.083 49.5533 276.817 49.22C276.563 48.8733 276.383 48.4466 276.277 47.94C276.17 47.4333 276.117 46.8333 276.117 46.14V36.62L277.417 36.38V39.66Z" fill="#D76147"/>
<path d="M288.562 36.14H289.922V50H288.562V36.14Z" fill="#D76147"/>
<path d="M295.563 49.08C296.309 49.08 296.923 48.96 297.403 48.72C297.896 48.4666 298.143 48.0466 298.143 47.46C298.143 47.18 298.096 46.94 298.003 46.74C297.923 46.54 297.783 46.36 297.583 46.2C297.383 46.04 297.116 45.8866 296.783 45.74C296.463 45.5933 296.063 45.42 295.583 45.22C295.196 45.06 294.829 44.9 294.483 44.74C294.136 44.5666 293.829 44.3733 293.563 44.16C293.296 43.9333 293.083 43.6666 292.923 43.36C292.763 43.0533 292.683 42.68 292.683 42.24C292.683 41.4 292.996 40.72 293.623 40.2C294.263 39.68 295.136 39.42 296.243 39.42C296.949 39.42 297.529 39.48 297.983 39.6C298.449 39.72 298.776 39.8266 298.963 39.92L298.663 41.08C298.503 41 298.229 40.8933 297.843 40.76C297.469 40.6266 296.916 40.56 296.183 40.56C295.889 40.56 295.609 40.5933 295.343 40.66C295.089 40.7133 294.863 40.8066 294.663 40.94C294.463 41.06 294.303 41.22 294.183 41.42C294.063 41.6066 294.003 41.84 294.003 42.12C294.003 42.4 294.056 42.64 294.163 42.84C294.269 43.04 294.423 43.22 294.623 43.38C294.836 43.5266 295.089 43.6666 295.383 43.8C295.689 43.9333 296.036 44.08 296.423 44.24C296.823 44.4 297.203 44.5666 297.563 44.74C297.936 44.9 298.263 45.1 298.543 45.34C298.823 45.5666 299.049 45.8466 299.223 46.18C299.396 46.5 299.483 46.9066 299.483 47.4C299.483 48.3333 299.129 49.04 298.423 49.52C297.729 50 296.776 50.24 295.563 50.24C294.656 50.24 293.963 50.16 293.483 50C293.003 49.8533 292.683 49.74 292.523 49.66L292.863 48.48C292.903 48.5066 292.989 48.5533 293.123 48.62C293.256 48.6733 293.436 48.74 293.663 48.82C293.889 48.8866 294.156 48.9466 294.463 49C294.783 49.0533 295.149 49.08 295.563 49.08Z" fill="#D76147"/>
<path d="M310.348 34.48C310.908 34.48 311.361 34.5266 311.708 34.62C312.068 34.7 312.302 34.7733 312.408 34.84L312.148 35.96C312.001 35.8933 311.781 35.8266 311.488 35.76C311.208 35.68 310.848 35.64 310.408 35.64C309.488 35.64 308.828 35.8733 308.428 36.34C308.042 36.8066 307.848 37.5533 307.848 38.58V39.66H312.008V40.76H307.848V50H306.548V38.54C306.548 37.1933 306.855 36.18 307.468 35.5C308.095 34.82 309.055 34.48 310.348 34.48Z" fill="#D76147"/>
<path d="M322.888 44.84C322.888 45.6533 322.768 46.3933 322.528 47.06C322.301 47.7266 321.974 48.2933 321.548 48.76C321.134 49.2266 320.641 49.5933 320.068 49.86C319.494 50.1133 318.861 50.24 318.168 50.24C317.474 50.24 316.841 50.1133 316.268 49.86C315.694 49.5933 315.194 49.2266 314.768 48.76C314.354 48.2933 314.028 47.7266 313.788 47.06C313.561 46.3933 313.448 45.6533 313.448 44.84C313.448 44.0266 313.561 43.2866 313.788 42.62C314.028 41.9533 314.354 41.3866 314.768 40.92C315.194 40.44 315.694 40.0733 316.268 39.82C316.841 39.5533 317.474 39.42 318.168 39.42C318.861 39.42 319.494 39.5533 320.068 39.82C320.641 40.0733 321.134 40.44 321.548 40.92C321.974 41.3866 322.301 41.9533 322.528 42.62C322.768 43.2866 322.888 44.0266 322.888 44.84ZM321.508 44.84C321.508 43.5466 321.208 42.52 320.608 41.76C320.008 40.9866 319.194 40.6 318.168 40.6C317.141 40.6 316.328 40.9866 315.728 41.76C315.128 42.52 314.828 43.5466 314.828 44.84C314.828 46.1333 315.128 47.16 315.728 47.92C316.328 48.68 317.141 49.06 318.168 49.06C319.194 49.06 320.008 48.68 320.608 47.92C321.208 47.16 321.508 46.1333 321.508 44.84Z" fill="#D76147"/>
<path d="M329.228 39.46C329.655 39.46 330.055 39.4933 330.428 39.56C330.815 39.6266 331.082 39.6933 331.228 39.76L330.968 40.88C330.862 40.8266 330.642 40.7733 330.308 40.72C329.988 40.6533 329.562 40.62 329.028 40.62C328.468 40.62 328.015 40.66 327.668 40.74C327.335 40.82 327.115 40.8866 327.008 40.94V50H325.708V40.14C326.042 39.9933 326.502 39.8466 327.088 39.7C327.675 39.54 328.388 39.46 329.228 39.46Z" fill="#D76147"/>
<path d="M340.8 49.12C341.88 49.12 342.72 48.9266 343.32 48.54C343.92 48.14 344.22 47.5 344.22 46.62C344.22 46.1133 344.12 45.6933 343.92 45.36C343.733 45.0133 343.48 44.7266 343.16 44.5C342.84 44.26 342.473 44.06 342.06 43.9C341.646 43.7266 341.213 43.5466 340.76 43.36C340.186 43.1333 339.673 42.9 339.22 42.66C338.766 42.42 338.38 42.1533 338.06 41.86C337.74 41.5533 337.493 41.2066 337.32 40.82C337.16 40.4333 337.08 39.98 337.08 39.46C337.08 38.2733 337.473 37.3733 338.26 36.76C339.046 36.1466 340.14 35.84 341.54 35.84C341.913 35.84 342.28 35.8666 342.64 35.92C343 35.9733 343.333 36.0466 343.64 36.14C343.96 36.22 344.246 36.3133 344.5 36.42C344.766 36.5266 344.986 36.64 345.16 36.76L344.68 37.9C344.293 37.6333 343.82 37.42 343.26 37.26C342.713 37.1 342.12 37.02 341.48 37.02C341.04 37.02 340.633 37.0666 340.26 37.16C339.9 37.24 339.586 37.38 339.32 37.58C339.053 37.7666 338.84 38.0066 338.68 38.3C338.533 38.5933 338.46 38.9466 338.46 39.36C338.46 39.7866 338.54 40.1466 338.7 40.44C338.86 40.7333 339.08 40.9866 339.36 41.2C339.653 41.4133 339.993 41.6066 340.38 41.78C340.766 41.9533 341.186 42.1333 341.64 42.32C342.186 42.5466 342.7 42.7733 343.18 43C343.673 43.2266 344.1 43.4933 344.46 43.8C344.82 44.1066 345.106 44.48 345.32 44.92C345.533 45.36 345.64 45.9 345.64 46.54C345.64 47.7933 345.2 48.7333 344.32 49.36C343.453 49.9866 342.273 50.3 340.78 50.3C340.246 50.3 339.76 50.2666 339.32 50.2C338.88 50.1333 338.486 50.0533 338.14 49.96C337.793 49.8533 337.5 49.7466 337.26 49.64C337.02 49.5333 336.833 49.44 336.7 49.36L337.14 48.18C337.273 48.26 337.453 48.3533 337.68 48.46C337.906 48.5666 338.173 48.6733 338.48 48.78C338.786 48.8733 339.133 48.9533 339.52 49.02C339.906 49.0866 340.333 49.12 340.8 49.12Z" fill="#D76147"/>
<path d="M351.332 49.06C351.838 49.06 352.278 49.0466 352.652 49.02C353.038 48.98 353.365 48.9333 353.632 48.88V45.24C353.485 45.1733 353.252 45.1066 352.932 45.04C352.612 44.96 352.172 44.92 351.612 44.92C351.292 44.92 350.958 44.9466 350.612 45C350.265 45.04 349.945 45.14 349.652 45.3C349.358 45.4466 349.118 45.6533 348.932 45.92C348.745 46.1866 348.652 46.54 348.652 46.98C348.652 47.3666 348.712 47.6933 348.832 47.96C348.965 48.2266 349.145 48.44 349.372 48.6C349.612 48.76 349.892 48.88 350.212 48.96C350.545 49.0266 350.918 49.06 351.332 49.06ZM351.212 39.42C351.892 39.42 352.465 39.52 352.932 39.72C353.412 39.9066 353.798 40.1733 354.092 40.52C354.385 40.8533 354.598 41.2533 354.732 41.72C354.865 42.1866 354.932 42.6933 354.932 43.24V49.76C354.798 49.8 354.605 49.8466 354.352 49.9C354.098 49.94 353.805 49.9866 353.472 50.04C353.138 50.0933 352.765 50.1333 352.352 50.16C351.952 50.2 351.538 50.22 351.112 50.22C350.565 50.22 350.058 50.16 349.592 50.04C349.138 49.92 348.738 49.7333 348.392 49.48C348.058 49.2133 347.792 48.88 347.592 48.48C347.405 48.0666 347.312 47.5666 347.312 46.98C347.312 46.42 347.418 45.94 347.632 45.54C347.845 45.14 348.145 44.8133 348.532 44.56C348.918 44.2933 349.378 44.1 349.912 43.98C350.445 43.86 351.025 43.8 351.652 43.8C351.838 43.8 352.032 43.8133 352.232 43.84C352.445 43.8533 352.645 43.88 352.832 43.92C353.032 43.9466 353.198 43.98 353.332 44.02C353.478 44.0466 353.578 44.0733 353.632 44.1V43.46C353.632 43.1 353.605 42.7533 353.552 42.42C353.498 42.0733 353.378 41.7666 353.192 41.5C353.018 41.22 352.765 41 352.432 40.84C352.112 40.6666 351.685 40.58 351.152 40.58C350.392 40.58 349.825 40.6333 349.452 40.74C349.078 40.8466 348.805 40.9333 348.632 41L348.452 39.86C348.678 39.7533 349.025 39.6533 349.492 39.56C349.972 39.4666 350.545 39.42 351.212 39.42Z" fill="#D76147"/>
<path d="M360.867 50.18C360.427 50.1666 360.041 50.1066 359.707 50C359.387 49.9066 359.114 49.76 358.887 49.56C358.674 49.3466 358.507 49.08 358.387 48.76C358.281 48.4266 358.227 48.0133 358.227 47.52V34.72L359.527 34.48V47.48C359.527 47.8 359.554 48.06 359.607 48.26C359.674 48.4466 359.767 48.6 359.887 48.72C360.007 48.8266 360.161 48.9066 360.347 48.96C360.547 49.0133 360.781 49.06 361.047 49.1L360.867 50.18Z" fill="#D76147"/>
<path d="M362.725 44.82C362.725 43.9133 362.852 43.1266 363.105 42.46C363.372 41.78 363.712 41.2133 364.125 40.76C364.552 40.3066 365.032 39.9733 365.565 39.76C366.112 39.5333 366.672 39.42 367.245 39.42C368.512 39.42 369.518 39.8333 370.265 40.66C371.025 41.4866 371.405 42.76 371.405 44.48C371.405 44.5866 371.398 44.6933 371.385 44.8C371.385 44.9066 371.378 45.0066 371.365 45.1H364.105C364.145 46.3666 364.458 47.34 365.045 48.02C365.632 48.7 366.565 49.04 367.845 49.04C368.552 49.04 369.112 48.9733 369.525 48.84C369.938 48.7066 370.238 48.5933 370.425 48.5L370.665 49.62C370.478 49.7266 370.125 49.8533 369.605 50C369.098 50.1466 368.498 50.22 367.805 50.22C366.898 50.22 366.125 50.0866 365.485 49.82C364.845 49.5533 364.318 49.18 363.905 48.7C363.492 48.22 363.192 47.6533 363.005 47C362.818 46.3333 362.725 45.6066 362.725 44.82ZM370.065 44C370.038 42.92 369.785 42.08 369.305 41.48C368.825 40.88 368.145 40.58 367.265 40.58C366.798 40.58 366.378 40.6733 366.005 40.86C365.645 41.0466 365.325 41.3 365.045 41.62C364.778 41.9266 364.565 42.2866 364.405 42.7C364.258 43.1133 364.172 43.5466 364.145 44H370.065Z" fill="#D76147"/>
<path d="M148.5 83.3901H162.5M156.324 77.3901V91.3901M48.7 90.1C49.9667 90.1 50.8733 89.84 51.42 89.32C51.9667 88.7867 52.24 88.0733 52.24 87.18C52.24 86.5933 52.1267 86.1067 51.9 85.72C51.6867 85.3333 51.3867 85.0267 51 84.8C50.6267 84.56 50.1867 84.3933 49.68 84.3C49.1867 84.1933 48.66 84.14 48.1 84.14H47.9V83.06H48.36C48.72 83.06 49.0867 83.0267 49.46 82.96C49.8467 82.88 50.1933 82.74 50.5 82.54C50.82 82.34 51.08 82.0733 51.28 81.74C51.4933 81.4067 51.6 80.98 51.6 80.46C51.6 80.02 51.5267 79.6467 51.38 79.34C51.2333 79.02 51.0333 78.7667 50.78 78.58C50.54 78.3933 50.2533 78.26 49.92 78.18C49.6 78.0867 49.26 78.04 48.9 78.04C48.18 78.04 47.62 78.14 47.22 78.34C46.82 78.54 46.4933 78.7267 46.24 78.9L45.68 77.88C45.8133 77.7867 45.98 77.68 46.18 77.56C46.3933 77.44 46.64 77.3267 46.92 77.22C47.2 77.1133 47.5067 77.0267 47.84 76.96C48.1867 76.88 48.56 76.84 48.96 76.84C49.6533 76.84 50.2467 76.9267 50.74 77.1C51.2467 77.2733 51.6667 77.52 52 77.84C52.3333 78.1467 52.58 78.52 52.74 78.96C52.9 79.3867 52.98 79.8533 52.98 80.36C52.98 81.1733 52.76 81.84 52.32 82.36C51.8933 82.8667 51.34 83.2333 50.66 83.46C51.0333 83.5533 51.3933 83.7 51.74 83.9C52.1 84.0867 52.42 84.3333 52.7 84.64C52.98 84.9333 53.2067 85.2933 53.38 85.72C53.5533 86.1467 53.64 86.6467 53.64 87.22C53.64 87.8067 53.5333 88.3467 53.32 88.84C53.12 89.3333 52.8133 89.7667 52.4 90.14C52 90.5 51.4867 90.7867 50.86 91C50.2333 91.2 49.5 91.3 48.66 91.3C48.22 91.3 47.8133 91.2667 47.44 91.2C47.08 91.1467 46.76 91.08 46.48 91C46.2 90.92 45.96 90.84 45.76 90.76C45.5733 90.68 45.4333 90.6133 45.34 90.56L45.68 89.4C45.76 89.4533 45.8933 89.52 46.08 89.6C46.2667 89.68 46.4867 89.76 46.74 89.84C47.0067 89.9067 47.3 89.9667 47.62 90.02C47.9533 90.0733 48.3133 90.1 48.7 90.1ZM115.7 90.1C116.967 90.1 117.873 89.84 118.42 89.32C118.967 88.7867 119.24 88.0733 119.24 87.18C119.24 86.5933 119.127 86.1067 118.9 85.72C118.687 85.3333 118.387 85.0267 118 84.8C117.627 84.56 117.187 84.3933 116.68 84.3C116.187 84.1933 115.66 84.14 115.1 84.14H114.9V83.06H115.36C115.72 83.06 116.087 83.0267 116.46 82.96C116.847 82.88 117.193 82.74 117.5 82.54C117.82 82.34 118.08 82.0733 118.28 81.74C118.493 81.4067 118.6 80.98 118.6 80.46C118.6 80.02 118.527 79.6467 118.38 79.34C118.233 79.02 118.033 78.7667 117.78 78.58C117.54 78.3933 117.253 78.26 116.92 78.18C116.6 78.0867 116.26 78.04 115.9 78.04C115.18 78.04 114.62 78.14 114.22 78.34C113.82 78.54 113.493 78.7267 113.24 78.9L112.68 77.88C112.813 77.7867 112.98 77.68 113.18 77.56C113.393 77.44 113.64 77.3267 113.92 77.22C114.2 77.1133 114.507 77.0267 114.84 76.96C115.187 76.88 115.56 76.84 115.96 76.84C116.653 76.84 117.247 76.9267 117.74 77.1C118.247 77.2733 118.667 77.52 119 77.84C119.333 78.1467 119.58 78.52 119.74 78.96C119.9 79.3867 119.98 79.8533 119.98 80.36C119.98 81.1733 119.76 81.84 119.32 82.36C118.893 82.8667 118.34 83.2333 117.66 83.46C118.033 83.5533 118.393 83.7 118.74 83.9C119.1 84.0867 119.42 84.3333 119.7 84.64C119.98 84.9333 120.207 85.2933 120.38 85.72C120.553 86.1467 120.64 86.6467 120.64 87.22C120.64 87.8067 120.533 88.3467 120.32 88.84C120.12 89.3333 119.813 89.7667 119.4 90.14C119 90.5 118.487 90.7867 117.86 91C117.233 91.2 116.5 91.3 115.66 91.3C115.22 91.3 114.813 91.2667 114.44 91.2C114.08 91.1467 113.76 91.08 113.48 91C113.2 90.92 112.96 90.84 112.76 90.76C112.573 90.68 112.433 90.6133 112.34 90.56L112.68 89.4C112.76 89.4533 112.893 89.52 113.08 89.6C113.267 89.68 113.487 89.76 113.74 89.84C114.007 89.9067 114.3 89.9667 114.62 90.02C114.953 90.0733 115.313 90.1 115.7 90.1ZM178.14 79.98C178.94 79.7 179.653 79.3467 180.28 78.92C180.907 78.48 181.527 77.8867 182.14 77.14H183.06V91H181.76V79.12C181.613 79.28 181.42 79.4467 181.18 79.62C180.953 79.7933 180.693 79.9667 180.4 80.14C180.107 80.3 179.8 80.46 179.48 80.62C179.16 80.7667 178.84 80.8867 178.52 80.98L178.14 79.98ZM190.529 89.1C190.542 89.22 190.549 89.3267 190.549 89.42C190.549 89.5133 190.549 89.5933 190.549 89.66C190.549 90.4867 190.429 91.28 190.189 92.04C189.962 92.8 189.642 93.5133 189.229 94.18L188.269 93.74C188.576 93.1533 188.789 92.5333 188.909 91.88C189.042 91.24 189.109 90.5733 189.109 89.88C189.109 89.72 189.102 89.5867 189.089 89.48C189.089 89.3733 189.082 89.2467 189.069 89.1H190.529ZM201.331 80.58C201.331 81.1 201.238 81.5933 201.051 82.06C200.864 82.5133 200.611 82.9533 200.291 83.38C199.984 83.8067 199.631 84.22 199.231 84.62C198.831 85.02 198.424 85.42 198.011 85.82C197.664 86.1533 197.324 86.4933 196.991 86.84C196.671 87.1733 196.378 87.5133 196.111 87.86C195.858 88.1933 195.651 88.5267 195.491 88.86C195.344 89.18 195.271 89.5 195.271 89.82V89.86H201.811V91H193.831C193.831 90.9733 193.824 90.9267 193.811 90.86C193.811 90.78 193.811 90.6667 193.811 90.52C193.811 89.8933 193.924 89.3133 194.151 88.78C194.378 88.2333 194.664 87.72 195.011 87.24C195.371 86.76 195.764 86.3133 196.191 85.9C196.631 85.4867 197.051 85.0867 197.451 84.7C197.784 84.38 198.098 84.0733 198.391 83.78C198.698 83.4733 198.964 83.16 199.191 82.84C199.418 82.52 199.598 82.18 199.731 81.82C199.864 81.46 199.931 81.0667 199.931 80.64C199.931 79.7067 199.678 79.04 199.171 78.64C198.678 78.2267 198.051 78.02 197.291 78.02C196.864 78.02 196.484 78.0733 196.151 78.18C195.818 78.2867 195.524 78.4133 195.271 78.56C195.031 78.6933 194.824 78.8333 194.651 78.98C194.478 79.1267 194.351 79.24 194.271 79.32L193.591 78.42C193.671 78.3267 193.811 78.1933 194.011 78.02C194.224 77.8333 194.484 77.6533 194.791 77.48C195.111 77.3067 195.478 77.16 195.891 77.04C196.304 76.9067 196.764 76.84 197.271 76.84C198.618 76.84 199.631 77.1733 200.311 77.84C200.991 78.4933 201.331 79.4067 201.331 80.58ZM208.2 90.1C209.467 90.1 210.373 89.84 210.92 89.32C211.467 88.7867 211.74 88.0733 211.74 87.18C211.74 86.5933 211.627 86.1067 211.4 85.72C211.187 85.3333 210.887 85.0267 210.5 84.8C210.127 84.56 209.687 84.3933 209.18 84.3C208.687 84.1933 208.16 84.14 207.6 84.14H207.4V83.06H207.86C208.22 83.06 208.587 83.0267 208.96 82.96C209.347 82.88 209.693 82.74 210 82.54C210.32 82.34 210.58 82.0733 210.78 81.74C210.993 81.4067 211.1 80.98 211.1 80.46C211.1 80.02 211.027 79.6467 210.88 79.34C210.733 79.02 210.533 78.7667 210.28 78.58C210.04 78.3933 209.753 78.26 209.42 78.18C209.1 78.0867 208.76 78.04 208.4 78.04C207.68 78.04 207.12 78.14 206.72 78.34C206.32 78.54 205.993 78.7267 205.74 78.9L205.18 77.88C205.313 77.7867 205.48 77.68 205.68 77.56C205.893 77.44 206.14 77.3267 206.42 77.22C206.7 77.1133 207.007 77.0267 207.34 76.96C207.687 76.88 208.06 76.84 208.46 76.84C209.153 76.84 209.747 76.9267 210.24 77.1C210.747 77.2733 211.167 77.52 211.5 77.84C211.833 78.1467 212.08 78.52 212.24 78.96C212.4 79.3867 212.48 79.8533 212.48 80.36C212.48 81.1733 212.26 81.84 211.82 82.36C211.393 82.8667 210.84 83.2333 210.16 83.46C210.533 83.5533 210.893 83.7 211.24 83.9C211.6 84.0867 211.92 84.3333 212.2 84.64C212.48 84.9333 212.707 85.2933 212.88 85.72C213.053 86.1467 213.14 86.6467 213.14 87.22C213.14 87.8067 213.033 88.3467 212.82 88.84C212.62 89.3333 212.313 89.7667 211.9 90.14C211.5 90.5 210.987 90.7867 210.36 91C209.733 91.2 209 91.3 208.16 91.3C207.72 91.3 207.313 91.2667 206.94 91.2C206.58 91.1467 206.26 91.08 205.98 91C205.7 90.92 205.46 90.84 205.26 90.76C205.073 90.68 204.933 90.6133 204.84 90.56L205.18 89.4C205.26 89.4533 205.393 89.52 205.58 89.6C205.767 89.68 205.987 89.76 206.24 89.84C206.507 89.9067 206.8 89.9667 207.12 90.02C207.453 90.0733 207.813 90.1 208.2 90.1ZM215.969 84.08C215.969 81.7333 216.356 79.94 217.129 78.7C217.902 77.46 219.002 76.84 220.429 76.84C221.842 76.84 222.936 77.46 223.709 78.7C224.496 79.94 224.889 81.7333 224.889 84.08C224.889 86.4133 224.496 88.2 223.709 89.44C222.936 90.68 221.842 91.3 220.429 91.3C219.016 91.3 217.916 90.68 217.129 89.44C216.356 88.2 215.969 86.4133 215.969 84.08ZM223.469 84.08C223.469 83.28 223.416 82.52 223.309 81.8C223.216 81.0667 223.049 80.42 222.809 79.86C222.569 79.3 222.256 78.8533 221.869 78.52C221.482 78.1867 221.002 78.02 220.429 78.02C219.842 78.02 219.356 78.1867 218.969 78.52C218.582 78.8533 218.269 79.3 218.029 79.86C217.802 80.42 217.636 81.0667 217.529 81.8C217.436 82.52 217.389 83.28 217.389 84.08C217.389 84.88 217.436 85.6467 217.529 86.38C217.636 87.1 217.802 87.74 218.029 88.3C218.269 88.8467 218.582 89.2867 218.969 89.62C219.356 89.9533 219.842 90.12 220.429 90.12C221.002 90.12 221.482 89.9533 221.869 89.62C222.256 89.2867 222.569 88.8467 222.809 88.3C223.049 87.74 223.216 87.1 223.309 86.38C223.416 85.6467 223.469 84.88 223.469 84.08ZM235.409 90.12C236.489 90.12 237.329 89.9267 237.929 89.54C238.529 89.14 238.829 88.5 238.829 87.62C238.829 87.1133 238.729 86.6933 238.529 86.36C238.342 86.0133 238.089 85.7267 237.769 85.5C237.449 85.26 237.082 85.06 236.669 84.9C236.256 84.7267 235.822 84.5467 235.369 84.36C234.796 84.1333 234.282 83.9 233.829 83.66C233.376 83.42 232.989 83.1533 232.669 82.86C232.349 82.5533 232.102 82.2067 231.929 81.82C231.769 81.4333 231.689 80.98 231.689 80.46C231.689 79.2733 232.082 78.3733 232.869 77.76C233.656 77.1467 234.749 76.84 236.149 76.84C236.522 76.84 236.889 76.8667 237.249 76.92C237.609 76.9733 237.942 77.0467 238.249 77.14C238.569 77.22 238.856 77.3133 239.109 77.42C239.376 77.5267 239.596 77.64 239.769 77.76L239.289 78.9C238.902 78.6333 238.429 78.42 237.869 78.26C237.322 78.1 236.729 78.02 236.089 78.02C235.649 78.02 235.242 78.0667 234.869 78.16C234.509 78.24 234.196 78.38 233.929 78.58C233.662 78.7667 233.449 79.0067 233.289 79.3C233.142 79.5933 233.069 79.9467 233.069 80.36C233.069 80.7867 233.149 81.1467 233.309 81.44C233.469 81.7333 233.689 81.9867 233.969 82.2C234.262 82.4133 234.602 82.6067 234.989 82.78C235.376 82.9533 235.796 83.1333 236.249 83.32C236.796 83.5467 237.309 83.7733 237.789 84C238.282 84.2267 238.709 84.4933 239.069 84.8C239.429 85.1067 239.716 85.48 239.929 85.92C240.142 86.36 240.249 86.9 240.249 87.54C240.249 88.7933 239.809 89.7333 238.929 90.36C238.062 90.9867 236.882 91.3 235.389 91.3C234.856 91.3 234.369 91.2667 233.929 91.2C233.489 91.1333 233.096 91.0533 232.749 90.96C232.402 90.8533 232.109 90.7467 231.869 90.64C231.629 90.5333 231.442 90.44 231.309 90.36L231.749 89.18C231.882 89.26 232.062 89.3533 232.289 89.46C232.516 89.5667 232.782 89.6733 233.089 89.78C233.396 89.8733 233.742 89.9533 234.129 90.02C234.516 90.0867 234.942 90.12 235.409 90.12ZM249.601 81.92C249.401 81.8533 249.101 81.7933 248.701 81.74C248.314 81.6733 247.801 81.64 247.161 81.64C246.041 81.64 245.141 82.0067 244.461 82.74C243.781 83.46 243.441 84.5 243.441 85.86C243.441 86.4333 243.501 86.98 243.621 87.5C243.741 88.0067 243.934 88.4533 244.201 88.84C244.468 89.2133 244.814 89.5133 245.241 89.74C245.681 89.9533 246.221 90.06 246.861 90.06C247.168 90.06 247.461 90.0333 247.741 89.98C248.021 89.9133 248.281 89.8333 248.521 89.74C248.761 89.6467 248.968 89.5467 249.141 89.44C249.328 89.3333 249.481 89.2333 249.601 89.14V81.92ZM249.601 90.4C249.374 90.5733 249.008 90.76 248.501 90.96C248.008 91.1467 247.421 91.24 246.741 91.24C245.994 91.24 245.328 91.1067 244.741 90.84C244.168 90.5733 243.681 90.2067 243.281 89.74C242.881 89.26 242.574 88.6933 242.361 88.04C242.161 87.3733 242.061 86.6467 242.061 85.86C242.061 85.02 242.181 84.2667 242.421 83.6C242.674 82.9333 243.021 82.3667 243.461 81.9C243.914 81.4333 244.448 81.08 245.061 80.84C245.688 80.5867 246.381 80.46 247.141 80.46C248.061 80.46 248.821 80.52 249.421 80.64C250.021 80.76 250.514 80.8867 250.901 81.02V94.7H249.601V90.4ZM258.141 75.48C258.701 75.48 259.154 75.5267 259.501 75.62C259.861 75.7 260.094 75.7733 260.201 75.84L259.941 76.96C259.794 76.8933 259.574 76.8267 259.281 76.76C259.001 76.68 258.641 76.64 258.201 76.64C257.281 76.64 256.621 76.8733 256.221 77.34C255.834 77.8067 255.641 78.5533 255.641 79.58V80.66H259.801V81.76H255.641V91H254.341V79.54C254.341 78.1933 254.648 77.18 255.261 76.5C255.888 75.82 256.848 75.48 258.141 75.48ZM263.081 80.66H267.201V81.76H263.081V87.26C263.081 87.8467 263.127 88.3267 263.221 88.7C263.327 89.06 263.474 89.34 263.661 89.54C263.847 89.74 264.074 89.8733 264.341 89.94C264.607 90.0067 264.901 90.04 265.221 90.04C265.767 90.04 266.207 89.98 266.541 89.86C266.874 89.7267 267.134 89.6067 267.321 89.5L267.641 90.58C267.454 90.7 267.127 90.84 266.661 91C266.194 91.1467 265.687 91.22 265.141 91.22C264.501 91.22 263.961 91.14 263.521 90.98C263.094 90.8067 262.747 90.5533 262.481 90.22C262.227 89.8733 262.047 89.4467 261.941 88.94C261.834 88.4333 261.781 87.8333 261.781 87.14V77.62L263.081 77.38V80.66ZM9.43125 84.1977C11.5443 84.1977 13.2636 82.4784 13.2636 80.3653C13.2636 78.2523 11.5443 76.533 9.43125 76.533C7.31817 76.533 5.59886 78.2523 5.59886 80.3653C5.59886 82.4784 7.31817 84.1977 9.43125 84.1977ZM26.2938 78.0659H15.5631C15.1396 78.0659 14.7966 78.4089 14.7966 78.8324V85.7307H4.06591V75.7665C4.06591 75.343 3.72291 75 3.29943 75H1.76648C1.343 75 1 75.343 1 75.7665V92.629C1 93.0525 1.343 93.3955 1.76648 93.3955H3.29943C3.72291 93.3955 4.06591 93.0525 4.06591 92.629V90.3295H28.5932V92.629C28.5932 93.0525 28.9362 93.3955 29.3597 93.3955H30.8926C31.3161 93.3955 31.6591 93.0525 31.6591 92.629V83.4313C31.6591 80.4679 29.2571 78.0659 26.2938 78.0659ZM101.495 84.7307H81.9503V77.8324C81.9503 76.9871 82.638 76.2994 83.4833 76.2994C84.027 76.2994 84.5052 76.5842 84.7774 77.0123C83.9874 78.2198 84.0738 79.8662 85.105 80.99C84.9049 81.2158 84.9124 81.5609 85.1285 81.777L85.6705 82.319C85.895 82.5435 86.259 82.5435 86.4835 82.319L91.0359 77.7667C91.2604 77.5422 91.2604 77.1782 91.0359 76.9537L90.4939 76.4117C90.2778 76.1955 89.9327 76.1881 89.7069 76.3882C88.8471 75.5992 87.6808 75.3616 86.6325 75.6521C85.9399 74.6547 84.7868 74 83.4833 74C81.3701 74 79.6509 75.7192 79.6509 77.8324V84.7307H79.2676C78.6327 84.7307 78.1179 85.2454 78.1179 85.8804V86.6469C78.1179 87.2819 78.6327 87.7966 79.2676 87.7966H79.6509V89.3295C79.6509 90.6915 80.2431 91.9149 81.1838 92.757V94.3116C81.1838 94.9466 81.6986 95.4614 82.3335 95.4614H83.1C83.735 95.4614 84.2497 94.9466 84.2497 94.3116V93.9284H96.5134V94.3116C96.5134 94.9466 97.0281 95.4614 97.6631 95.4614H98.4296C99.0645 95.4614 99.5793 94.9466 99.5793 94.3116V92.757C100.52 91.9149 101.112 90.6915 101.112 89.3295V87.7966H101.495C102.13 87.7966 102.645 87.2819 102.645 86.6469V85.8804C102.645 85.2454 102.13 84.7307 101.495 84.7307ZM161.456 76H149.192C148.068 76 147.148 76.9198 147.148 78.0439V90.3076C147.148 91.4317 148.068 92.3515 149.192 92.3515H161.456C162.58 92.3515 163.5 91.4317 163.5 90.3076V78.0439C163.5 76.9198 162.58 76 161.456 76ZM161.456 90.3076H149.192V78.0439H161.456V90.3076Z" stroke="#6F6F6F" stroke-width="2"/>
</svg>
