<svg width="58" height="58" viewBox="0 0 58 58" fill="none" xmlns="http://www.w3.org/2000/svg">
<g filter="url(#filter0_d_1_3407)">
<path d="M4 9C4 6.23858 6.23858 4 9 4H49C51.7614 4 54 6.23858 54 9V49C54 51.7614 51.7614 54 49 54H9C6.23858 54 4 51.7614 4 49V9Z" fill="white" shape-rendering="crispEdges"/>
<path d="M20.1179 30.1953L29.6804 39.7578C30.3413 40.4188 31.4101 40.4188 32.064 39.7578L33.653 38.1688C34.314 37.5078 34.314 36.4391 33.653 35.7852L26.8749 29.007L33.653 22.2289C34.314 21.568 34.314 20.4992 33.653 19.8453L32.071 18.2422C31.4101 17.5813 30.3413 17.5813 29.6874 18.2422L20.1249 27.8047C19.4569 28.4656 19.4569 29.5344 20.1179 30.1953Z" fill="black"/>
</g>
<defs>
<filter id="filter0_d_1_3407" x="0" y="0" width="58" height="58" filterUnits="userSpaceOnUse" color-interpolation-filters="sRGB">
<feFlood flood-opacity="0" result="BackgroundImageFix"/>
<feColorMatrix in="SourceAlpha" type="matrix" values="0 0 0 0 0 0 0 0 0 0 0 0 0 0 0 0 0 0 127 0" result="hardAlpha"/>
<feOffset/>
<feGaussianBlur stdDeviation="2"/>
<feComposite in2="hardAlpha" operator="out"/>
<feColorMatrix type="matrix" values="0 0 0 0 0 0 0 0 0 0 0 0 0 0 0 0 0 0 0.141176 0"/>
<feBlend mode="normal" in2="BackgroundImageFix" result="effect1_dropShadow_1_3407"/>
<feBlend mode="normal" in="SourceGraphic" in2="effect1_dropShadow_1_3407" result="shape"/>
</filter>
</defs>
</svg>
