<svg width="154" height="40" viewBox="0 0 154 40" fill="none" xmlns="http://www.w3.org/2000/svg">
<g clip-path="url(#clip0_26_2126)">
<path d="M7.97647 0H146.699C150.731 0 154 3.13401 154 7V33C154 36.866 150.731 40 146.699 40H7.97647C3.94414 40 0.675293 36.866 0.675293 33V7C0.675293 3.13401 3.94414 0 7.97647 0Z" fill="#FFCEC3"/>
<path d="M15.1753 27.8732C15.1753 28.8368 15.9571 29.6187 16.9208 29.6187H29.7211C30.6848 29.6187 31.4666 28.8368 31.4666 27.8732V17.982H15.1753V27.8732ZM26.812 20.7457C26.812 20.5057 27.0083 20.3093 27.2483 20.3093H28.7029C28.9429 20.3093 29.1393 20.5057 29.1393 20.7457V22.2003C29.1393 22.4403 28.9429 22.6367 28.7029 22.6367H27.2483C27.0083 22.6367 26.812 22.4403 26.812 22.2003V20.7457ZM26.812 25.4004C26.812 25.1604 27.0083 24.964 27.2483 24.964H28.7029C28.9429 24.964 29.1393 25.1604 29.1393 25.4004V26.8549C29.1393 27.095 28.9429 27.2913 28.7029 27.2913H27.2483C27.0083 27.2913 26.812 27.095 26.812 26.8549V25.4004ZM22.1573 20.7457C22.1573 20.5057 22.3537 20.3093 22.5937 20.3093H24.0482C24.2882 20.3093 24.4846 20.5057 24.4846 20.7457V22.2003C24.4846 22.4403 24.2882 22.6367 24.0482 22.6367H22.5937C22.3537 22.6367 22.1573 22.4403 22.1573 22.2003V20.7457ZM22.1573 25.4004C22.1573 25.1604 22.3537 24.964 22.5937 24.964H24.0482C24.2882 24.964 24.4846 25.1604 24.4846 25.4004V26.8549C24.4846 27.095 24.2882 27.2913 24.0482 27.2913H22.5937C22.3537 27.2913 22.1573 27.095 22.1573 26.8549V25.4004ZM17.5026 20.7457C17.5026 20.5057 17.699 20.3093 17.939 20.3093H19.3936C19.6336 20.3093 19.83 20.5057 19.83 20.7457V22.2003C19.83 22.4403 19.6336 22.6367 19.3936 22.6367H17.939C17.699 22.6367 17.5026 22.4403 17.5026 22.2003V20.7457ZM17.5026 25.4004C17.5026 25.1604 17.699 24.964 17.939 24.964H19.3936C19.6336 24.964 19.83 25.1604 19.83 25.4004V26.8549C19.83 27.095 19.6336 27.2913 19.3936 27.2913H17.939C17.699 27.2913 17.5026 27.095 17.5026 26.8549V25.4004ZM29.7211 13.3273H27.9756V11.5818C27.9756 11.2618 27.7138 11 27.3938 11H26.2301C25.9101 11 25.6483 11.2618 25.6483 11.5818V13.3273H20.9936V11.5818C20.9936 11.2618 20.7318 11 20.4118 11H19.2481C18.9281 11 18.6663 11.2618 18.6663 11.5818V13.3273H16.9208C15.9571 13.3273 15.1753 14.1092 15.1753 15.0728V16.8183H31.4666V15.0728C31.4666 14.1092 30.6848 13.3273 29.7211 13.3273Z" fill="black"/>
</g>
<defs>
<clipPath id="clip0_26_2126">
<rect width="153.325" height="40" fill="white" transform="translate(0.675293)"/>
</clipPath>
</defs>
</svg>
