<svg width="289" height="42" viewBox="0 0 289 42" fill="none" xmlns="http://www.w3.org/2000/svg">
<path d="M42.3534 20.851C42.3534 9.4253 33.0961 0.167969 21.6704 0.167969C10.2446 0.167969 0.987305 9.4253 0.987305 20.851C0.987305 31.1742 8.55079 39.731 18.4386 41.2839V26.8299H13.1845V20.851H18.4386V16.2941C18.4386 11.1108 21.5244 8.2477 26.2506 8.2477C28.5141 8.2477 30.881 8.65135 30.881 8.65135V13.7387H28.2722C25.7035 13.7387 24.9021 15.3333 24.9021 16.9688V20.851H30.6383L29.7209 26.8299H24.9021V41.2839C34.7899 39.731 42.3534 31.1742 42.3534 20.851Z" fill="black"/>
<path d="M127.405 11.7846C127.405 8.03164 124.644 5.01258 121.233 5.01258C116.613 4.79574 111.901 4.71234 107.089 4.71234C106.838 4.71234 106.588 4.71234 106.338 4.71234C106.088 4.71234 105.838 4.71234 105.587 4.71234C100.784 4.71234 96.0633 4.79574 91.4429 5.01258C88.0402 5.01258 85.2797 8.04832 85.2797 11.8013C85.0712 14.7703 84.9795 17.7393 84.9878 20.7083C84.9795 23.6774 85.0712 26.6464 85.2714 29.6237C85.2714 33.3767 88.0319 36.4208 91.4346 36.4208C96.2884 36.646 101.267 36.746 106.33 36.7377C111.4 36.7544 116.363 36.6543 121.225 36.4208C124.636 36.4208 127.396 33.3767 127.396 29.6237C127.597 26.6464 127.688 23.6774 127.68 20.7C127.697 17.731 127.605 14.762 127.405 11.7846ZM102.251 28.8898V12.5018L114.344 20.6917L102.251 28.8898Z" fill="black"/>
<path d="M209.298 12.0287C209.326 12.408 209.326 12.7874 209.326 13.1667C209.326 24.7358 200.52 38.0662 184.426 38.0662C179.468 38.0662 174.862 36.6302 170.987 34.1376C171.692 34.2189 172.369 34.246 173.101 34.246C177.192 34.246 180.958 32.8642 183.965 30.507C180.118 30.4257 176.894 27.9059 175.783 24.4379C176.325 24.5191 176.867 24.5733 177.436 24.5733C178.221 24.5733 179.007 24.4649 179.739 24.2753C175.729 23.4624 172.721 19.9402 172.721 15.6864V15.5781C173.886 16.2284 175.241 16.6348 176.677 16.6889C174.32 15.1174 172.775 12.4351 172.775 9.40053C172.775 7.77491 173.209 6.28473 173.968 4.9842C178.276 10.2947 184.751 13.7626 192.012 14.142C191.877 13.4918 191.796 12.8145 191.796 12.1371C191.796 7.31429 195.697 3.38568 200.547 3.38568C203.067 3.38568 205.343 4.44235 206.941 6.14929C208.919 5.76999 210.816 5.03841 212.496 4.03595C211.845 6.06806 210.463 7.77499 208.648 8.85868C210.409 8.66912 212.116 8.18131 213.688 7.50403C212.496 9.23798 211.005 10.7823 209.298 12.0287Z" fill="black"/>
<path d="M278.672 7.3821C280.44 7.3821 282.116 8.08265 283.384 9.34198C284.652 10.6013 285.344 12.286 285.344 14.054V27.3979C285.344 29.166 284.643 30.8423 283.384 32.11C282.125 33.3777 280.44 34.0699 278.672 34.0699H265.328C263.56 34.0699 261.884 33.3693 260.616 32.11C259.348 30.8507 258.656 29.166 258.656 27.3979V14.054C258.656 12.286 259.357 10.6097 260.616 9.34198C261.875 8.07431 263.56 7.3821 265.328 7.3821H278.672ZM278.672 4.71332H265.328C260.191 4.71332 255.987 8.91665 255.987 14.054V27.3979C255.987 32.5354 260.191 36.7387 265.328 36.7387H278.672C283.809 36.7387 288.013 32.5354 288.013 27.3979V14.054C288.013 8.91665 283.809 4.71332 278.672 4.71332Z" fill="black"/>
<path d="M280.673 14.0541C279.564 14.0541 278.672 13.1617 278.672 12.0525C278.672 10.9433 279.564 10.0509 280.673 10.0509C281.774 10.0509 282.675 10.9433 282.675 12.0525C282.675 13.1617 281.774 14.0541 280.673 14.0541Z" fill="black"/>
<path d="M272 15.3884C274.944 15.3884 277.338 17.782 277.338 20.726C277.338 23.67 274.944 26.0636 272 26.0636C269.056 26.0636 266.663 23.67 266.663 20.726C266.663 17.782 269.056 15.3884 272 15.3884ZM272 12.7197C267.58 12.7197 263.994 16.3058 263.994 20.726C263.994 25.1462 267.58 28.7323 272 28.7323C276.421 28.7323 280.007 25.1462 280.007 20.726C280.007 16.3058 276.421 12.7197 272 12.7197Z" fill="black"/>
</svg>
