<svg width="330" height="292" viewBox="0 0 330 292" fill="none" xmlns="http://www.w3.org/2000/svg">
<path d="M60.4148 290.503C63.5021 287.894 65.3773 283.773 64.8856 279.761C64.3937 275.749 61.3478 272.061 57.3967 271.209C53.4456 270.357 48.9417 272.716 47.7416 276.575C47.0812 269.134 46.3201 261.381 42.3639 255.044C38.7816 249.306 32.5772 245.201 25.8528 244.466C19.1286 243.732 12.0487 246.506 7.85509 251.813C3.66137 257.121 2.63456 264.836 5.57169 270.93C7.7354 275.419 11.7217 278.759 15.8984 281.477C29.2233 290.147 45.7529 293.077 61.481 290.762L60.4148 290.503Z" fill="#F2F2F2"/>
<path d="M14.5041 246.66C20.0524 251.179 25.1424 256.233 29.7006 261.75C34.2594 267.261 38.2729 273.201 41.6848 279.486C43.5919 283.012 45.3051 286.64 46.8168 290.353C47.125 291.108 45.8985 291.437 45.5938 290.69C42.9163 284.144 39.6037 277.877 35.7036 271.977C31.8225 266.099 27.3802 260.612 22.4394 255.591C19.6448 252.753 16.6963 250.071 13.6072 247.556C12.9741 247.041 13.8761 246.148 14.5041 246.66Z" fill="white"/>
<path d="M303.129 120.423H260.896C259.57 120.421 258.495 119.346 258.493 118.019V112.952C258.495 111.626 259.57 110.551 260.896 110.549H303.129C304.455 110.551 305.531 111.626 305.532 112.952L305.532 118.019C305.531 119.346 304.455 120.421 303.129 120.423Z" fill="#6C63FF"/>
<path d="M297.43 112.031L279.431 95.8029C278.631 95.0809 277.429 95.0347 276.576 95.6933L237.187 108.699C236.018 109.086 235.383 110.347 235.768 111.517L237.356 116.329C237.541 116.892 237.942 117.358 238.471 117.624C239 117.89 239.613 117.935 240.175 117.748L276.307 105.818L291.047 119.109C291.456 119.48 291.988 119.684 292.539 119.683C292.578 119.683 292.618 119.682 292.657 119.68C293.249 119.651 293.804 119.387 294.199 118.946L297.593 115.183C298.416 114.267 298.343 112.857 297.43 112.031Z" fill="#6C63FF"/>
<path d="M81.8206 244.896C80.6835 244.898 79.762 245.819 79.7607 246.956V289.189C79.762 290.326 80.6835 291.247 81.8206 291.249H86.8879C88.025 291.247 88.9466 290.326 88.9478 289.189V246.956C88.9466 245.819 88.025 244.898 86.8879 244.896H81.8206Z" fill="#6C63FF"/>
<path d="M98.3648 291.592H93.2977C91.9711 291.59 90.8959 290.515 90.8945 289.189V246.956C90.896 245.629 91.9711 244.554 93.2977 244.553H98.3648C99.6915 244.554 100.767 245.629 100.768 246.956V289.189C100.767 290.515 99.6915 291.59 98.3648 291.592Z" fill="#6C63FF"/>
<path d="M105.957 250.23C105.957 250.23 107.872 267.445 88.5445 266.861C69.2174 266.276 76.7369 249.36 76.7369 249.36C76.7369 249.36 80.7759 246.186 90.9854 249.256C101.195 252.326 105.957 250.23 105.957 250.23Z" fill="#CCCCCC"/>
<path d="M99.3032 215.716C97.1234 215.719 95.1991 214.293 94.5693 212.206C93.9394 210.119 94.7532 207.866 96.5713 206.663L129.676 184.753C130.783 184.02 132.274 184.324 133.007 185.431L135.803 189.656C136.534 190.763 136.231 192.253 135.126 192.987L102.021 214.897C101.215 215.431 100.27 215.716 99.3032 215.716Z" fill="#6C63FF"/>
<circle cx="91.634" cy="176.323" r="17.509" fill="#6C63FF"/>
<path d="M92.357 183.587C93.492 183.556 94.9044 183.516 95.9927 182.721C96.6487 182.223 97.0506 181.46 97.0913 180.637C97.1312 180.051 96.8949 179.48 96.4527 179.094C95.8843 178.614 95.0543 178.501 94.1599 178.764L95.0866 171.992L94.4063 171.899L93.3169 179.86L93.885 179.599C94.5436 179.298 95.4476 179.144 96.0094 179.618C96.289 179.87 96.4354 180.238 96.4052 180.613C96.3714 181.225 96.073 181.792 95.5876 182.167C94.7408 182.786 93.6149 182.865 92.3379 182.901L92.357 183.587Z" fill="#2F2E41"/>
<rect x="98.8662" y="172.178" width="3.69805" height="1" fill="#2F2E41"/>
<rect x="86.3594" y="172.178" width="3.69805" height="1" fill="#2F2E41"/>
<path d="M73.9084 253.857C73.9084 253.857 72.3965 202.458 93.561 205.985C114.725 209.513 105.907 259.148 105.907 259.148C105.907 259.148 101.372 268.219 90.2856 258.14C79.1995 248.062 73.9084 253.857 73.9084 253.857Z" fill="#2F2E41"/>
<path d="M81.1478 161.327C84.5545 159.014 88.8544 160.585 92.1647 162.236C95.3796 163.839 99.0024 165.879 102.64 164.335C104.061 163.732 105.215 162.552 105.416 160.974C105.655 159.094 104.518 157.333 103.254 156.055C101.879 154.74 100.278 153.685 98.5278 152.941C96.8119 152.168 95.0042 151.619 93.1489 151.305C85.6919 150.017 78.0722 152.412 72.6938 157.736C67.5071 163.026 64.83 170.281 65.3382 177.673C65.6275 181.568 66.8715 185.539 69.3671 188.597C71.7087 191.466 75.215 193.483 78.9569 193.651C79.874 193.694 80.7926 193.619 81.6906 193.429C82.3372 193.291 82.6133 194.284 81.9644 194.422C78.0669 195.253 74.0294 194.018 70.9382 191.587C67.6841 189.027 65.6876 185.152 64.8121 181.16C63.1369 173.519 65.2354 165.297 70.0447 159.18C72.4195 156.133 75.4958 153.706 79.0114 152.105C82.6421 150.483 86.6083 149.756 90.5781 149.982C94.5371 150.181 98.3776 151.398 101.729 153.515C104.726 155.452 108.104 159.559 105.66 163.192C104.746 164.55 103.228 165.378 101.652 165.718C99.8445 166.07 97.9741 165.907 96.2542 165.248C92.3383 163.865 88.7165 160.775 84.3333 161.243C83.3779 161.342 82.4621 161.677 81.6676 162.216C81.1178 162.59 80.6019 161.698 81.1478 161.327Z" fill="#2F2E41"/>
<path d="M247.603 74.4603C245.981 73.4186 245.147 71.5026 245.489 69.6059C245.831 67.7091 247.282 66.2051 249.165 65.7952L287.955 57.3509C289.159 57.0901 290.347 57.8532 290.61 59.0567L291.688 64.0079C291.95 65.2122 291.187 66.401 289.982 66.6631L251.192 75.1073C251.024 75.144 250.854 75.1716 250.683 75.1901C249.603 75.3079 248.515 75.0501 247.603 74.4603Z" fill="#6C63FF"/>
<path d="M240.069 71.788C240.046 71.696 240.025 71.6029 240.007 71.5089C239.688 69.8288 240.271 68.0601 241.648 66.5281C243.143 64.9371 245.095 63.8497 247.235 63.4158L264.919 59.5467C265.508 59.4179 266.124 59.5327 266.627 59.8648C267.129 60.197 267.476 60.7184 267.589 61.3103L269.132 69.4379C269.364 70.6263 268.6 71.7813 267.416 72.0341L249.62 75.9274C248.817 76.1045 247.998 76.1946 247.177 76.1962C243.671 76.1963 240.752 74.4886 240.069 71.788Z" fill="#2F2E41"/>
<circle cx="242.395" cy="32.2385" r="17.509" fill="#6C63FF"/>
<path d="M257.827 38.5587C258.962 38.5272 260.374 38.4878 261.463 37.6929C262.119 37.1941 262.521 36.4311 262.561 35.6081C262.601 35.0223 262.365 34.4516 261.923 34.0655C261.354 33.5852 260.524 33.4725 259.63 33.7354L260.557 26.9633L259.876 26.8701L258.787 34.8316L259.355 34.5709C260.013 34.2688 260.917 34.1151 261.479 34.5899C261.759 34.8414 261.905 35.209 261.875 35.5839C261.841 36.1962 261.543 36.7636 261.057 37.1384C260.211 37.757 259.085 37.8368 257.808 37.8725L257.827 38.5587Z" fill="#2F2E41"/>
<rect x="251.79" y="27.5474" width="3.69805" height="1" fill="#2F2E41"/>
<path d="M239.309 14.6778C239.049 10.4899 236.984 6.6213 233.649 4.07427C230.2 1.5201 225.775 0.676196 221.628 1.7816C217.507 2.85254 214.105 5.75537 212.399 9.65678C211.552 11.568 211.129 13.6404 211.16 15.7308C211.253 18.0042 211.818 20.2333 212.818 22.2769C213.851 24.5263 215.153 26.6367 216.283 28.8356C217.397 31.004 218.358 33.2475 219.159 35.5498C220.789 40.241 221.751 45.1382 222.017 50.0974C222.437 57.9149 221.689 69.3279 212.864 72.328C210.619 73.091 208.199 73.233 205.846 73.2268C203.368 73.257 200.896 72.9675 198.492 72.3654C194.326 71.2529 190.37 68.6406 188.595 64.5819C188.186 63.6446 187.912 62.6542 187.78 61.64C187.744 61.3619 188.044 61.1276 188.296 61.125C188.577 61.1317 188.804 61.3584 188.811 61.64C189.385 65.965 192.989 69.2818 196.902 70.7729C199.188 71.6015 201.591 72.0662 204.021 72.15C206.44 72.2722 208.952 72.2533 211.321 71.6966C213.429 71.2403 215.348 70.1498 216.818 68.5715C218.129 67.062 219.107 65.2929 219.688 63.3797C221.081 59.1278 221.227 54.4528 220.983 50.0212C220.705 45.0783 219.723 40.2004 218.065 35.5356C217.228 33.1803 216.217 30.8902 215.043 28.6837C213.895 26.5255 212.621 24.4284 211.654 22.1789C210.71 20.1112 210.192 17.8751 210.128 15.6032C210.121 13.505 210.538 11.427 211.356 9.49459C212.981 5.57051 216.205 2.52749 220.217 1.13114C224.297 -0.289105 228.787 0.0786774 232.581 2.14396C236.187 4.21662 238.814 7.64469 239.879 11.6651C240.135 12.6509 240.289 13.6604 240.34 14.6778C240.373 15.3402 239.343 15.3384 239.309 14.6778Z" fill="#2F2E41"/>
<path d="M236.638 15.0392C236.357 13.129 235.4 11.3829 233.941 10.1186C232.39 8.81845 230.402 8.15847 228.381 8.27305C227.718 8.30619 227.72 7.27615 228.381 7.24311C232.927 7.03812 236.905 10.273 237.632 14.7654C237.731 15.4138 236.738 15.6934 236.638 15.0392Z" fill="#2F2E41"/>
<path d="M234.89 15.099C234.563 14.1087 235.1 13.041 236.091 12.714L240.981 11.0994C241.971 10.7724 243.039 11.3101 243.366 12.3003C243.693 13.2905 243.155 14.3583 242.165 14.6852L237.275 16.2999C236.284 16.6272 235.217 16.0894 234.89 15.099Z" fill="#2F2E41"/>
<path d="M278.896 38.8898C278.251 39.026 277.741 39.5188 277.583 40.1584C277.424 40.7981 277.646 41.472 278.153 41.8931L285.709 48.1718C285.82 48.2653 285.911 48.3793 285.978 48.5075C286.04 48.6371 286.075 48.7781 286.081 48.9218L286.553 60.4367C286.57 61.2122 287.117 61.8749 287.874 62.0401L287.888 62.0432C288.636 62.226 289.413 61.8757 289.771 61.1936L292.497 56.2226C292.683 55.8891 293.038 55.6855 293.42 55.6931C293.699 55.6946 293.964 55.8124 294.153 56.0182L307.233 69.9757C307.616 70.387 308.177 70.5832 308.733 70.5001C309.287 70.4177 309.767 70.071 310.019 69.5707L329.198 31.1979C329.494 30.6083 329.426 29.9013 329.024 29.3788C328.621 28.8564 327.954 28.6108 327.309 28.747L326.688 28.8769L278.896 38.8898ZM278.589 41.3657C278.286 41.1122 278.154 40.7075 278.249 40.3237C278.345 39.9399 278.651 39.6444 279.039 39.563L326.816 29.5537L327.452 29.4202C327.838 29.3406 328.236 29.4883 328.477 29.8007C328.718 30.1132 328.76 30.5357 328.586 30.8894L309.406 69.2623C309.255 69.563 308.966 69.771 308.633 69.8194C308.3 69.8678 307.965 69.7505 307.734 69.5052L294.654 55.5478C294.526 55.4082 294.375 55.2917 294.208 55.2034L327.445 31.0911C327.714 30.8996 327.809 30.5432 327.671 30.2428C327.532 29.9424 327.2 29.7832 326.879 29.8639C326.841 29.873 326.804 29.8857 326.768 29.902L286.412 47.9161C286.334 47.8159 286.245 47.7247 286.146 47.6444L278.589 41.3657Z" fill="#CCCCCC"/>
<path d="M278.896 38.8898C278.251 39.026 277.741 39.5188 277.583 40.1584C277.424 40.7981 277.646 41.472 278.153 41.8931L285.709 48.1718C285.82 48.2653 285.911 48.3793 285.978 48.5075C286.04 48.6371 286.075 48.7781 286.081 48.9218L286.553 60.4367C286.57 61.2122 287.117 61.8749 287.874 62.0401L287.888 62.0432C288.636 62.226 289.413 61.8757 289.771 61.1936L292.497 56.2226C292.683 55.8891 293.038 55.6855 293.42 55.6931C293.699 55.6946 293.964 55.8124 294.153 56.0182L307.233 69.9757C307.616 70.387 308.177 70.5832 308.733 70.5001C309.287 70.4177 309.767 70.071 310.019 69.5707L329.198 31.1979C329.494 30.6083 329.426 29.9013 329.024 29.3788C328.621 28.8564 327.954 28.6108 327.309 28.747L326.688 28.8769L278.896 38.8898ZM278.589 41.3657C278.286 41.1122 278.154 40.7075 278.249 40.3237C278.345 39.9399 278.651 39.6444 279.039 39.563L326.816 29.5537L327.452 29.4202C327.838 29.3406 328.236 29.4883 328.477 29.8007C328.718 30.1132 328.76 30.5357 328.586 30.8894L309.406 69.2623C309.255 69.563 308.966 69.771 308.633 69.8194C308.3 69.8678 307.965 69.7505 307.734 69.5052L294.654 55.5478C294.526 55.4082 294.375 55.2917 294.208 55.2034C293.968 55.0749 293.701 55.0068 293.429 55.005C293.39 55.0034 293.351 55.005 293.312 55.0067L293.309 55.0059C292.716 55.0367 292.182 55.372 291.896 55.8922L289.17 60.8665C288.955 61.2776 288.486 61.4873 288.037 61.3729L288.03 61.3713C287.574 61.2753 287.245 60.8759 287.238 60.4096L286.767 48.8947C286.763 48.773 286.746 48.6521 286.715 48.5343L286.716 48.5309C286.686 48.4178 286.645 48.3082 286.593 48.2038C286.543 48.1017 286.483 48.0053 286.412 47.9161C286.334 47.8159 286.245 47.7248 286.146 47.6444L278.589 41.3657Z" fill="#3F3D56"/>
<path d="M286.411 47.9161L326.767 29.902C326.803 29.8857 326.84 29.8729 326.878 29.8639C327.199 29.7832 327.532 29.9423 327.67 30.2427C327.809 30.5431 327.714 30.8996 327.444 31.0911L294.207 55.2034L293.621 55.6297L293.219 55.0736L293.308 55.0059L293.312 55.0067L327.039 30.5343L286.715 48.5309L286.714 48.5343L286.539 48.6105L286.259 47.9835L286.411 47.9161Z" fill="#3F3D56"/>
<path d="M230.634 109.536C229.592 109.537 228.747 110.382 228.746 111.424V118.29C228.747 119.333 229.592 120.178 230.634 120.179H252.606C253.649 120.178 254.493 119.333 254.495 118.29V111.424C254.493 110.382 253.649 109.537 252.606 109.536H230.634Z" fill="#2F2E41"/>
<path d="M228.169 72.3171C227.12 75.3578 226.925 78.6278 227.604 81.772C229.35 90.3323 228.7 100.452 226.983 111.266C226.983 112.404 227.776 113.326 228.753 113.326H255.597C256.574 113.326 257.367 112.404 257.367 111.266V79.1663C257.367 69.6805 250.919 61.9182 242.854 61.5062C242.63 61.4924 242.402 61.4856 242.175 61.4856C235.883 61.4857 230.473 65.9591 228.169 72.3171Z" fill="#2F2E41"/>
<path d="M236.274 114.508V74.8091C236.274 72.1774 238.408 70.0439 241.04 70.0439C243.671 70.0439 245.805 72.1774 245.805 74.8091V114.508C245.803 115.74 244.805 116.738 243.573 116.74H238.506C237.274 116.738 236.276 115.74 236.274 114.508Z" fill="#6C63FF"/>
<path d="M244.483 85.272L237.28 84.9549C236.049 84.8993 235.096 83.8581 235.149 82.6273L235.654 71.1374C235.796 67.9172 238.522 65.4216 241.742 65.5634C244.962 65.7052 247.458 68.4306 247.316 71.6509L246.81 83.1408C246.757 84.3329 245.776 85.2727 244.583 85.2741C244.55 85.2741 244.516 85.2734 244.483 85.272Z" fill="#2F2E41"/>
<ellipse cx="257.946" cy="88.6502" rx="1.54492" ry="4.97806" fill="#2F2E41"/>
<circle cx="167.25" cy="145.657" r="8.58287" fill="#CCCCCC"/>
<path d="M256.939 154.63H191.023C189.506 154.63 188.276 153.4 188.276 151.883C188.276 150.366 189.506 149.136 191.023 149.136H256.939C258.456 149.136 259.686 150.366 259.686 151.883C259.686 153.4 258.456 154.63 256.939 154.63Z" fill="#CCCCCC"/>
<path d="M237.974 142.178H189.91C188.393 142.178 187.163 140.949 187.163 139.432C187.163 137.915 188.393 136.685 189.91 136.685H237.974C239.491 136.685 240.72 137.915 240.72 139.432C240.72 140.949 239.491 142.178 237.974 142.178Z" fill="#CCCCCC"/>
<circle cx="167.25" cy="180.546" r="8.58287" fill="#CCCCCC"/>
<path d="M256.939 189.42H191.023C189.506 189.42 188.276 188.191 188.276 186.674C188.276 185.157 189.506 183.927 191.023 183.927H256.939C258.456 183.927 259.686 185.157 259.686 186.674C259.686 188.191 258.456 189.42 256.939 189.42Z" fill="#CCCCCC"/>
<path d="M237.974 176.969H189.91C188.393 176.969 187.163 175.739 187.163 174.222C187.163 172.706 188.393 171.476 189.91 171.476H237.974C239.491 171.476 240.72 172.706 240.72 174.222C240.72 175.739 239.491 176.969 237.974 176.969Z" fill="#CCCCCC"/>
<circle cx="167.25" cy="215.803" r="8.58287" fill="#CCCCCC"/>
<path d="M256.939 224.577H191.023C189.506 224.577 188.276 223.347 188.276 221.831C188.276 220.314 189.506 219.084 191.023 219.084H256.939C258.456 219.084 259.686 220.314 259.686 221.831C259.686 223.347 258.456 224.577 256.939 224.577Z" fill="#CCCCCC"/>
<path d="M237.974 212.126H189.91C188.393 212.126 187.163 210.896 187.163 209.379C187.163 207.862 188.393 206.633 189.91 206.633H237.974C239.491 206.633 240.72 207.862 240.72 209.379C240.72 210.896 239.491 212.126 237.974 212.126Z" fill="#CCCCCC"/>
<path d="M285.771 238.918H149.132C145.91 238.914 143.3 236.303 143.296 233.082V131.117C143.3 127.895 145.91 125.284 149.132 125.281H285.771C288.993 125.284 291.604 127.895 291.608 131.117V233.082C291.604 236.303 288.993 238.914 285.771 238.918ZM149.132 125.967C146.289 125.971 143.986 128.274 143.983 131.117V233.082C143.986 235.924 146.289 238.228 149.132 238.231H285.771C288.614 238.228 290.918 235.924 290.921 233.082V131.117C290.918 128.274 288.614 125.971 285.771 125.967H149.132Z" fill="#3F3D56"/>
<circle cx="132.43" cy="121.642" r="19.2256" fill="#6C63FF"/>
<path d="M130.698 129.136C130.265 129.137 129.844 128.997 129.498 128.738L129.477 128.721L124.958 125.262C124.078 124.588 123.912 123.328 124.586 122.448C125.26 121.568 126.52 121.401 127.4 122.075L130.327 124.319L137.243 115.3C137.917 114.42 139.177 114.254 140.057 114.929L140.014 114.987L140.058 114.93C140.937 115.605 141.103 116.864 140.429 117.744L132.295 128.353C131.914 128.848 131.323 129.138 130.698 129.136Z" fill="white"/>
<path d="M130.742 244.049C130.404 244.049 130.07 243.978 129.762 243.839L93.5404 227.589C91.0527 226.474 89.9408 223.552 91.0567 221.065C92.1727 218.577 95.094 217.465 97.5815 218.581L133.803 234.83C135.014 235.373 135.555 236.795 135.012 238.006L132.938 242.63C132.549 243.494 131.689 244.049 130.742 244.049Z" fill="#6C63FF"/>
<path d="M131.464 291.595H0.660706C0.47113 291.595 0.317383 291.441 0.317383 291.251C0.317383 291.062 0.47113 290.908 0.660706 290.908H131.464C131.653 290.908 131.807 291.062 131.807 291.251C131.807 291.441 131.653 291.595 131.464 291.595Z" fill="#3F3D56"/>
</svg>
