<svg width="34" height="28" viewBox="0 0 34 28" fill="none" xmlns="http://www.w3.org/2000/svg">
<path d="M29.9925 0.5H3.00445C1.34553 0.5 0.000702262 1.84482 0.000702739 3.50375V7.99813H3.00445V3.50375H29.9925V24.4963H19.5026V27.5H30.0045C31.6634 27.5 33.0082 26.1552 33.0082 24.4963V3.50375C33.0082 1.84483 31.6634 0.500001 30.0045 0.5H29.9925ZM0.000702858 22.9705V27.4648H4.49437C4.49437 24.9821 2.48276 22.9701 0.000702858 22.9705ZM0.000702858 16.9742V19.9766C4.14322 19.9766 7.50038 23.335 7.49883 27.4768V27.5H10.5026C10.5092 21.7071 5.81889 17.0055 0.0260154 16.9981L0.00281227 16.9981L0.000702858 16.9742ZM0.000702858 10.9787V13.9824C7.45383 13.9754 13.5007 20.0117 13.5063 27.4648V27.5H16.5101C16.4777 18.3973 9.10336 11.0279 0.000702977 11.0019L0.000702858 10.9787Z" fill="black"/>
</svg>
