<svg width="36" height="36" viewBox="0 0 36 36" fill="none" xmlns="http://www.w3.org/2000/svg">
<path d="M25.868 23.1863C25.5431 23.5589 25.1803 23.8964 24.75 24.146V25.759C29.4272 26.4157 32.625 27.7313 32.625 29.25C32.625 31.4248 26.0775 33.1875 18 33.1875C9.9225 33.1875 3.375 31.4248 3.375 29.25C3.375 27.7313 6.57281 26.4164 11.25 25.759V24.146C10.8197 23.8964 10.4569 23.5589 10.132 23.1862C4.1393 24.2817 0 26.5816 0 29.25C0 32.978 8.05922 36 18 36C27.9408 36 36 32.978 36 29.25C36 26.5816 31.8607 24.2817 25.868 23.1863ZM18 9C20.4855 9 22.5 6.98555 22.5 4.5C22.5 2.01445 20.4855 0 18 0C15.5145 0 13.5 2.01445 13.5 4.5C13.5 6.98555 15.5145 9 18 9ZM13.5 22.5V29.25C13.5 30.4924 14.5076 31.5 15.75 31.5H20.25C21.4924 31.5 22.5 30.4924 22.5 29.25V22.5C23.7424 22.5 24.75 21.4924 24.75 20.25V13.5C24.75 11.636 23.239 10.125 21.375 10.125H20.5453C19.767 10.4787 18.9098 10.6875 18 10.6875C17.0902 10.6875 16.233 10.4787 15.4547 10.125H14.625C12.761 10.125 11.25 11.636 11.25 13.5V20.25C11.25 21.4924 12.2576 22.5 13.5 22.5Z" fill="black"/>
</svg>
