<svg width="33" height="36" viewBox="0 0 33 36" fill="none" xmlns="http://www.w3.org/2000/svg">
<path d="M31.4062 33.75H30V1.6875C30 0.755508 29.2445 0 28.3125 0H4.6875C3.75551 0 3 0.755508 3 1.6875V33.75H1.59375C1.12779 33.75 0.75 34.1278 0.75 34.5938V36H32.25V34.5938C32.25 34.1278 31.8722 33.75 31.4062 33.75ZM9.75 5.34375C9.75 4.87779 10.1278 4.5 10.5938 4.5H13.4062C13.8722 4.5 14.25 4.87779 14.25 5.34375V8.15625C14.25 8.62221 13.8722 9 13.4062 9H10.5938C10.1278 9 9.75 8.62221 9.75 8.15625V5.34375ZM9.75 12.0938C9.75 11.6278 10.1278 11.25 10.5938 11.25H13.4062C13.8722 11.25 14.25 11.6278 14.25 12.0938V14.9062C14.25 15.3722 13.8722 15.75 13.4062 15.75H10.5938C10.1278 15.75 9.75 15.3722 9.75 14.9062V12.0938ZM13.4062 22.5H10.5938C10.1278 22.5 9.75 22.1222 9.75 21.6562V18.8438C9.75 18.3778 10.1278 18 10.5938 18H13.4062C13.8722 18 14.25 18.3778 14.25 18.8438V21.6562C14.25 22.1222 13.8722 22.5 13.4062 22.5ZM18.75 33.75H14.25V27.8438C14.25 27.3778 14.6278 27 15.0938 27H17.9062C18.3722 27 18.75 27.3778 18.75 27.8438V33.75ZM23.25 21.6562C23.25 22.1222 22.8722 22.5 22.4062 22.5H19.5938C19.1278 22.5 18.75 22.1222 18.75 21.6562V18.8438C18.75 18.3778 19.1278 18 19.5938 18H22.4062C22.8722 18 23.25 18.3778 23.25 18.8438V21.6562ZM23.25 14.9062C23.25 15.3722 22.8722 15.75 22.4062 15.75H19.5938C19.1278 15.75 18.75 15.3722 18.75 14.9062V12.0938C18.75 11.6278 19.1278 11.25 19.5938 11.25H22.4062C22.8722 11.25 23.25 11.6278 23.25 12.0938V14.9062ZM23.25 8.15625C23.25 8.62221 22.8722 9 22.4062 9H19.5938C19.1278 9 18.75 8.62221 18.75 8.15625V5.34375C18.75 4.87779 19.1278 4.5 19.5938 4.5H22.4062C22.8722 4.5 23.25 4.87779 23.25 5.34375V8.15625Z" fill="#D76147"/>
</svg>
