<svg width="25" height="17" viewBox="0 0 25 17" fill="none" xmlns="http://www.w3.org/2000/svg">
<path d="M0 15.5109V1.6765C0 1.66048 0.024018 1.50837 0.0720541 1.22015L8.21416 8.18538L0.0960725 15.9912C0.0320244 15.7671 0 15.6069 0 15.5109ZM1.08081 0.259432C1.1929 0.211396 1.329 0.187378 1.48912 0.187378H23.4176C23.5617 0.187378 23.7058 0.211396 23.8499 0.259432L15.6838 7.24868L14.603 8.11333L12.4654 9.86664L10.3277 8.11333L9.24694 7.24868L1.08081 0.259432ZM1.10483 16.9279L9.29498 9.07405L12.4654 11.644L15.6357 9.07405L23.8259 16.9279C23.6978 16.976 23.5617 17 23.4176 17H1.48912C1.36102 17 1.23293 16.976 1.10483 16.9279ZM16.7165 8.18538L24.8346 1.22015C24.8827 1.36426 24.9067 1.51638 24.9067 1.6765V15.5109C24.9067 15.655 24.8827 15.8151 24.8346 15.9912L16.7165 8.18538Z" fill="white"/>
</svg>
