<svg width="17" height="16" viewBox="0 0 17 16" fill="none" xmlns="http://www.w3.org/2000/svg">
<path d="M15.8893 12.4892C15.2631 11.8822 13.7596 10.9696 13.0185 10.6268C12.1581 10.2263 11.8429 10.2345 11.2338 10.6599C10.7269 11.015 10.3989 11.3454 9.8154 11.2215C9.23187 11.1017 8.08184 10.2552 6.96589 9.17737C5.84993 8.09544 4.98102 6.98048 4.8575 6.41474C4.73398 5.84487 5.07473 5.53102 5.43677 5.03961C5.87549 4.4491 5.88827 4.14351 5.47085 3.30935C5.11732 2.58669 4.18026 1.13311 3.54988 0.52607C2.92375 -0.0809665 2.78319 0.0511775 2.43818 0.170933C2.43818 0.170933 1.92706 0.369149 1.42019 0.695379C0.794065 1.10007 0.444797 1.43869 0.197753 1.94662C-0.045031 2.45455 -0.326149 3.4002 1.105 5.86964C2.25929 7.86419 3.39228 9.37559 5.07473 11.0026C5.07473 11.0026 5.07473 11.0026 5.07899 11.0067C5.07899 11.0067 5.07899 11.0067 5.08325 11.0109C6.7657 12.642 8.32037 13.7405 10.3776 14.8596C12.9247 16.2471 13.9001 15.9745 14.424 15.7391C14.9479 15.5038 15.2972 15.1651 15.7146 14.554C16.0511 14.0626 16.2556 13.567 16.2556 13.567C16.3791 13.2325 16.5196 13.0963 15.8893 12.4892Z" fill="white"/>
</svg>
