<svg width="44" height="33" viewBox="0 0 44 33" fill="none" xmlns="http://www.w3.org/2000/svg">
<path d="M43.4038 7.78461C43.4038 4.03164 40.6432 1.01258 37.2322 1.01258C32.6119 0.795741 27.8998 0.712341 23.0877 0.712341C22.8375 0.712341 22.5873 0.712341 22.3371 0.712341C22.0869 0.712341 21.8367 0.712341 21.5865 0.712341C16.7827 0.712341 12.0623 0.795741 7.44196 1.01258C4.03927 1.01258 1.27875 4.04832 1.27875 7.80129C1.07025 10.7703 0.978509 13.7393 0.986849 16.7083C0.978509 19.6774 1.07025 22.6464 1.27041 25.6237C1.27041 29.3767 4.03093 32.4208 7.43362 32.4208C12.2875 32.646 17.2664 32.746 22.3288 32.7377C27.3994 32.7544 32.3617 32.6543 37.2239 32.4208C40.6349 32.4208 43.3954 29.3767 43.3954 25.6237C43.5956 22.6464 43.6873 19.6774 43.679 16.7C43.6957 13.731 43.6039 10.762 43.4038 7.78461ZM18.2505 24.8898V8.50184L30.3434 16.6917L18.2505 24.8898Z" fill="black"/>
</svg>
