<svg width="17" height="16" viewBox="0 0 17 16" fill="none" xmlns="http://www.w3.org/2000/svg">
<path d="M16.3793 12.4892C15.7531 11.8822 14.2496 10.9696 13.5084 10.6268C12.648 10.2263 12.3329 10.2345 11.7238 10.6599C11.2169 11.015 10.8889 11.3454 10.3054 11.2215C9.72186 11.1017 8.57183 10.2552 7.45588 9.17737C6.33992 8.09544 5.47101 6.98048 5.34749 6.41474C5.22397 5.84487 5.56472 5.53102 5.92676 5.03961C6.36548 4.4491 6.37826 4.14351 5.96084 3.30935C5.60731 2.58669 4.67025 1.13311 4.03987 0.52607C3.41374 -0.0809665 3.27318 0.0511775 2.92817 0.170933C2.92817 0.170933 2.41705 0.369149 1.91018 0.695379C1.28405 1.10007 0.934787 1.43869 0.687744 1.94662C0.444959 2.45455 0.163841 3.4002 1.59499 5.86964C2.74928 7.86419 3.88227 9.37559 5.56472 11.0026C5.56472 11.0026 5.56472 11.0026 5.56898 11.0067C5.56898 11.0067 5.56898 11.0067 5.57324 11.0109C7.25569 12.642 8.81036 13.7405 10.8676 14.8596C13.4147 16.2471 14.3901 15.9745 14.914 15.7391C15.4379 15.5038 15.7872 15.1651 16.2046 14.554C16.5411 14.0626 16.7456 13.567 16.7456 13.567C16.8691 13.2325 17.0096 13.0963 16.3793 12.4892Z" fill="white"/>
</svg>
