<svg width="26" height="22" viewBox="0 0 26 22" fill="none" xmlns="http://www.w3.org/2000/svg">
<path d="M4.41023 16.4661H1.28673C0.855469 16.4661 0.505859 16.8157 0.505859 17.247V20.3705C0.505859 20.8018 0.855469 21.1514 1.28673 21.1514H4.41023C4.8415 21.1514 5.19111 20.8018 5.19111 20.3705V17.247C5.19111 16.8157 4.8415 16.4661 4.41023 16.4661ZM4.41023 0.848633H1.28673C0.855469 0.848633 0.505859 1.19824 0.505859 1.62951V4.753C0.505859 5.18427 0.855469 5.53388 1.28673 5.53388H4.41023C4.8415 5.53388 5.19111 5.18427 5.19111 4.753V1.62951C5.19111 1.19824 4.8415 0.848633 4.41023 0.848633ZM4.41023 8.65738H1.28673C0.855469 8.65738 0.505859 9.00699 0.505859 9.43825V12.5617C0.505859 12.993 0.855469 13.3426 1.28673 13.3426H4.41023C4.8415 13.3426 5.19111 12.993 5.19111 12.5617V9.43825C5.19111 9.00699 4.8415 8.65738 4.41023 8.65738ZM24.713 17.247H9.09548C8.66421 17.247 8.3146 17.5966 8.3146 18.0279V19.5896C8.3146 20.0209 8.66421 20.3705 9.09548 20.3705H24.713C25.1442 20.3705 25.4938 20.0209 25.4938 19.5896V18.0279C25.4938 17.5966 25.1442 17.247 24.713 17.247ZM24.713 1.62951H9.09548C8.66421 1.62951 8.3146 1.97912 8.3146 2.41038V3.97213C8.3146 4.4034 8.66421 4.753 9.09548 4.753H24.713C25.1442 4.753 25.4938 4.4034 25.4938 3.97213V2.41038C25.4938 1.97912 25.1442 1.62951 24.713 1.62951ZM24.713 9.43825H9.09548C8.66421 9.43825 8.3146 9.78786 8.3146 10.2191V11.7809C8.3146 12.2121 8.66421 12.5617 9.09548 12.5617H24.713C25.1442 12.5617 25.4938 12.2121 25.4938 11.7809V10.2191C25.4938 9.78786 25.1442 9.43825 24.713 9.43825Z" fill="black"/>
</svg>
