<svg width="34" height="33" viewBox="0 0 34 33" fill="none" xmlns="http://www.w3.org/2000/svg">
<path d="M23.6719 3.3821C25.44 3.3821 27.1163 4.08265 28.384 5.34198C29.6517 6.60131 30.3439 8.28598 30.3439 10.054V23.3979C30.3439 25.166 29.6433 26.8423 28.384 28.11C27.1247 29.3777 25.44 30.0699 23.6719 30.0699H10.328C8.55997 30.0699 6.88364 29.3693 5.61597 28.11C4.3483 26.8507 3.65608 25.166 3.65608 23.3979V10.054C3.65608 8.28598 4.35664 6.60965 5.61597 5.34198C6.8753 4.07431 8.55997 3.3821 10.328 3.3821H23.6719ZM23.6719 0.713318H10.328C5.19063 0.713318 0.987305 4.91665 0.987305 10.054V23.3979C0.987305 28.5354 5.19063 32.7387 10.328 32.7387H23.6719C28.8093 32.7387 33.0127 28.5354 33.0127 23.3979V10.054C33.0127 4.91665 28.8093 0.713318 23.6719 0.713318Z" fill="black"/>
<path d="M25.6735 10.0541C24.5642 10.0541 23.6719 9.1617 23.6719 8.05249C23.6719 6.94328 24.5642 6.0509 25.6735 6.0509C26.7743 6.0509 27.675 6.94328 27.675 8.05249C27.675 9.1617 26.7743 10.0541 25.6735 10.0541Z" fill="black"/>
<path d="M16.9995 11.3884C19.9435 11.3884 22.3371 13.782 22.3371 16.726C22.3371 19.67 19.9435 22.0636 16.9995 22.0636C14.0555 22.0636 11.6619 19.67 11.6619 16.726C11.6619 13.782 14.0555 11.3884 16.9995 11.3884ZM16.9995 8.71967C12.5793 8.71967 8.99316 12.3058 8.99316 16.726C8.99316 21.1462 12.5793 24.7323 16.9995 24.7323C21.4197 24.7323 25.0058 21.1462 25.0058 16.726C25.0058 12.3058 21.4197 8.71967 16.9995 8.71967Z" fill="black"/>
</svg>
