<svg width="31" height="32" viewBox="0 0 31 32" fill="none" xmlns="http://www.w3.org/2000/svg">
<path d="M25.6669 0.907471H5.18159C2.33172 0.907471 0 3.23919 0 6.08906V26.5744C0 29.4243 2.33172 31.756 5.18159 31.756H25.6669C28.5168 31.756 30.8485 29.4243 30.8485 26.5744V6.08906C30.8485 3.23919 28.5168 0.907471 25.6669 0.907471ZM11.5682 25.9719H7.71213V12.4757H11.5682V25.9719ZM9.64017 10.5476C8.57535 10.5476 7.71213 9.68442 7.71213 8.61961C7.71213 7.55479 8.57535 6.69157 9.64017 6.69157C10.705 6.69157 11.5682 7.55479 11.5682 8.61961C11.5682 9.68442 10.705 10.5476 9.64017 10.5476ZM25.0644 25.9719H21.2084V18.2598C21.2084 17.195 20.3452 16.3317 19.2803 16.3317C18.2155 16.3317 17.3523 17.195 17.3523 18.2598V25.9719H13.4962V12.4757H17.3523V14.8698C18.1476 13.7773 19.3632 12.4757 20.7264 12.4757C23.1222 12.4757 25.0644 14.6337 25.0644 17.2958V25.9719Z" fill="black"/>
</svg>
