<svg width="31" height="32" viewBox="0 0 31 32" fill="none" xmlns="http://www.w3.org/2000/svg">
<path d="M25.6668 0.907532H5.18147C2.33159 0.907532 -0.00012207 3.23925 -0.00012207 6.08912V26.5745C-0.00012207 29.4244 2.33159 31.7561 5.18147 31.7561H25.6668C28.5167 31.7561 30.8484 29.4244 30.8484 26.5745V6.08912C30.8484 3.23925 28.5167 0.907532 25.6668 0.907532ZM11.5681 25.972H7.71201V12.4757H11.5681V25.972ZM9.64005 10.5477C8.57523 10.5477 7.71201 9.68448 7.71201 8.61967C7.71201 7.55485 8.57523 6.69163 9.64005 6.69163C10.7049 6.69163 11.5681 7.55485 11.5681 8.61967C11.5681 9.68448 10.7049 10.5477 9.64005 10.5477ZM25.0643 25.972H21.2082V18.2598C21.2082 17.195 20.345 16.3318 19.2802 16.3318C18.2154 16.3318 17.3522 17.195 17.3522 18.2598V25.972H13.4961V12.4757H17.3522V14.8699C18.1474 13.7774 19.3631 12.4757 20.7262 12.4757C23.1221 12.4757 25.0643 14.6337 25.0643 17.2958V25.972Z" fill="black"/>
</svg>
