<svg width="17" height="16" viewBox="0 0 17 16" fill="none" xmlns="http://www.w3.org/2000/svg">
<path d="M16.3793 12.4892C15.7531 11.8821 14.2496 10.9695 13.5084 10.6268C12.648 10.2262 12.3329 10.2345 11.7238 10.6598C11.2169 11.0149 10.8889 11.3453 10.3054 11.2214C9.72186 11.1017 8.57183 10.2551 7.45588 9.17731C6.33992 8.09538 5.47101 6.98042 5.34749 6.41468C5.22397 5.84481 5.56472 5.53096 5.92676 5.03955C6.36548 4.44903 6.37826 4.14345 5.96084 3.30929C5.60731 2.58663 4.67025 1.13305 4.03987 0.526009C3.41374 -0.0810275 3.27318 0.0511165 2.92817 0.170872C2.92817 0.170872 2.41705 0.369088 1.91018 0.695318C1.28405 1.10001 0.934787 1.43863 0.687744 1.94656C0.444959 2.45449 0.163841 3.40014 1.59499 5.86958C2.74928 7.86413 3.88227 9.37553 5.56472 11.0026C5.56472 11.0026 5.56472 11.0026 5.56898 11.0067C5.56898 11.0067 5.56898 11.0067 5.57324 11.0108C7.25569 12.642 8.81036 13.7404 10.8676 14.8595C13.4147 16.247 14.3901 15.9745 14.914 15.7391C15.4379 15.5037 15.7872 15.1651 16.2046 14.5539C16.5411 14.0625 16.7456 13.567 16.7456 13.567C16.8691 13.2325 17.0096 13.0962 16.3793 12.4892Z" fill="white"/>
</svg>
