<svg width="40" height="24" viewBox="0 0 40 24" fill="none" xmlns="http://www.w3.org/2000/svg">
<path d="M10.7971 11.886C13.5031 11.886 15.7048 9.68425 15.7048 6.97823C15.7048 4.27221 13.5031 2.07047 10.7971 2.07047C8.09106 2.07047 5.88932 4.27221 5.88932 6.97823C5.88932 9.68425 8.09106 11.886 10.7971 11.886ZM32.3912 4.03357H18.6495C18.1072 4.03357 17.6679 4.47282 17.6679 5.01512V13.8491H3.92621V1.08891C3.92621 0.546605 3.48697 0.107361 2.94466 0.107361H0.981553C0.439245 0.107361 0 0.546605 0 1.08891V22.6831C0 23.2254 0.439245 23.6646 0.981553 23.6646H2.94466C3.48697 23.6646 3.92621 23.2254 3.92621 22.6831V19.7384H35.3359V22.6831C35.3359 23.2254 35.7751 23.6646 36.3175 23.6646H38.2806C38.8229 23.6646 39.2621 23.2254 39.2621 22.6831V10.9044C39.2621 7.10951 36.1862 4.03357 32.3912 4.03357Z" fill="#6F6F6F"/>
</svg>
