<svg width="39" height="28" viewBox="0 0 39 28" fill="none" xmlns="http://www.w3.org/2000/svg">
<path d="M37.5978 5.05662C37.1561 3.39373 35.8549 2.08409 34.2028 1.63964C31.2082 0.832031 19.2001 0.832031 19.2001 0.832031C19.2001 0.832031 7.19218 0.832031 4.1975 1.63964C2.54536 2.08416 1.24416 3.39373 0.802528 5.05662C0.00012207 8.0707 0.00012207 14.3593 0.00012207 14.3593C0.00012207 14.3593 0.00012207 20.6479 0.802528 23.662C1.24416 25.3249 2.54536 26.58 4.1975 27.0244C7.19218 27.832 19.2001 27.832 19.2001 27.832C19.2001 27.832 31.2081 27.832 34.2028 27.0244C35.8549 26.58 37.1561 25.3249 37.5978 23.662C38.4002 20.6479 38.4002 14.3593 38.4002 14.3593C38.4002 14.3593 38.4002 8.0707 37.5978 5.05662ZM15.2728 20.0689V8.64973L25.3092 14.3595L15.2728 20.0689Z" fill="black"/>
</svg>
