<svg width="39" height="28" viewBox="0 0 39 28" fill="none" xmlns="http://www.w3.org/2000/svg">
<path d="M37.5976 5.05662C37.156 3.39373 35.8548 2.08409 34.2027 1.63964C31.2081 0.832031 19.2 0.832031 19.2 0.832031C19.2 0.832031 7.19205 0.832031 4.19738 1.63964C2.54524 2.08416 1.24404 3.39373 0.802406 5.05662C0 8.0707 0 14.3593 0 14.3593C0 14.3593 0 20.6479 0.802406 23.662C1.24404 25.3249 2.54524 26.58 4.19738 27.0244C7.19205 27.832 19.2 27.832 19.2 27.832C19.2 27.832 31.208 27.832 34.2027 27.0244C35.8548 26.58 37.156 25.3249 37.5976 23.662C38.4 20.6479 38.4 14.3593 38.4 14.3593C38.4 14.3593 38.4 8.0707 37.5976 5.05662ZM15.2727 20.0689V8.64973L25.3091 14.3595L15.2727 20.0689Z" fill="black"/>
</svg>
