<svg width="33" height="29" viewBox="0 0 33 29" fill="none" xmlns="http://www.w3.org/2000/svg">
<path d="M30.6947 14.5685H5.66509V5.73448C5.66509 4.65202 6.54572 3.77138 7.62819 3.77138C8.32454 3.77138 8.93685 4.13609 9.28548 4.68422C8.27375 6.2306 8.38448 8.33904 9.70498 9.77818C9.44879 10.0673 9.4583 10.5092 9.7351 10.786L10.4292 11.4801C10.7166 11.7675 11.1828 11.7675 11.4703 11.4801L17.3001 5.65032C17.5876 5.36284 17.5876 4.89673 17.3001 4.6092L16.606 3.91512C16.3292 3.63832 15.8873 3.62887 15.5982 3.88499C14.4971 2.87467 13.0036 2.57039 11.6611 2.9424C10.7741 1.66515 9.29757 0.826721 7.62819 0.826721C4.92205 0.826721 2.72043 3.02834 2.72043 5.73448V14.5685H2.22965C1.4165 14.5685 0.757324 15.2276 0.757324 16.0408V17.0223C0.757324 17.8355 1.4165 18.4947 2.22965 18.4947H2.72043V20.4578C2.72043 22.2019 3.4788 23.7686 4.68354 24.847V26.8379C4.68354 27.651 5.34271 28.3102 6.15586 28.3102H7.13742C7.95057 28.3102 8.60975 27.651 8.60975 26.8379V26.3471H24.3146V26.8379C24.3146 27.651 24.9738 28.3102 25.7869 28.3102H26.7685C27.5816 28.3102 28.2408 27.651 28.2408 26.8379V24.847C29.4455 23.7686 30.2039 22.2019 30.2039 20.4578V18.4947H30.6947C31.5078 18.4947 32.167 17.8355 32.167 17.0223V16.0408C32.167 15.2276 31.5078 14.5685 30.6947 14.5685Z" fill="#6F6F6F"/>
</svg>
