<svg width="32" height="33" viewBox="0 0 32 33" fill="none" xmlns="http://www.w3.org/2000/svg">
<path d="M15.7624 8.2529C11.2906 8.2529 7.68352 11.8599 7.68352 16.3318C7.68352 20.8037 11.2906 24.4107 15.7624 24.4107C20.2343 24.4107 23.8413 20.8037 23.8413 16.3318C23.8413 11.8599 20.2343 8.2529 15.7624 8.2529ZM15.7624 21.5842C12.8726 21.5842 10.5101 19.2287 10.5101 16.3318C10.5101 13.4349 12.8656 11.0795 15.7624 11.0795C18.6593 11.0795 21.0148 13.4349 21.0148 16.3318C21.0148 19.2287 18.6523 21.5842 15.7624 21.5842ZM26.0562 7.92244C26.0562 8.97009 25.2124 9.80681 24.1718 9.80681C23.1241 9.80681 22.2874 8.96306 22.2874 7.92244C22.2874 6.88181 23.1312 6.03806 24.1718 6.03806C25.2124 6.03806 26.0562 6.88181 26.0562 7.92244ZM31.407 9.83494C31.2874 7.31072 30.7109 5.07478 28.8616 3.23259C27.0195 1.39041 24.7835 0.813843 22.2593 0.68728C19.6577 0.539624 11.8601 0.539624 9.25852 0.68728C6.74133 0.806811 4.50539 1.38337 2.65618 3.22556C0.806958 5.06775 0.237427 7.30369 0.110864 9.8279C-0.036792 12.4295 -0.036792 20.2271 0.110864 22.8287C0.230395 25.3529 0.806958 27.5888 2.65618 29.431C4.50539 31.2732 6.7343 31.8498 9.25852 31.9763C11.8601 32.124 19.6577 32.124 22.2593 31.9763C24.7835 31.8568 27.0195 31.2802 28.8616 29.431C30.7038 27.5888 31.2804 25.3529 31.407 22.8287C31.5546 20.2271 31.5546 12.4365 31.407 9.83494ZM28.046 25.6201C27.4976 26.9982 26.4359 28.0599 25.0507 28.6154C22.9765 29.4381 18.0546 29.2482 15.7624 29.2482C13.4702 29.2482 8.54133 29.431 6.47414 28.6154C5.09602 28.067 4.0343 27.0052 3.47883 25.6201C2.65618 23.5459 2.84602 18.624 2.84602 16.3318C2.84602 14.0396 2.66321 9.11072 3.47883 7.04353C4.02727 5.66541 5.08899 4.60369 6.47414 4.04822C8.54836 3.22556 13.4702 3.41541 15.7624 3.41541C18.0546 3.41541 22.9835 3.23259 25.0507 4.04822C26.4288 4.59666 27.4906 5.65837 28.046 7.04353C28.8687 9.11775 28.6788 14.0396 28.6788 16.3318C28.6788 18.624 28.8687 23.5529 28.046 25.6201Z" fill="black"/>
</svg>
