<svg width="46" height="46" viewBox="0 0 46 46" fill="none" xmlns="http://www.w3.org/2000/svg">
<path d="M22.7953 22.7892C21.4136 22.7892 20.2936 21.6691 20.2936 20.2874C20.2936 18.9058 21.4136 17.7857 22.7953 17.7857C24.177 17.7857 25.297 18.9058 25.297 20.2874C25.297 21.6691 24.177 22.7892 22.7953 22.7892ZM28.3345 22.7493C28.3345 17.3754 26.2259 12.4973 22.7953 8.88428C19.2344 12.6215 17.2506 17.5872 17.2561 22.7493C17.2561 25.2111 17.7006 27.5647 18.5099 29.7445C17.3359 31.4541 16.4697 33.8533 16.0879 36.6115C17.3017 35.1782 18.7891 34.1325 20.4417 33.6111C21.1313 34.6853 21.9234 35.6911 22.7953 36.6143C23.6701 35.694 24.4593 34.6881 25.1489 33.6139C26.8015 34.1325 28.2889 35.1811 29.4999 36.6172C29.1209 33.859 28.2547 31.4598 27.0779 29.7502C27.8871 27.5704 28.3316 25.214 28.3316 22.7521L28.3345 22.7493Z" fill="#FFAE00"/>
<path d="M22.7949 41.7916C12.3033 41.7916 3.7982 33.2865 3.7982 22.7949C3.7982 12.3033 12.3033 3.7982 22.7949 3.7982C33.2865 3.7982 41.7916 12.3033 41.7916 22.7949C41.7916 33.2865 33.2865 41.7916 22.7949 41.7916ZM22.7949 0C10.2056 0 0 10.2056 0 22.7949C0 35.3842 10.2056 45.5898 22.7949 45.5898C35.3842 45.5898 45.5898 35.3842 45.5898 22.7949C45.5898 10.2056 35.3842 0 22.7949 0Z" fill="#FFAE00"/>
</svg>
