<svg width="25" height="17" viewBox="0 0 25 17" fill="none" xmlns="http://www.w3.org/2000/svg">
<path d="M0.0932617 15.5109V1.6765C0.0932617 1.66048 0.11728 1.50837 0.165316 1.22015L8.30743 8.18538L0.189334 15.9912C0.125286 15.7671 0.0932617 15.6069 0.0932617 15.5109ZM1.17407 0.259432C1.28616 0.211396 1.42226 0.187378 1.58238 0.187378H23.5108C23.6549 0.187378 23.799 0.211396 23.9432 0.259432L15.777 7.24868L14.6962 8.11333L12.5586 9.86664L10.421 8.11333L9.3402 7.24868L1.17407 0.259432ZM1.19809 16.9279L9.38824 9.07405L12.5586 11.644L15.729 9.07405L23.9191 16.9279C23.791 16.976 23.6549 17 23.5108 17H1.58238C1.45428 17 1.32619 16.976 1.19809 16.9279ZM16.8098 8.18538L24.9279 1.22015C24.9759 1.36426 25 1.51638 25 1.6765V15.5109C25 15.655 24.9759 15.8151 24.9279 15.9912L16.8098 8.18538Z" fill="white"/>
</svg>
