<svg width="25" height="22" viewBox="0 0 25 22" fill="none" xmlns="http://www.w3.org/2000/svg">
<path d="M23.4957 10.7307H3.95055V3.83239C3.95055 2.98711 4.63822 2.29943 5.48351 2.29943C6.02727 2.29943 6.50541 2.58423 6.77765 3.01226C5.98761 4.21979 6.07408 5.86623 7.10523 6.99003C6.90518 7.21581 6.9126 7.56087 7.12875 7.77701L7.67074 8.31901C7.89523 8.54349 8.25921 8.54349 8.48374 8.31901L13.0361 3.76666C13.2606 3.54218 13.2606 3.1782 13.0361 2.95367L12.4941 2.41167C12.278 2.19553 11.9329 2.18815 11.7072 2.38815C10.8473 1.59921 9.68107 1.3616 8.63272 1.65209C7.94011 0.654715 6.78709 0 5.48351 0C3.37033 0 1.65112 1.71921 1.65112 3.83239V10.7307H1.26788C0.632901 10.7307 0.118164 11.2454 0.118164 11.8804V12.6469C0.118164 13.2819 0.632901 13.7966 1.26788 13.7966H1.65112V15.3295C1.65112 16.6915 2.24332 17.9149 3.18407 18.757V20.3116C3.18407 20.9466 3.69881 21.4614 4.33379 21.4614H5.10027C5.73525 21.4614 6.24998 20.9466 6.24998 20.3116V19.9284H18.5136V20.3116C18.5136 20.9466 19.0284 21.4614 19.6633 21.4614H20.4298C21.0648 21.4614 21.5795 20.9466 21.5795 20.3116V18.757C22.5203 17.9149 23.1125 16.6915 23.1125 15.3295V13.7966H23.4957C24.1307 13.7966 24.6454 13.2819 24.6454 12.6469V11.8804C24.6454 11.2454 24.1307 10.7307 23.4957 10.7307Z" fill="#6F6F6F"/>
</svg>
