<svg width="36" height="30" viewBox="0 0 36 30" fill="none" xmlns="http://www.w3.org/2000/svg">
<path d="M32.2995 7.99954C32.3223 8.31932 32.3223 8.63917 32.3223 8.95895C32.3223 18.7127 24.8985 29.9513 11.3299 29.9513C7.14973 29.9513 3.26651 28.7406 0 26.6392C0.59393 26.7077 1.16494 26.7305 1.78172 26.7305C5.2309 26.7305 8.40607 25.5656 10.9416 23.5783C7.69795 23.5097 4.97967 21.3853 4.04311 18.4615C4.5 18.53 4.95682 18.5757 5.43656 18.5757C6.09898 18.5757 6.76146 18.4843 7.37817 18.3244C3.99748 17.6391 1.46187 14.6696 1.46187 11.0833V10.992C2.44406 11.5402 3.58629 11.8828 4.79686 11.9285C2.80955 10.6036 1.50757 8.34217 1.50757 5.78378C1.50757 4.41325 1.87298 3.1569 2.51262 2.06045C6.14461 6.5376 11.604 9.4614 17.7258 9.78125C17.6116 9.23303 17.543 8.66202 17.543 8.09094C17.543 4.02491 20.8324 0.712769 24.9212 0.712769C27.0456 0.712769 28.9643 1.60363 30.3121 3.04271C31.9795 2.72293 33.5785 2.10615 34.9948 1.261C34.4465 2.97423 33.2816 4.41332 31.7512 5.32696C33.2359 5.16714 34.675 4.75588 35.9999 4.18487C34.995 5.64674 33.7385 6.94872 32.2995 7.99954Z" fill="black"/>
</svg>
