<svg width="32" height="37" viewBox="0 0 32 37" fill="none" xmlns="http://www.w3.org/2000/svg">
<path d="M28.375 0.5H3.625C1.825 0.5 0.25 2.075 0.25 3.875V33.125C0.25 34.925 1.825 36.5 3.625 36.5H28.375C30.175 36.5 31.75 34.925 31.75 33.125V3.875C31.75 2.075 30.175 0.5 28.375 0.5ZM9.25 31.1C9.25 31.55 8.8 32 8.35 32H5.65C5.2 32 4.75 31.55 4.75 31.1V28.4C4.75 27.95 5.2 27.5 5.65 27.5H8.35C8.8 27.5 9.25 27.95 9.25 28.4V31.1ZM9.25 22.1C9.25 22.55 8.8 23 8.35 23H5.65C5.2 23 4.75 22.55 4.75 22.1V19.4C4.75 18.95 5.2 18.5 5.65 18.5H8.35C8.8 18.5 9.25 18.95 9.25 19.4V22.1ZM18.25 31.1C18.25 31.55 17.8 32 17.35 32H14.65C14.2 32 13.75 31.55 13.75 31.1V28.4C13.75 27.95 14.2 27.5 14.65 27.5H17.35C17.8 27.5 18.25 27.95 18.25 28.4V31.1ZM18.25 22.1C18.25 22.55 17.8 23 17.35 23H14.65C14.2 23 13.75 22.55 13.75 22.1V19.4C13.75 18.95 14.2 18.5 14.65 18.5H17.35C17.8 18.5 18.25 18.95 18.25 19.4V22.1ZM27.25 31.1C27.25 31.55 26.8 32 26.35 32H23.65C23.2 32 22.75 31.55 22.75 31.1V19.4C22.75 18.95 23.2 18.5 23.65 18.5H26.35C26.8 18.5 27.25 18.95 27.25 19.4V31.1ZM27.25 13.1C27.25 13.55 26.8 14 26.35 14H5.65C5.2 14 4.75 13.55 4.75 13.1V5.9C4.75 5.45 5.2 5 5.65 5H26.35C26.8 5 27.25 5.45 27.25 5.9V13.1Z" fill="#D76147"/>
</svg>
