<svg width="36" height="30" viewBox="0 0 36 30" fill="none" xmlns="http://www.w3.org/2000/svg">
<path d="M32.2995 7.99966C32.3223 8.31944 32.3223 8.63929 32.3223 8.95907C32.3223 18.7128 24.8985 29.9514 11.3299 29.9514C7.14973 29.9514 3.26651 28.7407 0 26.6393C0.59393 26.7078 1.16494 26.7306 1.78172 26.7306C5.2309 26.7306 8.40607 25.5657 10.9416 23.5784C7.69795 23.5098 4.97967 21.3855 4.04311 18.4616C4.5 18.5301 4.95682 18.5758 5.43656 18.5758C6.09898 18.5758 6.76146 18.4844 7.37817 18.3246C3.99748 17.6392 1.46187 14.6697 1.46187 11.0834V10.9921C2.44406 11.5403 3.58629 11.8829 4.79686 11.9286C2.80955 10.6037 1.50757 8.34229 1.50757 5.7839C1.50757 4.41337 1.87298 3.15702 2.51262 2.06057C6.14461 6.53772 11.604 9.46152 17.7258 9.78137C17.6116 9.23315 17.543 8.66214 17.543 8.09106C17.543 4.02503 20.8324 0.712891 24.9212 0.712891C27.0456 0.712891 28.9643 1.60375 30.3121 3.04284C31.9795 2.72305 33.5785 2.10627 34.9948 1.26112C34.4465 2.97435 33.2816 4.41344 31.7512 5.32708C33.2359 5.16726 34.675 4.756 35.9999 4.18499C34.995 5.64686 33.7385 6.94884 32.2995 7.99966Z" fill="black"/>
</svg>
