<svg width="31" height="19" viewBox="0 0 31 19" fill="none" xmlns="http://www.w3.org/2000/svg">
<path d="M8.43125 9.19773C10.5443 9.19773 12.2636 7.47842 12.2636 5.36534C12.2636 3.25226 10.5443 1.53295 8.43125 1.53295C6.31817 1.53295 4.59886 3.25226 4.59886 5.36534C4.59886 7.47842 6.31817 9.19773 8.43125 9.19773ZM25.2938 3.06591H14.5631C14.1396 3.06591 13.7966 3.40891 13.7966 3.83239V10.7307H3.06591V0.766477C3.06591 0.342999 2.72291 0 2.29943 0H0.766477C0.342999 0 0 0.342999 0 0.766477V17.629C0 18.0525 0.342999 18.3955 0.766477 18.3955H2.29943C2.72291 18.3955 3.06591 18.0525 3.06591 17.629V15.3295H27.5932V17.629C27.5932 18.0525 27.9362 18.3955 28.3597 18.3955H29.8926C30.3161 18.3955 30.6591 18.0525 30.6591 17.629V8.43125C30.6591 5.46786 28.2571 3.06591 25.2938 3.06591Z" fill="#6F6F6F"/>
</svg>
