<svg width="15" height="15" viewBox="0 0 15 15" fill="none" xmlns="http://www.w3.org/2000/svg">
<path d="M8.05418 5.88188L5.82098 4.20514V10.7949L8.05418 9.1182L10.2142 7.50004L8.05418 5.88188ZM8.05418 5.88188L5.82098 4.20514V10.7949L8.05418 9.1182L10.2142 7.50004L8.05418 5.88188ZM8.05418 5.88188L5.82098 4.20514V10.7949L8.05418 9.1182L10.2142 7.50004L8.05418 5.88188ZM6.55318 1.6937V0.214661C5.08146 0.361101 3.74154 0.946859 2.65788 1.83282L3.6976 2.87986C4.51034 2.25017 5.48417 1.8255 6.55318 1.6937ZM2.6652 3.91226L1.61816 2.87254C0.732199 3.9562 0.14644 5.29612 0 6.76784H1.47904C1.61084 5.69883 2.03551 4.725 2.6652 3.91226ZM1.47904 8.23223H0C0.14644 9.70395 0.732199 11.0439 1.61816 12.1275L2.6652 11.0805C2.03551 10.2751 1.61084 9.30124 1.47904 8.23223ZM2.65788 13.1673C3.74154 14.0532 5.08878 14.639 6.55318 14.7854V13.3064C5.48417 13.1746 4.51034 12.7499 3.6976 12.1202L2.65788 13.1673ZM14.6074 7.50004C14.6074 11.2782 11.7371 14.3973 8.05418 14.7854V13.3064C10.9244 12.9256 13.143 10.4654 13.143 7.50004C13.143 4.53463 10.9244 2.07445 8.05418 1.6937V0.214661C11.7371 0.602726 14.6074 3.72189 14.6074 7.50004Z" fill="white"/>
</svg>
