<svg width="32" height="32" viewBox="0 0 32 32" fill="none" xmlns="http://www.w3.org/2000/svg">
<path d="M28.125 0.25H3.375C1.51172 0.25 0 1.76172 0 3.625V28.375C0 30.2383 1.51172 31.75 3.375 31.75H28.125C29.9883 31.75 31.5 30.2383 31.5 28.375V3.625C31.5 1.76172 29.9883 0.25 28.125 0.25ZM16.875 20.5H13.5V23.875C13.5 24.4937 12.9937 25 12.375 25H10.125C9.50625 25 9 24.4937 9 23.875V8.125C9 7.50625 9.50625 7 10.125 7H16.875C20.5945 7 23.625 10.0305 23.625 13.75C23.625 17.4695 20.5945 20.5 16.875 20.5ZM16.875 11.5H13.5V16H16.875C18.1125 16 19.125 14.9875 19.125 13.75C19.125 12.5125 18.1125 11.5 16.875 11.5Z" fill="black"/>
</svg>
