<svg width="29" height="29" viewBox="0 0 29 29" fill="none" xmlns="http://www.w3.org/2000/svg">
<path d="M11.6079 0.0395508H1.96771C0.907288 0.0395508 0.0396729 0.907166 0.0396729 1.96758V11.6078C0.0396729 12.6682 0.907167 13.5358 1.96771 13.5358H11.6079C12.6683 13.5358 13.5359 12.6682 13.5359 11.6078V1.96758C13.5359 0.907166 12.6683 0.0395508 11.6079 0.0395508ZM11.6079 7.75169H1.96771V5.82365H11.6079V7.75169ZM27.0321 0.039551H17.392C16.3314 0.039551 15.4639 0.907166 15.4639 1.96758V27.032C15.4639 28.0924 16.3314 28.9601 17.392 28.9601H27.0321C28.0926 28.9601 28.9602 28.0924 28.9602 27.032V1.96758C28.9602 0.907166 28.0926 0.039551 27.0321 0.039551ZM27.0321 17.3919H17.392V15.4638H27.0321V17.3919ZM27.0321 11.6078H17.392V9.67972H27.0321V11.6078ZM11.6079 15.4638H1.96771C0.907288 15.4638 0.0396729 16.3314 0.0396729 17.3919V27.032C0.0396729 28.0924 0.907167 28.9601 1.96771 28.9601H11.6079C12.6683 28.9601 13.5359 28.0924 13.5359 27.032V17.3919C13.5359 16.3314 12.6683 15.4638 11.6079 15.4638ZM11.6079 23.176H7.75181V27.032H5.82377V23.176H1.96771V21.2479H5.82377V17.3919H7.75181V21.2479H11.6079V23.176Z" fill="#D76147"/>
</svg>
