<svg width="32" height="33" viewBox="0 0 32 33" fill="none" xmlns="http://www.w3.org/2000/svg">
<path d="M15.7623 8.25303C11.2904 8.25303 7.6834 11.8601 7.6834 16.3319C7.6834 20.8038 11.2904 24.4108 15.7623 24.4108C20.2342 24.4108 23.8412 20.8038 23.8412 16.3319C23.8412 11.8601 20.2342 8.25303 15.7623 8.25303ZM15.7623 21.5843C12.8725 21.5843 10.51 19.2288 10.51 16.3319C10.51 13.4351 12.8654 11.0796 15.7623 11.0796C18.6592 11.0796 21.0147 13.4351 21.0147 16.3319C21.0147 19.2288 18.6521 21.5843 15.7623 21.5843ZM26.0561 7.92256C26.0561 8.97021 25.2123 9.80693 24.1717 9.80693C23.124 9.80693 22.2873 8.96318 22.2873 7.92256C22.2873 6.88193 23.1311 6.03818 24.1717 6.03818C25.2123 6.03818 26.0561 6.88193 26.0561 7.92256ZM31.4068 9.83506C31.2873 7.31084 30.7107 5.0749 28.8615 3.23271C27.0193 1.39053 24.7834 0.813965 22.2592 0.687402C19.6576 0.539746 11.86 0.539746 9.2584 0.687402C6.74121 0.806933 4.50527 1.3835 2.65605 3.22568C0.806836 5.06787 0.237305 7.30381 0.110742 9.82803C-0.0369141 12.4296 -0.0369141 20.2272 0.110742 22.8288C0.230273 25.353 0.806836 27.589 2.65605 29.4312C4.50527 31.2733 6.73418 31.8499 9.2584 31.9765C11.86 32.1241 19.6576 32.1241 22.2592 31.9765C24.7834 31.8569 27.0193 31.2804 28.8615 29.4311C30.7037 27.589 31.2803 25.353 31.4068 22.8288C31.5545 20.2272 31.5545 12.4366 31.4068 9.83506ZM28.0459 25.6202C27.4975 26.9983 26.4357 28.0601 25.0506 28.6155C22.9764 29.4382 18.0545 29.2483 15.7623 29.2483C13.4701 29.2483 8.54121 29.4312 6.47402 28.6155C5.0959 28.0671 4.03418 27.0054 3.47871 25.6202C2.65605 23.546 2.8459 18.6241 2.8459 16.3319C2.8459 14.0397 2.66309 9.11084 3.47871 7.04365C4.02715 5.66553 5.08887 4.60381 6.47402 4.04834C8.54824 3.22568 13.4701 3.41553 15.7623 3.41553C18.0545 3.41553 22.9834 3.23271 25.0506 4.04834C26.4287 4.59678 27.4904 5.6585 28.0459 7.04365C28.8686 9.11787 28.6787 14.0397 28.6787 16.3319C28.6787 18.6241 28.8686 23.553 28.0459 25.6202Z" fill="black"/>
</svg>
