<svg width="46" height="46" viewBox="0 0 46 46" fill="none" xmlns="http://www.w3.org/2000/svg">
<path d="M23.0004 22.9943C21.6187 22.9943 20.4986 21.8742 20.4986 20.4925C20.4986 19.1108 21.6187 17.9908 23.0004 17.9908C24.382 17.9908 25.5021 19.1108 25.5021 20.4925C25.5021 21.8742 24.382 22.9943 23.0004 22.9943ZM28.5395 22.9544C28.5395 17.5805 26.431 12.7024 23.0004 9.08936C19.4395 12.8266 17.4556 17.7923 17.4612 22.9544C17.4612 25.4162 17.9057 27.7698 18.7149 29.9496C17.541 31.6592 16.6748 34.0583 16.293 36.8165C17.5068 35.3833 18.9942 34.3376 20.6468 33.8162C21.3363 34.8904 22.1285 35.8962 23.0004 36.8194C23.8751 35.899 24.6644 34.8932 25.3539 33.819C27.0066 34.3376 28.4939 35.3862 29.7049 36.8222C29.326 34.064 28.4598 31.6649 27.283 29.9553C28.0922 27.7755 28.5367 25.4191 28.5367 22.9572L28.5395 22.9544Z" fill="#FFAE00"/>
<path d="M23 41.9967C12.5084 41.9967 4.00328 33.4916 4.00328 23C4.00328 12.5084 12.5084 4.00328 23 4.00328C33.4916 4.00328 41.9967 12.5084 41.9967 23C41.9967 33.4916 33.4916 41.9967 23 41.9967ZM23 0.205078C10.4107 0.205078 0.205078 10.4107 0.205078 23C0.205078 35.5893 10.4107 45.7949 23 45.7949C35.5893 45.7949 45.7949 35.5893 45.7949 23C45.7949 10.4107 35.5893 0.205078 23 0.205078Z" fill="#FFAE00"/>
</svg>
