<svg width="20" height="15" viewBox="0 0 20 15" fill="none" xmlns="http://www.w3.org/2000/svg">
<path d="M9.95634 2.28204L8.19521 4.28894H11.6999L9.95634 2.28204ZM15.2047 5.89445V9.10549L17.3951 7.508L15.2047 5.89445ZM4.69048 5.89445L2.50003 7.508L4.69048 9.10549V5.89445ZM11.6999 10.711H8.19521L9.95634 12.7179L11.6999 10.711ZM17.8332 0.275146H2.06193C1.09813 0.275146 0.30957 0.997629 0.30957 1.88066V13.1193C0.30957 14.0023 1.09813 14.7248 2.06193 14.7248H17.8332C18.797 14.7248 19.5856 14.0023 19.5856 13.1193V1.88066C19.5856 0.997629 18.797 0.275146 17.8332 0.275146ZM17.8332 13.1273H2.06193V1.87264H17.8332V13.1273Z" fill="white"/>
</svg>
