<svg width="31" height="32" viewBox="0 0 31 32" fill="none" xmlns="http://www.w3.org/2000/svg">
<path d="M25.6669 0.907715H5.18159C2.33172 0.907715 0 3.23943 0 6.0893V26.5747C0 29.4245 2.33172 31.7563 5.18159 31.7563H25.6669C28.5168 31.7563 30.8485 29.4245 30.8485 26.5747V6.0893C30.8485 3.23943 28.5168 0.907715 25.6669 0.907715ZM11.5682 25.9722H7.71213V12.4759H11.5682V25.9722ZM9.64017 10.5479C8.57535 10.5479 7.71213 9.68467 7.71213 8.61985C7.71213 7.55503 8.57535 6.69182 9.64017 6.69182C10.705 6.69182 11.5682 7.55503 11.5682 8.61985C11.5682 9.68467 10.705 10.5479 9.64017 10.5479ZM25.0644 25.9722H21.2084V18.26C21.2084 17.1952 20.3452 16.332 19.2803 16.332C18.2155 16.332 17.3523 17.1952 17.3523 18.26V25.9721H13.4962V12.4759H17.3523V14.8701C18.1476 13.7776 19.3632 12.4759 20.7264 12.4759C23.1222 12.4759 25.0644 14.6339 25.0644 17.296V25.9722Z" fill="black"/>
</svg>
