<svg width="256" height="70" viewBox="0 0 256 70" fill="none" xmlns="http://www.w3.org/2000/svg">
<path d="M4.83991 66.16C4.10658 66.16 3.36658 66.1334 2.61991 66.08C1.87325 66.04 1.21991 65.9467 0.659912 65.8V52.34C0.953245 52.2867 1.26658 52.24 1.59991 52.2C1.93325 52.1467 2.27325 52.1067 2.61991 52.08C2.96658 52.0534 3.30658 52.0333 3.63991 52.02C3.98658 52.0067 4.31325 52 4.61991 52C5.45991 52 6.23991 52.0667 6.95991 52.2C7.67991 52.32 8.29991 52.5267 8.81991 52.82C9.35325 53.1133 9.76658 53.5 10.0599 53.98C10.3532 54.46 10.4999 55.0534 10.4999 55.76C10.4999 56.4134 10.3399 56.9734 10.0199 57.44C9.71325 57.9067 9.27991 58.28 8.71991 58.56C9.55991 58.84 10.1799 59.2534 10.5799 59.8C10.9799 60.3467 11.1799 61.04 11.1799 61.88C11.1799 63.3067 10.6599 64.38 9.61991 65.1C8.57991 65.8067 6.98658 66.16 4.83991 66.16ZM3.13991 59.76V63.98C3.41991 64.0067 3.71991 64.0267 4.03991 64.04C4.35991 64.0533 4.65325 64.06 4.91991 64.06C5.43991 64.06 5.91991 64.0267 6.35991 63.96C6.81325 63.8934 7.19991 63.78 7.51991 63.62C7.85325 63.4467 8.11325 63.22 8.29991 62.94C8.49991 62.66 8.59991 62.3 8.59991 61.86C8.59991 61.0733 8.31325 60.5267 7.73991 60.22C7.16658 59.9133 6.37325 59.76 5.35991 59.76H3.13991ZM3.13991 57.78H4.91991C5.87991 57.78 6.63325 57.6467 7.17991 57.38C7.72658 57.1 7.99991 56.6067 7.99991 55.9C7.99991 55.2333 7.71325 54.76 7.13991 54.48C6.57991 54.2 5.84658 54.06 4.93991 54.06C4.55325 54.06 4.20658 54.0667 3.89991 54.08C3.60658 54.0934 3.35325 54.1133 3.13991 54.14V57.78Z" fill="black"/>
<path d="M17.3244 66.2C16.6044 66.1867 16.0044 66.1067 15.5244 65.96C15.0578 65.8133 14.6844 65.6067 14.4044 65.34C14.1244 65.06 13.9244 64.72 13.8044 64.32C13.6978 63.9067 13.6444 63.44 13.6444 62.92V50.88L16.0644 50.48V62.46C16.0644 62.7534 16.0844 63 16.1244 63.2C16.1778 63.4 16.2644 63.5733 16.3844 63.72C16.5044 63.8533 16.6644 63.96 16.8644 64.04C17.0778 64.1067 17.3444 64.16 17.6644 64.2L17.3244 66.2Z" fill="black"/>
<path d="M29.0819 60.76C29.0819 61.5867 28.9619 62.34 28.7219 63.02C28.4819 63.7 28.1419 64.28 27.7019 64.76C27.2619 65.24 26.7286 65.6134 26.1019 65.88C25.4886 66.1467 24.8086 66.28 24.0619 66.28C23.3153 66.28 22.6353 66.1467 22.0219 65.88C21.4086 65.6134 20.8819 65.24 20.4419 64.76C20.0019 64.28 19.6553 63.7 19.4019 63.02C19.1619 62.34 19.0419 61.5867 19.0419 60.76C19.0419 59.9334 19.1619 59.1867 19.4019 58.52C19.6553 57.84 20.0019 57.26 20.4419 56.78C20.8953 56.3 21.4286 55.9333 22.0419 55.68C22.6553 55.4133 23.3286 55.28 24.0619 55.28C24.7953 55.28 25.4686 55.4133 26.0819 55.68C26.7086 55.9333 27.2419 56.3 27.6819 56.78C28.1219 57.26 28.4619 57.84 28.7019 58.52C28.9553 59.1867 29.0819 59.9334 29.0819 60.76ZM26.6019 60.76C26.6019 59.72 26.3753 58.9 25.9219 58.3C25.4819 57.6867 24.8619 57.38 24.0619 57.38C23.2619 57.38 22.6353 57.6867 22.1819 58.3C21.7419 58.9 21.5219 59.72 21.5219 60.76C21.5219 61.8134 21.7419 62.6467 22.1819 63.26C22.6353 63.8734 23.2619 64.18 24.0619 64.18C24.8619 64.18 25.4819 63.8734 25.9219 63.26C26.3753 62.6467 26.6019 61.8134 26.6019 60.76Z" fill="black"/>
<path d="M30.9951 60.78C30.9951 60.0067 31.1151 59.2867 31.3551 58.62C31.5951 57.94 31.9351 57.3533 32.3751 56.86C32.8284 56.3667 33.3751 55.98 34.0151 55.7C34.6551 55.42 35.3751 55.28 36.1751 55.28C37.1617 55.28 38.0951 55.46 38.9751 55.82L38.4551 57.8C38.1751 57.68 37.8551 57.58 37.4951 57.5C37.1484 57.42 36.7751 57.38 36.3751 57.38C35.4284 57.38 34.7084 57.68 34.2151 58.28C33.7217 58.8667 33.4751 59.7 33.4751 60.78C33.4751 61.82 33.7084 62.6467 34.1751 63.26C34.6417 63.86 35.4284 64.16 36.5351 64.16C36.9484 64.16 37.3551 64.12 37.7551 64.04C38.1551 63.96 38.5017 63.86 38.7951 63.74L39.1351 65.74C38.8684 65.8733 38.4617 65.9933 37.9151 66.1C37.3817 66.2067 36.8284 66.26 36.2551 66.26C35.3617 66.26 34.5817 66.1267 33.9151 65.86C33.2617 65.58 32.7151 65.2 32.2751 64.72C31.8484 64.2267 31.5284 63.6467 31.3151 62.98C31.1017 62.3 30.9951 61.5667 30.9951 60.78Z" fill="black"/>
<path d="M43.4287 59.62C43.7353 59.3 44.062 58.96 44.4087 58.6C44.7553 58.2267 45.0953 57.86 45.4287 57.5C45.762 57.1267 46.0753 56.7734 46.3687 56.44C46.6753 56.0934 46.9353 55.7933 47.1487 55.54H50.0087C49.342 56.2867 48.6353 57.06 47.8887 57.86C47.1553 58.66 46.4153 59.44 45.6687 60.2C46.0687 60.5333 46.4887 60.94 46.9287 61.42C47.3687 61.8867 47.7953 62.3867 48.2087 62.92C48.622 63.4534 49.0087 63.9867 49.3687 64.52C49.7287 65.0533 50.0287 65.5467 50.2687 66H47.4687C47.2287 65.5867 46.9487 65.1534 46.6287 64.7C46.322 64.2467 45.9887 63.8067 45.6287 63.38C45.2687 62.9533 44.902 62.5533 44.5287 62.18C44.1553 61.7933 43.7887 61.4667 43.4287 61.2V66H41.0087V50.88L43.4287 50.48V59.62Z" fill="black"/>
<path d="M63.2923 54.04C61.8656 54.04 60.7723 54.4867 60.0123 55.38C59.2656 56.26 58.8923 57.4867 58.8923 59.06C58.8923 59.8067 58.9789 60.4934 59.1523 61.12C59.3389 61.7334 59.6056 62.26 59.9523 62.7C60.3123 63.14 60.7523 63.4867 61.2723 63.74C61.8056 63.98 62.4256 64.1 63.1323 64.1C63.5723 64.1 63.9523 64.0867 64.2723 64.06C64.5923 64.02 64.8456 63.9734 65.0323 63.92V58.94H67.5523V65.6C67.2056 65.7333 66.6189 65.88 65.7923 66.04C64.9656 66.2 64.0123 66.28 62.9323 66.28C61.9323 66.28 61.0189 66.12 60.1923 65.8C59.3656 65.48 58.6589 65.0134 58.0723 64.4C57.4989 63.7867 57.0523 63.0334 56.7323 62.14C56.4123 61.2467 56.2523 60.22 56.2523 59.06C56.2523 57.9 56.4256 56.8733 56.7723 55.98C57.1323 55.0867 57.6189 54.3333 58.2323 53.72C58.8456 53.0933 59.5656 52.62 60.3923 52.3C61.2189 51.98 62.0989 51.82 63.0323 51.82C63.6723 51.82 64.2389 51.8667 64.7323 51.96C65.2389 52.04 65.6723 52.1334 66.0323 52.24C66.3923 52.3467 66.6856 52.46 66.9123 52.58C67.1523 52.7 67.3189 52.7867 67.4123 52.84L66.6523 54.9C66.2523 54.66 65.7523 54.46 65.1523 54.3C64.5656 54.1267 63.9456 54.04 63.2923 54.04Z" fill="black"/>
<path d="M72.8446 63.34C72.8713 63.5667 72.8846 63.7333 72.8846 63.84C72.8846 63.9467 72.8846 64.0533 72.8846 64.16C72.8846 64.9867 72.7513 65.84 72.4846 66.72C72.2313 67.6 71.8713 68.4333 71.4046 69.22L69.5046 68.7C69.8246 67.9267 70.0379 67.1667 70.1446 66.42C70.2646 65.6867 70.3246 65.04 70.3246 64.48C70.3246 64.32 70.3179 64.12 70.3046 63.88C70.3046 63.64 70.2979 63.46 70.2846 63.34H72.8446Z" fill="black"/>
<path d="M84.6641 66.16C83.9308 66.16 83.1908 66.1334 82.4441 66.08C81.6975 66.04 81.0441 65.9467 80.4841 65.8V52.34C80.7775 52.2867 81.0908 52.24 81.4241 52.2C81.7575 52.1467 82.0975 52.1067 82.4441 52.08C82.7908 52.0534 83.1308 52.0333 83.4641 52.02C83.8108 52.0067 84.1375 52 84.4441 52C85.2841 52 86.0641 52.0667 86.7841 52.2C87.5041 52.32 88.1241 52.5267 88.6441 52.82C89.1775 53.1133 89.5908 53.5 89.8841 53.98C90.1775 54.46 90.3241 55.0534 90.3241 55.76C90.3241 56.4134 90.1641 56.9734 89.8441 57.44C89.5375 57.9067 89.1041 58.28 88.5441 58.56C89.3841 58.84 90.0041 59.2534 90.4041 59.8C90.8041 60.3467 91.0041 61.04 91.0041 61.88C91.0041 63.3067 90.4841 64.38 89.4441 65.1C88.4041 65.8067 86.8108 66.16 84.6641 66.16ZM82.9641 59.76V63.98C83.2441 64.0067 83.5441 64.0267 83.8641 64.04C84.1841 64.0533 84.4775 64.06 84.7441 64.06C85.2641 64.06 85.7441 64.0267 86.1841 63.96C86.6375 63.8934 87.0241 63.78 87.3441 63.62C87.6775 63.4467 87.9375 63.22 88.1241 62.94C88.3241 62.66 88.4241 62.3 88.4241 61.86C88.4241 61.0733 88.1375 60.5267 87.5641 60.22C86.9908 59.9133 86.1975 59.76 85.1841 59.76H82.9641ZM82.9641 57.78H84.7441C85.7041 57.78 86.4575 57.6467 87.0041 57.38C87.5508 57.1 87.8241 56.6067 87.8241 55.9C87.8241 55.2333 87.5375 54.76 86.9641 54.48C86.4041 54.2 85.6708 54.06 84.7641 54.06C84.3775 54.06 84.0308 54.0667 83.7241 54.08C83.4308 54.0934 83.1775 54.1133 82.9641 54.14V57.78Z" fill="black"/>
<path d="M97.1887 64.3C97.9353 64.3 98.502 64.26 98.8887 64.18V61.5C98.7553 61.46 98.562 61.42 98.3087 61.38C98.0553 61.34 97.7753 61.32 97.4687 61.32C97.202 61.32 96.9287 61.34 96.6487 61.38C96.382 61.42 96.1353 61.4934 95.9087 61.6C95.6953 61.7067 95.522 61.86 95.3887 62.06C95.2553 62.2467 95.1887 62.4867 95.1887 62.78C95.1887 63.3534 95.3687 63.7533 95.7287 63.98C96.0887 64.1933 96.5753 64.3 97.1887 64.3ZM96.9887 55.28C97.7887 55.28 98.462 55.38 99.0087 55.58C99.5553 55.78 99.9887 56.06 100.309 56.42C100.642 56.78 100.875 57.22 101.009 57.74C101.155 58.2467 101.229 58.8067 101.229 59.42V65.76C100.855 65.84 100.289 65.9333 99.5287 66.04C98.782 66.16 97.9353 66.22 96.9887 66.22C96.362 66.22 95.7887 66.16 95.2687 66.04C94.7487 65.92 94.302 65.7267 93.9287 65.46C93.5687 65.1933 93.282 64.8467 93.0687 64.42C92.8687 63.9934 92.7687 63.4667 92.7687 62.84C92.7687 62.24 92.882 61.7333 93.1087 61.32C93.3487 60.9067 93.6687 60.5733 94.0687 60.32C94.4687 60.0533 94.9287 59.8667 95.4487 59.76C95.982 59.64 96.5353 59.58 97.1087 59.58C97.3753 59.58 97.6553 59.6 97.9487 59.64C98.242 59.6667 98.5553 59.72 98.8887 59.8V59.4C98.8887 59.12 98.8553 58.8534 98.7887 58.6C98.722 58.3467 98.602 58.1267 98.4287 57.94C98.2687 57.74 98.0487 57.5867 97.7687 57.48C97.502 57.3733 97.162 57.32 96.7487 57.32C96.1887 57.32 95.6753 57.36 95.2087 57.44C94.742 57.52 94.362 57.6133 94.0687 57.72L93.7687 55.76C94.0753 55.6534 94.522 55.5467 95.1087 55.44C95.6953 55.3334 96.322 55.28 96.9887 55.28Z" fill="black"/>
<path d="M106.812 64.26C107.452 64.26 107.919 64.1867 108.212 64.04C108.506 63.88 108.652 63.6134 108.652 63.24C108.652 62.8934 108.492 62.6067 108.172 62.38C107.866 62.1533 107.352 61.9067 106.632 61.64C106.192 61.48 105.786 61.3133 105.412 61.14C105.052 60.9533 104.739 60.74 104.472 60.5C104.206 60.26 103.992 59.9733 103.832 59.64C103.686 59.2933 103.612 58.8733 103.612 58.38C103.612 57.42 103.966 56.6667 104.672 56.12C105.379 55.56 106.339 55.28 107.552 55.28C108.166 55.28 108.752 55.34 109.312 55.46C109.872 55.5667 110.292 55.6733 110.572 55.78L110.132 57.74C109.866 57.62 109.526 57.5134 109.112 57.42C108.699 57.3134 108.219 57.26 107.672 57.26C107.179 57.26 106.779 57.3467 106.472 57.52C106.166 57.68 106.012 57.9334 106.012 58.28C106.012 58.4534 106.039 58.6067 106.092 58.74C106.159 58.8734 106.266 59 106.412 59.12C106.559 59.2267 106.752 59.34 106.992 59.46C107.232 59.5667 107.526 59.68 107.872 59.8C108.446 60.0134 108.932 60.2267 109.332 60.44C109.732 60.64 110.059 60.8733 110.312 61.14C110.579 61.3933 110.772 61.6867 110.892 62.02C111.012 62.3533 111.072 62.7533 111.072 63.22C111.072 64.22 110.699 64.98 109.952 65.5C109.219 66.0067 108.166 66.26 106.792 66.26C105.872 66.26 105.132 66.18 104.572 66.02C104.012 65.8734 103.619 65.7534 103.392 65.66L103.812 63.64C104.172 63.7867 104.599 63.9267 105.092 64.06C105.599 64.1933 106.172 64.26 106.812 64.26Z" fill="black"/>
<path d="M121.913 65.68C121.446 65.8 120.84 65.92 120.093 66.04C119.346 66.1733 118.526 66.24 117.633 66.24C116.793 66.24 116.086 66.12 115.513 65.88C114.953 65.64 114.5 65.3067 114.153 64.88C113.82 64.4534 113.58 63.9467 113.433 63.36C113.286 62.76 113.213 62.1067 113.213 61.4V55.54H115.633V61.02C115.633 62.14 115.793 62.94 116.113 63.42C116.446 63.9 117.02 64.14 117.833 64.14C118.126 64.14 118.433 64.1267 118.753 64.1C119.086 64.0734 119.333 64.04 119.493 64V55.54H121.913V65.68Z" fill="black"/>
<path d="M124.993 55.88C125.46 55.7467 126.066 55.62 126.813 55.5C127.56 55.38 128.386 55.32 129.293 55.32C130.146 55.32 130.86 55.44 131.433 55.68C132.006 55.9067 132.46 56.2333 132.793 56.66C133.14 57.0733 133.38 57.58 133.513 58.18C133.66 58.7667 133.733 59.4134 133.733 60.12V66H131.313V60.5C131.313 59.94 131.273 59.4667 131.193 59.08C131.126 58.68 131.006 58.36 130.833 58.12C130.673 57.8667 130.446 57.6867 130.153 57.58C129.873 57.46 129.526 57.4 129.113 57.4C128.806 57.4 128.486 57.42 128.153 57.46C127.82 57.5 127.573 57.5333 127.413 57.56V66H124.993V55.88Z" fill="black"/>
<path d="M138.592 60.74C138.592 61.8067 138.846 62.6467 139.352 63.26C139.859 63.86 140.559 64.16 141.452 64.16C141.839 64.16 142.166 64.1467 142.432 64.12C142.712 64.08 142.939 64.04 143.112 64V58C142.899 57.8533 142.612 57.72 142.252 57.6C141.906 57.4667 141.532 57.4 141.132 57.4C140.252 57.4 139.606 57.7 139.192 58.3C138.792 58.9 138.592 59.7134 138.592 60.74ZM145.532 65.68C145.052 65.8267 144.446 65.96 143.712 66.08C142.992 66.2 142.232 66.26 141.432 66.26C140.606 66.26 139.866 66.1334 139.212 65.88C138.559 65.6267 137.999 65.2667 137.532 64.8C137.079 64.32 136.726 63.7467 136.472 63.08C136.232 62.4 136.112 61.64 136.112 60.8C136.112 59.9733 136.212 59.2267 136.412 58.56C136.626 57.88 136.932 57.3 137.332 56.82C137.732 56.34 138.219 55.9733 138.792 55.72C139.366 55.4533 140.026 55.32 140.772 55.32C141.279 55.32 141.726 55.38 142.112 55.5C142.499 55.62 142.832 55.7533 143.112 55.9V50.88L145.532 50.48V65.68Z" fill="black"/>
<path d="M148.606 66V50.88L151.026 50.48V55.66C151.293 55.5667 151.6 55.4867 151.946 55.42C152.306 55.3534 152.66 55.32 153.006 55.32C153.846 55.32 154.54 55.44 155.086 55.68C155.646 55.9067 156.093 56.2333 156.426 56.66C156.76 57.0733 156.993 57.5733 157.126 58.16C157.273 58.7467 157.346 59.4 157.346 60.12V66H154.926V60.5C154.926 59.94 154.886 59.4667 154.806 59.08C154.74 58.68 154.62 58.36 154.446 58.12C154.286 57.8667 154.066 57.6867 153.786 57.58C153.506 57.46 153.16 57.4 152.746 57.4C152.426 57.4 152.1 57.4333 151.766 57.5C151.433 57.5667 151.186 57.6267 151.026 57.68V66H148.606Z" fill="black"/>
<path d="M163.927 64.3C164.674 64.3 165.24 64.26 165.627 64.18V61.5C165.494 61.46 165.3 61.42 165.047 61.38C164.794 61.34 164.514 61.32 164.207 61.32C163.94 61.32 163.667 61.34 163.387 61.38C163.12 61.42 162.874 61.4934 162.647 61.6C162.434 61.7067 162.26 61.86 162.127 62.06C161.994 62.2467 161.927 62.4867 161.927 62.78C161.927 63.3534 162.107 63.7533 162.467 63.98C162.827 64.1933 163.314 64.3 163.927 64.3ZM163.727 55.28C164.527 55.28 165.2 55.38 165.747 55.58C166.294 55.78 166.727 56.06 167.047 56.42C167.38 56.78 167.614 57.22 167.747 57.74C167.894 58.2467 167.967 58.8067 167.967 59.42V65.76C167.594 65.84 167.027 65.9333 166.267 66.04C165.52 66.16 164.674 66.22 163.727 66.22C163.1 66.22 162.527 66.16 162.007 66.04C161.487 65.92 161.04 65.7267 160.667 65.46C160.307 65.1933 160.02 64.8467 159.807 64.42C159.607 63.9934 159.507 63.4667 159.507 62.84C159.507 62.24 159.62 61.7333 159.847 61.32C160.087 60.9067 160.407 60.5733 160.807 60.32C161.207 60.0533 161.667 59.8667 162.187 59.76C162.72 59.64 163.274 59.58 163.847 59.58C164.114 59.58 164.394 59.6 164.687 59.64C164.98 59.6667 165.294 59.72 165.627 59.8V59.4C165.627 59.12 165.594 58.8534 165.527 58.6C165.46 58.3467 165.34 58.1267 165.167 57.94C165.007 57.74 164.787 57.5867 164.507 57.48C164.24 57.3733 163.9 57.32 163.487 57.32C162.927 57.32 162.414 57.36 161.947 57.44C161.48 57.52 161.1 57.6133 160.807 57.72L160.507 55.76C160.814 55.6534 161.26 55.5467 161.847 55.44C162.434 55.3334 163.06 55.28 163.727 55.28Z" fill="black"/>
<path d="M176.891 57.72C176.691 57.6533 176.411 57.5867 176.051 57.52C175.704 57.44 175.297 57.4 174.831 57.4C174.564 57.4 174.277 57.4267 173.971 57.48C173.677 57.5333 173.471 57.58 173.351 57.62V66H170.931V56.04C171.397 55.8667 171.977 55.7067 172.671 55.56C173.377 55.4 174.157 55.32 175.011 55.32C175.171 55.32 175.357 55.3333 175.571 55.36C175.784 55.3733 175.997 55.4 176.211 55.44C176.424 55.4667 176.631 55.5067 176.831 55.56C177.031 55.6 177.191 55.64 177.311 55.68L176.891 57.72Z" fill="black"/>
<path d="M182.677 64.3C183.424 64.3 183.99 64.26 184.377 64.18V61.5C184.244 61.46 184.05 61.42 183.797 61.38C183.544 61.34 183.264 61.32 182.957 61.32C182.69 61.32 182.417 61.34 182.137 61.38C181.87 61.42 181.624 61.4934 181.397 61.6C181.184 61.7067 181.01 61.86 180.877 62.06C180.744 62.2467 180.677 62.4867 180.677 62.78C180.677 63.3534 180.857 63.7533 181.217 63.98C181.577 64.1933 182.064 64.3 182.677 64.3ZM182.477 55.28C183.277 55.28 183.95 55.38 184.497 55.58C185.044 55.78 185.477 56.06 185.797 56.42C186.13 56.78 186.364 57.22 186.497 57.74C186.644 58.2467 186.717 58.8067 186.717 59.42V65.76C186.344 65.84 185.777 65.9333 185.017 66.04C184.27 66.16 183.424 66.22 182.477 66.22C181.85 66.22 181.277 66.16 180.757 66.04C180.237 65.92 179.79 65.7267 179.417 65.46C179.057 65.1933 178.77 64.8467 178.557 64.42C178.357 63.9934 178.257 63.4667 178.257 62.84C178.257 62.24 178.37 61.7333 178.597 61.32C178.837 60.9067 179.157 60.5733 179.557 60.32C179.957 60.0533 180.417 59.8667 180.937 59.76C181.47 59.64 182.024 59.58 182.597 59.58C182.864 59.58 183.144 59.6 183.437 59.64C183.73 59.6667 184.044 59.72 184.377 59.8V59.4C184.377 59.12 184.344 58.8534 184.277 58.6C184.21 58.3467 184.09 58.1267 183.917 57.94C183.757 57.74 183.537 57.5867 183.257 57.48C182.99 57.3733 182.65 57.32 182.237 57.32C181.677 57.32 181.164 57.36 180.697 57.44C180.23 57.52 179.85 57.6133 179.557 57.72L179.257 55.76C179.564 55.6534 180.01 55.5467 180.597 55.44C181.184 55.3334 181.81 55.28 182.477 55.28Z" fill="black"/>
<path d="M192.181 63.34C192.207 63.5667 192.221 63.7333 192.221 63.84C192.221 63.9467 192.221 64.0533 192.221 64.16C192.221 64.9867 192.087 65.84 191.821 66.72C191.567 67.6 191.207 68.4333 190.741 69.22L188.841 68.7C189.161 67.9267 189.374 67.1667 189.481 66.42C189.601 65.6867 189.661 65.04 189.661 64.48C189.661 64.32 189.654 64.12 189.641 63.88C189.641 63.64 189.634 63.46 189.621 63.34H192.181Z" fill="black"/>
<path d="M202.34 63.92C202.487 63.9334 202.68 63.9467 202.92 63.96C203.16 63.96 203.487 63.96 203.9 63.96C205.593 63.96 206.853 63.5333 207.68 62.68C208.52 61.8133 208.94 60.6067 208.94 59.06C208.94 57.4867 208.533 56.28 207.72 55.44C206.907 54.6 205.647 54.18 203.94 54.18C203.193 54.18 202.66 54.2 202.34 54.24V63.92ZM211.58 59.06C211.58 60.26 211.393 61.3067 211.02 62.2C210.647 63.08 210.113 63.82 209.42 64.42C208.74 65.0067 207.913 65.4467 206.94 65.74C205.98 66.02 204.913 66.16 203.74 66.16C203.18 66.16 202.547 66.1334 201.84 66.08C201.133 66.04 200.46 65.9467 199.82 65.8V52.34C200.46 52.1933 201.14 52.1 201.86 52.06C202.58 52.02 203.22 52 203.78 52C204.94 52 206 52.14 206.96 52.42C207.92 52.6867 208.74 53.1133 209.42 53.7C210.113 54.2733 210.647 55.0067 211.02 55.9C211.393 56.78 211.58 57.8333 211.58 59.06Z" fill="black"/>
<path d="M214.212 66V50.88L216.632 50.48V55.66C216.898 55.5667 217.205 55.4867 217.552 55.42C217.912 55.3534 218.265 55.32 218.612 55.32C219.452 55.32 220.145 55.44 220.692 55.68C221.252 55.9067 221.698 56.2333 222.032 56.66C222.365 57.0733 222.598 57.5733 222.732 58.16C222.878 58.7467 222.952 59.4 222.952 60.12V66H220.532V60.5C220.532 59.94 220.492 59.4667 220.412 59.08C220.345 58.68 220.225 58.36 220.052 58.12C219.892 57.8667 219.672 57.6867 219.392 57.58C219.112 57.46 218.765 57.4 218.352 57.4C218.032 57.4 217.705 57.4333 217.372 57.5C217.038 57.5667 216.792 57.6267 216.632 57.68V66H214.212Z" fill="black"/>
<path d="M229.532 64.3C230.279 64.3 230.846 64.26 231.232 64.18V61.5C231.099 61.46 230.906 61.42 230.652 61.38C230.399 61.34 230.119 61.32 229.812 61.32C229.546 61.32 229.272 61.34 228.992 61.38C228.726 61.42 228.479 61.4934 228.252 61.6C228.039 61.7067 227.866 61.86 227.732 62.06C227.599 62.2467 227.532 62.4867 227.532 62.78C227.532 63.3534 227.712 63.7533 228.072 63.98C228.432 64.1933 228.919 64.3 229.532 64.3ZM229.332 55.28C230.132 55.28 230.806 55.38 231.352 55.58C231.899 55.78 232.332 56.06 232.652 56.42C232.986 56.78 233.219 57.22 233.352 57.74C233.499 58.2467 233.572 58.8067 233.572 59.42V65.76C233.199 65.84 232.632 65.9333 231.872 66.04C231.126 66.16 230.279 66.22 229.332 66.22C228.706 66.22 228.132 66.16 227.612 66.04C227.092 65.92 226.646 65.7267 226.272 65.46C225.912 65.1933 225.626 64.8467 225.412 64.42C225.212 63.9934 225.112 63.4667 225.112 62.84C225.112 62.24 225.226 61.7333 225.452 61.32C225.692 60.9067 226.012 60.5733 226.412 60.32C226.812 60.0533 227.272 59.8667 227.792 59.76C228.326 59.64 228.879 59.58 229.452 59.58C229.719 59.58 229.999 59.6 230.292 59.64C230.586 59.6667 230.899 59.72 231.232 59.8V59.4C231.232 59.12 231.199 58.8534 231.132 58.6C231.066 58.3467 230.946 58.1267 230.772 57.94C230.612 57.74 230.392 57.5867 230.112 57.48C229.846 57.3733 229.506 57.32 229.092 57.32C228.532 57.32 228.019 57.36 227.552 57.44C227.086 57.52 226.706 57.6133 226.412 57.72L226.112 55.76C226.419 55.6534 226.866 55.5467 227.452 55.44C228.039 55.3334 228.666 55.28 229.332 55.28Z" fill="black"/>
<path d="M238.956 59.62C239.263 59.3 239.589 58.96 239.936 58.6C240.283 58.2267 240.623 57.86 240.956 57.5C241.289 57.1267 241.603 56.7734 241.896 56.44C242.203 56.0934 242.463 55.7933 242.676 55.54H245.536C244.869 56.2867 244.163 57.06 243.416 57.86C242.683 58.66 241.943 59.44 241.196 60.2C241.596 60.5333 242.016 60.94 242.456 61.42C242.896 61.8867 243.323 62.3867 243.736 62.92C244.149 63.4534 244.536 63.9867 244.896 64.52C245.256 65.0533 245.556 65.5467 245.796 66H242.996C242.756 65.5867 242.476 65.1534 242.156 64.7C241.849 64.2467 241.516 63.8067 241.156 63.38C240.796 62.9533 240.429 62.5533 240.056 62.18C239.683 61.7933 239.316 61.4667 238.956 61.2V66H236.536V50.88L238.956 50.48V59.62Z" fill="black"/>
<path d="M251.232 64.3C251.978 64.3 252.545 64.26 252.932 64.18V61.5C252.798 61.46 252.605 61.42 252.352 61.38C252.098 61.34 251.818 61.32 251.512 61.32C251.245 61.32 250.972 61.34 250.692 61.38C250.425 61.42 250.178 61.4934 249.952 61.6C249.738 61.7067 249.565 61.86 249.432 62.06C249.298 62.2467 249.232 62.4867 249.232 62.78C249.232 63.3534 249.412 63.7533 249.772 63.98C250.132 64.1933 250.618 64.3 251.232 64.3ZM251.032 55.28C251.832 55.28 252.505 55.38 253.052 55.58C253.598 55.78 254.032 56.06 254.352 56.42C254.685 56.78 254.918 57.22 255.052 57.74C255.198 58.2467 255.272 58.8067 255.272 59.42V65.76C254.898 65.84 254.332 65.9333 253.572 66.04C252.825 66.16 251.978 66.22 251.032 66.22C250.405 66.22 249.832 66.16 249.312 66.04C248.792 65.92 248.345 65.7267 247.972 65.46C247.612 65.1933 247.325 64.8467 247.112 64.42C246.912 63.9934 246.812 63.4667 246.812 62.84C246.812 62.24 246.925 61.7333 247.152 61.32C247.392 60.9067 247.712 60.5733 248.112 60.32C248.512 60.0533 248.972 59.8667 249.492 59.76C250.025 59.64 250.578 59.58 251.152 59.58C251.418 59.58 251.698 59.6 251.992 59.64C252.285 59.6667 252.598 59.72 252.932 59.8V59.4C252.932 59.12 252.898 58.8534 252.832 58.6C252.765 58.3467 252.645 58.1267 252.472 57.94C252.312 57.74 252.092 57.5867 251.812 57.48C251.545 57.3733 251.205 57.32 250.792 57.32C250.232 57.32 249.718 57.36 249.252 57.44C248.785 57.52 248.405 57.6133 248.112 57.72L247.812 55.76C248.118 55.6534 248.565 55.5467 249.152 55.44C249.738 55.3334 250.365 55.28 251.032 55.28Z" fill="black"/>
<path d="M4.83991 30.16C4.10658 30.16 3.36658 30.1334 2.61991 30.08C1.87325 30.04 1.21991 29.9467 0.659912 29.8V16.34C0.953245 16.2867 1.26658 16.24 1.59991 16.2C1.93325 16.1467 2.27325 16.1067 2.61991 16.08C2.96658 16.0533 3.30658 16.0333 3.63991 16.02C3.98658 16.0067 4.31325 16 4.61991 16C5.45991 16 6.23991 16.0667 6.95991 16.2C7.67991 16.32 8.29991 16.5267 8.81991 16.82C9.35325 17.1133 9.76658 17.5 10.0599 17.98C10.3532 18.46 10.4999 19.0533 10.4999 19.76C10.4999 20.4133 10.3399 20.9733 10.0199 21.44C9.71325 21.9067 9.27991 22.28 8.71991 22.56C9.55991 22.84 10.1799 23.2533 10.5799 23.8C10.9799 24.3467 11.1799 25.04 11.1799 25.88C11.1799 27.3067 10.6599 28.38 9.61991 29.1C8.57991 29.8067 6.98658 30.16 4.83991 30.16ZM3.13991 23.76V27.98C3.41991 28.0067 3.71991 28.0267 4.03991 28.04C4.35991 28.0533 4.65325 28.06 4.91991 28.06C5.43991 28.06 5.91991 28.0267 6.35991 27.96C6.81325 27.8933 7.19991 27.78 7.51991 27.62C7.85325 27.4467 8.11325 27.22 8.29991 26.94C8.49991 26.66 8.59991 26.3 8.59991 25.86C8.59991 25.0733 8.31325 24.5267 7.73991 24.22C7.16658 23.9133 6.37325 23.76 5.35991 23.76H3.13991ZM3.13991 21.78H4.91991C5.87991 21.78 6.63325 21.6467 7.17991 21.38C7.72658 21.1 7.99991 20.6067 7.99991 19.9C7.99991 19.2333 7.71325 18.76 7.13991 18.48C6.57991 18.2 5.84658 18.06 4.93991 18.06C4.55325 18.06 4.20658 18.0667 3.89991 18.08C3.60658 18.0934 3.35325 18.1133 3.13991 18.14V21.78Z" fill="black"/>
<path d="M16.3244 27.92C16.4711 27.9334 16.6644 27.9467 16.9044 27.96C17.1444 27.96 17.4711 27.96 17.8844 27.96C19.5778 27.96 20.8378 27.5333 21.6644 26.68C22.5044 25.8133 22.9244 24.6067 22.9244 23.06C22.9244 21.4867 22.5178 20.28 21.7044 19.44C20.8911 18.6 19.6311 18.18 17.9244 18.18C17.1778 18.18 16.6444 18.2 16.3244 18.24V27.92ZM25.5644 23.06C25.5644 24.26 25.3778 25.3067 25.0044 26.2C24.6311 27.08 24.0978 27.82 23.4044 28.42C22.7244 29.0067 21.8978 29.4467 20.9244 29.74C19.9644 30.02 18.8978 30.16 17.7244 30.16C17.1644 30.16 16.5311 30.1334 15.8244 30.08C15.1178 30.04 14.4444 29.9467 13.8044 29.8V16.34C14.4444 16.1934 15.1244 16.1 15.8444 16.06C16.5644 16.02 17.2044 16 17.7644 16C18.9244 16 19.9844 16.14 20.9444 16.42C21.9044 16.6867 22.7244 17.1133 23.4044 17.7C24.0978 18.2733 24.6311 19.0067 25.0044 19.9C25.3778 20.78 25.5644 21.8333 25.5644 23.06Z" fill="black"/>
<path d="M37.4879 16.14V18.32H33.2279V30H30.6879V18.32H26.4279V16.14H37.4879Z" fill="black"/>
<path d="M46.5999 7.04002C48.1466 6.42668 49.6932 5.64002 51.2399 4.68002C52.8132 3.72001 54.1999 2.58668 55.3999 1.28002H58.7999V29H53.9599V7.76002C53.2399 8.32002 52.3332 8.86668 51.2399 9.40002C50.1466 9.93335 49.0932 10.3733 48.0799 10.72L46.5999 7.04002Z" fill="black"/>
<path d="M74.2543 26.36C74.2543 27.2933 73.9343 28.0533 73.2943 28.64C72.681 29.2267 71.9343 29.52 71.0543 29.52C70.1476 29.52 69.3876 29.2267 68.7743 28.64C68.161 28.0533 67.8543 27.2933 67.8543 26.36C67.8543 25.4267 68.161 24.6667 68.7743 24.08C69.3876 23.4667 70.1476 23.16 71.0543 23.16C71.9343 23.16 72.681 23.4667 73.2943 24.08C73.9343 24.6667 74.2543 25.4267 74.2543 26.36Z" fill="black"/>
<path d="M85.7993 29.6C85.0793 29.6 84.3326 29.5467 83.5593 29.44C82.8126 29.36 82.0926 29.24 81.3993 29.08C80.7326 28.9467 80.1193 28.8 79.5593 28.64C78.9993 28.4533 78.5726 28.28 78.2793 28.12L79.2393 24C79.7993 24.2667 80.6126 24.5734 81.6793 24.92C82.746 25.24 84.066 25.4 85.6393 25.4C87.746 25.4 89.266 25 90.1993 24.2C91.1326 23.3733 91.5993 22.28 91.5993 20.92C91.5993 20.04 91.4126 19.3067 91.0393 18.72C90.6926 18.1333 90.1993 17.6667 89.5593 17.32C88.946 16.9467 88.226 16.6933 87.3993 16.56C86.5993 16.4 85.746 16.32 84.8393 16.32H83.1993V12.4H85.1993C85.8126 12.4 86.426 12.3467 87.0393 12.24C87.6793 12.1067 88.2526 11.8933 88.7593 11.6C89.266 11.28 89.6793 10.8667 89.9993 10.36C90.3193 9.85335 90.4793 9.20002 90.4793 8.40001C90.4793 7.76002 90.3593 7.21335 90.1193 6.76001C89.8793 6.30668 89.5593 5.93335 89.1593 5.64001C88.786 5.34668 88.346 5.13335 87.8393 5.00002C87.3326 4.86668 86.7993 4.80002 86.2393 4.80002C85.0393 4.80002 83.9726 4.98668 83.0393 5.36002C82.106 5.70668 81.2793 6.10668 80.5593 6.56001L78.7993 2.96002C79.1726 2.72002 79.626 2.46668 80.1593 2.20002C80.6926 1.93335 81.2793 1.68002 81.9193 1.44002C82.586 1.20002 83.2926 1.01335 84.0393 0.880016C84.786 0.720015 85.5726 0.640015 86.3993 0.640015C87.946 0.640015 89.2793 0.826681 90.3993 1.20001C91.5193 1.57335 92.4393 2.10668 93.1593 2.80002C93.906 3.46668 94.4526 4.26668 94.7993 5.20002C95.1726 6.10668 95.3593 7.10668 95.3593 8.20002C95.3593 9.48002 94.9993 10.6267 94.2793 11.64C93.586 12.6533 92.6793 13.4267 91.5593 13.96C92.9993 14.4667 94.186 15.3067 95.1193 16.48C96.0793 17.6533 96.5593 19.16 96.5593 21C96.5593 22.2267 96.346 23.3733 95.9193 24.44C95.4926 25.48 94.8393 26.3867 93.9593 27.16C93.0793 27.9067 91.9593 28.5067 90.5993 28.96C89.266 29.3867 87.666 29.6 85.7993 29.6Z" fill="black"/>
<path d="M110.374 15.52C109.6 15.52 108.854 15.5867 108.134 15.72C107.414 15.8533 106.76 16.0533 106.174 16.32C106.147 16.5333 106.12 16.7733 106.094 17.04C106.094 17.28 106.094 17.52 106.094 17.76C106.094 18.8267 106.16 19.84 106.294 20.8C106.454 21.7334 106.707 22.56 107.054 23.28C107.427 23.9733 107.92 24.5333 108.534 24.96C109.174 25.36 109.96 25.56 110.894 25.56C111.667 25.56 112.32 25.4 112.854 25.08C113.414 24.76 113.867 24.3467 114.214 23.84C114.56 23.3333 114.814 22.7867 114.974 22.2C115.134 21.5867 115.214 21 115.214 20.44C115.214 18.84 114.827 17.6267 114.054 16.8C113.28 15.9467 112.054 15.52 110.374 15.52ZM110.974 11.68C112.627 11.68 114.027 11.92 115.174 12.4C116.347 12.8533 117.294 13.48 118.014 14.28C118.734 15.08 119.254 16.0133 119.574 17.08C119.92 18.12 120.094 19.2133 120.094 20.36C120.094 21.4 119.907 22.4667 119.534 23.56C119.187 24.6533 118.627 25.6533 117.854 26.56C117.107 27.44 116.16 28.1734 115.014 28.76C113.867 29.32 112.507 29.6 110.934 29.6C107.76 29.6 105.334 28.56 103.654 26.48C102 24.3733 101.174 21.48 101.174 17.8C101.174 15.1333 101.56 12.7733 102.334 10.72C103.134 8.64002 104.254 6.89335 105.694 5.48002C107.16 4.06668 108.92 3.00002 110.974 2.28001C113.054 1.53335 115.387 1.14668 117.974 1.12002L118.254 5.12002C116.814 5.14668 115.467 5.30668 114.214 5.60002C112.96 5.86668 111.84 6.29335 110.854 6.88002C109.867 7.46668 109.014 8.22668 108.294 9.16002C107.6 10.0933 107.067 11.24 106.694 12.6C108 11.9867 109.427 11.68 110.974 11.68Z" fill="black"/>
<path d="M146.804 29.6C144.724 29.6 142.857 29.28 141.204 28.64C139.551 28 138.151 27.0667 137.004 25.84C135.857 24.5867 134.977 23.0667 134.364 21.28C133.751 19.4933 133.444 17.44 133.444 15.12C133.444 12.8 133.791 10.7467 134.484 8.96001C135.204 7.17335 136.177 5.66668 137.404 4.44002C138.631 3.18668 140.071 2.24002 141.724 1.60001C143.377 0.960015 145.151 0.640015 147.044 0.640015C148.191 0.640015 149.231 0.733348 150.164 0.920016C151.097 1.08002 151.911 1.26668 152.604 1.48002C153.297 1.69335 153.871 1.92002 154.324 2.16002C154.777 2.40002 155.097 2.57335 155.284 2.68001L153.804 6.80002C153.164 6.40002 152.244 6.02668 151.044 5.68002C149.871 5.30668 148.591 5.12002 147.204 5.12002C146.004 5.12002 144.884 5.33335 143.844 5.76002C142.804 6.16002 141.897 6.77335 141.124 7.60002C140.377 8.42668 139.791 9.46668 139.364 10.72C138.937 11.9733 138.724 13.4267 138.724 15.08C138.724 16.5467 138.884 17.8933 139.204 19.12C139.551 20.3467 140.071 21.4134 140.764 22.32C141.457 23.2 142.337 23.8934 143.404 24.4C144.471 24.88 145.751 25.12 147.244 25.12C149.031 25.12 150.484 24.9467 151.604 24.6C152.724 24.2267 153.591 23.88 154.204 23.56L155.564 27.68C155.244 27.8934 154.804 28.1067 154.244 28.32C153.711 28.5334 153.071 28.7467 152.324 28.96C151.577 29.1467 150.737 29.2934 149.804 29.4C148.871 29.5334 147.871 29.6 146.804 29.6Z" fill="black"/>
<path d="M178.164 18.52C178.164 20.1733 177.924 21.68 177.444 23.04C176.964 24.4 176.284 25.56 175.404 26.52C174.524 27.48 173.457 28.2267 172.204 28.76C170.977 29.2934 169.617 29.56 168.124 29.56C166.631 29.56 165.271 29.2934 164.044 28.76C162.817 28.2267 161.764 27.48 160.884 26.52C160.004 25.56 159.311 24.4 158.804 23.04C158.324 21.68 158.084 20.1733 158.084 18.52C158.084 16.8667 158.324 15.3733 158.804 14.04C159.311 12.68 160.004 11.52 160.884 10.56C161.791 9.60002 162.857 8.86668 164.084 8.36002C165.311 7.82668 166.657 7.56002 168.124 7.56002C169.591 7.56002 170.937 7.82668 172.164 8.36002C173.417 8.86668 174.484 9.60002 175.364 10.56C176.244 11.52 176.924 12.68 177.404 14.04C177.911 15.3733 178.164 16.8667 178.164 18.52ZM173.204 18.52C173.204 16.44 172.751 14.8 171.844 13.6C170.964 12.3733 169.724 11.76 168.124 11.76C166.524 11.76 165.271 12.3733 164.364 13.6C163.484 14.8 163.044 16.44 163.044 18.52C163.044 20.6267 163.484 22.2933 164.364 23.52C165.271 24.7467 166.524 25.36 168.124 25.36C169.724 25.36 170.964 24.7467 171.844 23.52C172.751 22.2933 173.204 20.6267 173.204 18.52Z" fill="black"/>
<path d="M195.07 12.44C194.67 12.3067 194.11 12.1733 193.39 12.04C192.697 11.88 191.884 11.8 190.95 11.8C190.417 11.8 189.844 11.8533 189.23 11.96C188.644 12.0667 188.23 12.16 187.99 12.24V29H183.15V9.08002C184.084 8.73335 185.244 8.41335 186.63 8.12002C188.044 7.80002 189.604 7.64002 191.31 7.64002C191.63 7.64002 192.004 7.66668 192.43 7.72002C192.857 7.74668 193.284 7.80002 193.71 7.88002C194.137 7.93335 194.55 8.01335 194.95 8.12002C195.35 8.20002 195.67 8.28001 195.91 8.36002L195.07 12.44Z" fill="black"/>
<path d="M198.123 18.64C198.123 16.8 198.39 15.1867 198.923 13.8C199.483 12.4133 200.216 11.2667 201.123 10.36C202.03 9.42668 203.07 8.73335 204.243 8.28002C205.416 7.80002 206.616 7.56002 207.843 7.56002C210.723 7.56002 212.963 8.45335 214.563 10.24C216.19 12.0267 217.003 14.6933 217.003 18.24C217.003 18.5067 216.99 18.8134 216.963 19.16C216.963 19.48 216.95 19.7733 216.923 20.04H203.123C203.256 21.72 203.843 23.0267 204.883 23.96C205.95 24.8667 207.483 25.32 209.483 25.32C210.656 25.32 211.723 25.2134 212.683 25C213.67 24.7867 214.443 24.56 215.003 24.32L215.643 28.28C215.376 28.4133 215.003 28.56 214.523 28.72C214.07 28.8533 213.536 28.9734 212.923 29.08C212.336 29.2134 211.696 29.32 211.003 29.4C210.31 29.48 209.603 29.52 208.883 29.52C207.043 29.52 205.443 29.2533 204.083 28.72C202.723 28.16 201.603 27.4 200.723 26.44C199.843 25.4533 199.19 24.3067 198.763 23C198.336 21.6667 198.123 20.2133 198.123 18.64ZM212.163 16.48C212.163 15.8133 212.07 15.1867 211.883 14.6C211.696 13.9867 211.416 13.4667 211.043 13.04C210.696 12.5867 210.256 12.24 209.723 12C209.216 11.7333 208.603 11.6 207.883 11.6C207.136 11.6 206.483 11.7467 205.923 12.04C205.363 12.3067 204.883 12.6667 204.483 13.12C204.11 13.5733 203.816 14.0933 203.603 14.68C203.39 15.2667 203.243 15.8667 203.163 16.48H212.163Z" fill="black"/>
</svg>
